<?xml version="1.0" encoding="UTF-8"?>
<svg id="uuid-6bafa751-bba8-429a-a7c9-f5abcd5c3103" data-name="Laag 1" xmlns="http://www.w3.org/2000/svg" width="512.88mm" height="106.47mm" xmlns:xlink="http://www.w3.org/1999/xlink" viewBox="0 0 1453.84 301.8">
  <defs>
    <style>
      .uuid-1f42cb0c-4451-4b10-872d-f19a80ac3ddf {
        fill: url(#uuid-b73cebe1-7b4d-4d93-99eb-9fcac60e15d3);
      }

      .uuid-48674447-c961-48cd-906f-bab8be57a1df {
        fill: url(#uuid-0ce4ea68-869e-4e85-bfaf-488f3d9cba5b);
      }

      .uuid-e6d20600-5c0d-482d-a224-8523ebd2fec5 {
        clip-path: url(#uuid-0961d2b8-3fb5-44d4-890e-d2bef9480adb);
      }

      .uuid-cea9e5db-ab01-4d1b-a2bb-e3431da9e6f8 {
        fill: none;
      }

      .uuid-0ee6203f-0e3e-494d-bc59-af51fb875abd {
        fill: url(#uuid-c368993c-69eb-4fd9-b45f-ee9a36c04bf2);
      }

      .uuid-f92efa1b-0a04-4a26-ad67-f0a2fe4197c6 {
        clip-path: url(#uuid-a09c2be8-8607-4df1-b4ee-24a4a2c70fb2);
      }

      .uuid-59863d28-9ab3-46ee-89d6-1049eff42744 {
        clip-path: url(#uuid-ec7eb5e3-82b0-4661-b9fc-664fd79c3f60);
      }
    </style>
    <clipPath id="uuid-0961d2b8-3fb5-44d4-890e-d2bef9480adb">
      <path class="uuid-cea9e5db-ab01-4d1b-a2bb-e3431da9e6f8" d="M109.19,53.06c-25.48,14.71-34.21,47.29-19.5,72.76l52.92,91.66c.24,4.23-.29,9.44-3.38,12.63-3.06,3.16-7.95,4.57-12.14,5.42-4.12.83-8.71,1.23-12.87.38-2.04-.42-4.12-1.15-5.67-2.59-.44-.41-.82-.85-1.17-1.32-3.97-25.91-26.35-45.76-53.37-45.76-29.82,0-54,24.18-54,54s24.18,54,54,54c25.14,0,46.27-17.18,52.28-40.44,1.56-2.21,3.68-3.58,6.01-4.89,4.72-2.65,9.69-4.78,14.84-6.45.28.05.58.05.93-.06,8.48-2.74,17.76-1.05,25.31,3.48,4.59,2.75,8.48,6.43,11.76,10.62l6.41,11.1c14.71,25.48,47.29,34.21,72.76,19.5,25.48-14.71,34.21-47.29,19.5-72.76l-81.85-141.77c-9.87-17.09-27.77-26.64-46.18-26.64-9.04,0-18.19,2.3-26.58,7.14M502.87,53.06c-25.48,14.71-34.21,47.29-19.5,72.76l52.92,91.66c.24,4.23-.29,9.44-3.38,12.63-3.07,3.16-7.95,4.57-12.14,5.42-4.12.83-8.72,1.23-12.87.38-2.04-.42-4.12-1.15-5.68-2.59-.44-.41-.82-.85-1.17-1.32-3.97-25.91-26.35-45.76-53.38-45.76-29.82,0-54,24.18-54,54s24.18,54,54,54c25.14,0,46.27-17.18,52.28-40.44,1.55-2.21,3.68-3.58,6.01-4.89,4.72-2.65,9.69-4.78,14.84-6.45.28.05.58.05.93-.06,8.48-2.74,17.76-1.05,25.32,3.48,4.59,2.75,8.48,6.43,11.76,10.62l6.41,11.1c14.71,25.48,47.29,34.21,72.76,19.5s34.21-47.29,19.5-72.76l-81.85-141.77c-9.87-17.09-27.77-26.64-46.18-26.64-9.04,0-18.19,2.3-26.58,7.14M225.96,9.57c-26.15,14.35-35.71,47.17-21.37,73.32,12.09,22.04,37.32,32.3,60.6,26.38,2.69.3,4.91,1.51,7.18,2.92,4.6,2.87,8.86,6.2,12.8,9.91.09.27.24.54.5.78,6.48,6.12,9.47,15.06,9.13,23.87-.21,5.35-1.56,10.53-3.65,15.42l-6.65,10.96c-15.26,25.15-7.24,57.91,17.91,73.17,25.15,15.26,57.91,7.24,73.17-17.91l84.92-139.96c15.26-25.15,7.24-57.91-17.91-73.17-25.15-15.26-57.91-7.24-73.17,17.91l-54.9,90.49c-3.59,2.25-8.41,4.28-12.7,3.11-4.24-1.17-7.84-4.77-10.59-8.04-2.71-3.21-5.27-7.05-6.52-11.1-.62-1.99-.98-4.16-.46-6.22.15-.58.35-1.13.6-1.66,20.81-15.94,27.44-45.11,14.44-68.8-9.82-17.9-28.32-28.03-47.39-28.03-8.78,0-17.69,2.15-25.93,6.67"/>
    </clipPath>
    <linearGradient id="uuid-b73cebe1-7b4d-4d93-99eb-9fcac60e15d3" data-name="Naamloos verloop" x1="0" y1="429.39" x2="1" y2="429.39" gradientTransform="translate(0 285532.29) scale(664.63 -664.63)" gradientUnits="userSpaceOnUse">
      <stop offset="0" stop-color="#f7741e"/>
      <stop offset=".2" stop-color="#f7741e"/>
      <stop offset=".5" stop-color="#e14385"/>
      <stop offset=".8" stop-color="#7200ff"/>
      <stop offset="1" stop-color="#7200ff"/>
    </linearGradient>
    <clipPath id="uuid-a09c2be8-8607-4df1-b4ee-24a4a2c70fb2">
      <path class="uuid-cea9e5db-ab01-4d1b-a2bb-e3431da9e6f8" d="M139.27,211.7c-.5-1.12-1.11-2.19-1.83-3.17l1.83,3.17Z"/>
    </clipPath>
    <linearGradient id="uuid-0ce4ea68-869e-4e85-bfaf-488f3d9cba5b" data-name="Naamloos verloop 2" x1="0" y1="429.39" x2="1" y2="429.39" gradientTransform="translate(137.44 995.83) scale(1.83 -1.83)" gradientUnits="userSpaceOnUse">
      <stop offset="0" stop-color="#f7741e"/>
      <stop offset=".22" stop-color="#f7741e"/>
      <stop offset="1" stop-color="#7200ff"/>
    </linearGradient>
    <clipPath id="uuid-ec7eb5e3-82b0-4661-b9fc-664fd79c3f60">
      <path class="uuid-cea9e5db-ab01-4d1b-a2bb-e3431da9e6f8" d="M139.27,211.7c-.5-1.12-1.11-2.19-1.83-3.17l1.83,3.17Z"/>
    </clipPath>
    <linearGradient id="uuid-c368993c-69eb-4fd9-b45f-ee9a36c04bf2" data-name="Naamloos verloop 3" x1="0" y1="429.39" x2="1" y2="429.39" gradientTransform="translate(137.44 995.83) scale(1.83 -1.83)" gradientUnits="userSpaceOnUse">
      <stop offset="0" stop-color="#f7741e"/>
      <stop offset=".22" stop-color="#f7741e"/>
      <stop offset="1" stop-color="#7200ff"/>
    </linearGradient>
  </defs>
  <g>
    <path d="M701.26,176.33h18.5c.15,5.09,4.63,8.48,13.57,8.48,9.41,0,13.42-3.86,13.42-8.48,0-5.86-6.79-6.63-14.96-7.71-11.72-1.54-28.99-3.55-28.99-22.21,0-15.58,11.88-25.75,30.23-25.75s30.07,10.49,30.53,23.9h-18.2c-.46-4.63-4.78-7.86-12.03-7.86-8.02,0-12.03,3.85-12.03,8.33,0,5.86,6.94,6.79,15.11,7.87,10.18,1.39,28.84,3.39,28.84,22.36,0,15.42-12.49,25.6-31.92,25.6s-31.61-10.33-32.08-24.52"/>
    <path d="M770.61,169.55v-73.87h18.35v26.99h39.32v16.65h-39.32v30.23c0,10.18,5.24,14.19,12.8,14.19s12.8-3.86,12.8-14.19v-2h18.35v2c0,21.13-12.65,31.3-31.15,31.3s-31.15-10.18-31.15-31.3"/>
    <path d="M838.77,154.59c0-22.98,13.57-33.93,33.46-33.93s33.31,10.95,33.31,34.24v.46h-18.2v-.77c0-12.34-6.17-16.81-15.11-16.81s-15.11,4.47-15.11,16.81v44.26h-18.35v-44.26Z"/>
    <path d="M910.38,160.76c0-23.13,16.96-40.1,41.02-40.1s41.02,16.96,41.02,40.1-16.96,40.1-41.02,40.1-41.02-16.96-41.02-40.1M973.76,160.76c0-13.42-8.94-22.98-22.36-22.98s-22.52,9.56-22.52,22.98,9.1,22.98,22.52,22.98,22.36-9.56,22.36-22.98"/>
    <path d="M1000.54,159.21c0-25.45,15.11-38.55,37.63-38.55s37.63,12.95,37.63,38.55v39.63h-18.35v-39.63c0-14.5-7.71-21.44-19.28-21.44s-19.28,6.94-19.28,21.44v39.63h-18.35v-39.63Z"/>
    <path d="M1086.54,207.17h18.51c3.08,7.09,10.49,10.33,20.2,10.33,13.57,0,22.05-6.32,22.05-24.06v-6.63c-5.24,8.48-14.34,13.11-25.76,13.11-18.2,0-37.63-12.18-37.63-39.17,0-23.13,16.96-40.1,41.02-40.1s40.71,16.04,40.71,40.71v31.46c0,29.15-18.04,40.56-40.4,40.56-18.97,0-33.92-8.17-38.71-26.22M1147.3,160.76c0-13.42-8.95-22.98-22.36-22.98s-22.52,9.56-22.52,22.98,9.1,22.05,22.52,22.05,22.36-8.63,22.36-22.05"/>
    <path d="M1204.06,161.53c0-24.21,16.96-40.87,41.18-40.87s40.56,16.19,40.56,40.71v37.47h-16.81v-14.96c-4.63,11.26-14.96,16.96-26.99,16.96-18.51,0-37.94-13.26-37.94-39.32M1267.44,160.76c0-13.42-8.94-22.98-22.36-22.98s-22.51,9.56-22.51,22.98,9.1,22.98,22.51,22.98,22.36-9.56,22.36-22.98"/>
    <path d="M1291.76,207.17h18.35c3.09,7.09,9.1,10.33,18.35,10.33,12.49,0,19.59-6.01,19.59-20.82v-9.56c-4.63,8.33-12.64,12.8-22.67,12.8-17.58,0-34.24-11.41-34.24-38.55v-38.71h18.35v38.71c0,14.5,7.71,21.44,19.28,21.44s19.28-7.25,19.28-21.44v-38.71h18.35v73.56c0,26.52-16.81,37.17-37.94,37.17-17.73,0-32.38-8.17-36.7-26.22"/>
    <path d="M1372.11,161.53c0-24.21,16.96-40.87,41.17-40.87s40.56,16.19,40.56,40.71v37.47h-16.81v-14.96c-4.63,11.26-14.96,16.96-26.99,16.96-18.5,0-37.93-13.26-37.93-39.32M1435.49,160.76c0-13.42-8.95-22.98-22.36-22.98s-22.52,9.56-22.52,22.98,9.1,22.98,22.52,22.98,22.36-9.56,22.36-22.98"/>
  </g>
  <g class="uuid-e6d20600-5c0d-482d-a224-8523ebd2fec5">
    <rect class="uuid-1f42cb0c-4451-4b10-872d-f19a80ac3ddf" width="672.19" height="301.8"/>
  </g>
  <g class="uuid-f92efa1b-0a04-4a26-ad67-f0a2fe4197c6">
    <rect class="uuid-48674447-c961-48cd-906f-bab8be57a1df" x="137.44" y="208.53" width="1.83" height="3.17"/>
  </g>
  <g class="uuid-59863d28-9ab3-46ee-89d6-1049eff42744">
    <rect class="uuid-0ee6203f-0e3e-494d-bc59-af51fb875abd" x="137.44" y="208.53" width="1.83" height="3.17"/>
  </g>
</svg>