<?xml version="1.0" encoding="UTF-8"?>
<svg id="uuid-53d6142e-04c4-4aaa-80d6-1b570fd018c2" data-name="Laag 1" xmlns="http://www.w3.org/2000/svg" width="553.86mm" height="247.09mm" xmlns:xlink="http://www.w3.org/1999/xlink" viewBox="0 0 1570 700.41">
  <defs>
    <style>
      .uuid-fb098318-840d-42e6-baf2-6436c279429f {
        fill: url(#uuid-ec0e5ba3-a929-49df-9708-8dfe8e1b0936);
      }

      .uuid-0370359c-2d8e-4981-81c4-fbbc815a90b0 {
        clip-path: url(#uuid-7805a4d9-a604-4cc2-ac33-c5d05fc10feb);
      }

      .uuid-0b8660db-bc7d-416d-883e-230fdc32d535 {
        fill: none;
      }

      .uuid-7a0c48aa-6d2a-4f88-ace1-d120ae6869da {
        fill: url(#uuid-7fd78122-7c1b-49d9-96fe-7497ac4eb95e);
      }

      .uuid-492ecac8-ea12-46a3-b0b5-d8fb0fdc2998 {
        clip-path: url(#uuid-da79bc82-e441-4e0c-9a62-de58ea28b9e4);
      }

      .uuid-ebf19e96-d2d6-4b00-80a4-d3e78f56f7f6 {
        fill: url(#uuid-261ab2f4-07f3-4946-9bae-10e18e6d56fe);
      }

      .uuid-9ece0d51-e69f-4690-af0f-337768fa158c {
        clip-path: url(#uuid-d89b1219-401e-477f-aad8-b88f7faeae9c);
      }

      .uuid-9b4a111f-54ff-470d-9bef-2ff2a6f6ef34 {
        clip-path: url(#uuid-ecd05870-709e-49c2-87e8-70de931ec3e4);
      }
    </style>
    <clipPath id="uuid-ecd05870-709e-49c2-87e8-70de931ec3e4">
      <rect class="uuid-0b8660db-bc7d-416d-883e-230fdc32d535" x="585.1" width="984.9" height="632"/>
    </clipPath>
    <clipPath id="uuid-d89b1219-401e-477f-aad8-b88f7faeae9c">
      <path class="uuid-0b8660db-bc7d-416d-883e-230fdc32d535" d="M109.19,451.67c-25.48,14.71-34.21,47.29-19.5,72.76l52.92,91.66c.24,4.23-.29,9.44-3.38,12.63-3.06,3.16-7.95,4.57-12.14,5.42-4.12.83-8.71,1.23-12.87.38-2.04-.42-4.12-1.15-5.67-2.59-.44-.41-.82-.85-1.17-1.32-3.97-25.91-26.35-45.76-53.37-45.76-29.82,0-54,24.18-54,54s24.18,54,54,54c25.14,0,46.27-17.18,52.28-40.44,1.56-2.21,3.68-3.58,6.01-4.89,4.72-2.65,9.69-4.78,14.84-6.45.28.05.58.05.93-.06,8.48-2.74,17.76-1.05,25.31,3.48,4.59,2.75,8.48,6.43,11.76,10.62l6.41,11.1c14.71,25.48,47.29,34.21,72.76,19.5,25.48-14.71,34.21-47.29,19.5-72.76l-81.85-141.77c-9.87-17.09-27.77-26.64-46.18-26.64-9.04,0-18.19,2.3-26.58,7.14M502.87,451.67c-25.48,14.71-34.21,47.29-19.5,72.76l52.92,91.66c.24,4.23-.29,9.44-3.38,12.63-3.07,3.16-7.95,4.57-12.14,5.42-4.12.83-8.72,1.23-12.87.38-2.04-.42-4.12-1.15-5.68-2.59-.44-.41-.82-.85-1.17-1.32-3.97-25.91-26.35-45.76-53.38-45.76-29.82,0-54,24.18-54,54s24.18,54,54,54c25.14,0,46.27-17.18,52.28-40.44,1.55-2.21,3.68-3.58,6.01-4.89,4.72-2.65,9.69-4.78,14.84-6.45.28.05.58.05.93-.06,8.48-2.74,17.76-1.05,25.32,3.48,4.59,2.75,8.48,6.43,11.76,10.62l6.41,11.1c14.71,25.48,47.29,34.21,72.76,19.5s34.21-47.29,19.5-72.76l-81.85-141.77c-9.87-17.09-27.77-26.64-46.18-26.64-9.04,0-18.19,2.3-26.58,7.14M225.96,408.18c-26.15,14.35-35.71,47.17-21.37,73.32,12.09,22.04,37.32,32.3,60.6,26.38,2.69.3,4.91,1.51,7.18,2.92,4.6,2.87,8.86,6.2,12.8,9.91.09.27.24.54.5.78,6.48,6.12,9.47,15.06,9.13,23.87-.21,5.35-1.56,10.53-3.65,15.42l-6.65,10.96c-15.26,25.15-7.24,57.91,17.91,73.17,25.15,15.26,57.91,7.24,73.17-17.91l84.92-139.96c15.26-25.15,7.24-57.91-17.91-73.17-25.15-15.26-57.91-7.24-73.17,17.91l-54.9,90.49c-3.59,2.25-8.41,4.28-12.7,3.11-4.24-1.17-7.84-4.77-10.59-8.04-2.71-3.21-5.27-7.05-6.52-11.1-.62-1.99-.98-4.16-.46-6.22.15-.58.35-1.13.6-1.66,20.81-15.94,27.44-45.11,14.44-68.8-9.82-17.9-28.32-28.03-47.39-28.03-8.78,0-17.69,2.15-25.93,6.67"/>
    </clipPath>
    <linearGradient id="uuid-ec0e5ba3-a929-49df-9708-8dfe8e1b0936" data-name="Naamloos verloop" x1="0" y1="828" x2="1" y2="828" gradientTransform="translate(0 550858.7) scale(664.63 -664.63)" gradientUnits="userSpaceOnUse">
      <stop offset="0" stop-color="#f7741e"/>
      <stop offset=".2" stop-color="#f7741e"/>
      <stop offset=".5" stop-color="#e14385"/>
      <stop offset=".8" stop-color="#7200ff"/>
      <stop offset="1" stop-color="#7200ff"/>
    </linearGradient>
    <clipPath id="uuid-7805a4d9-a604-4cc2-ac33-c5d05fc10feb">
      <path class="uuid-0b8660db-bc7d-416d-883e-230fdc32d535" d="M139.27,610.32c-.5-1.12-1.11-2.19-1.83-3.17l1.83,3.17Z"/>
    </clipPath>
    <linearGradient id="uuid-261ab2f4-07f3-4946-9bae-10e18e6d56fe" data-name="Naamloos verloop 2" x1="0" y1="828" x2="1" y2="828" gradientTransform="translate(137.44 2123.83) scale(1.83 -1.83)" gradientUnits="userSpaceOnUse">
      <stop offset="0" stop-color="#f7741e"/>
      <stop offset=".22" stop-color="#f7741e"/>
      <stop offset="1" stop-color="#7200ff"/>
    </linearGradient>
    <clipPath id="uuid-da79bc82-e441-4e0c-9a62-de58ea28b9e4">
      <path class="uuid-0b8660db-bc7d-416d-883e-230fdc32d535" d="M139.27,610.32c-.5-1.12-1.11-2.19-1.83-3.17l1.83,3.17Z"/>
    </clipPath>
    <linearGradient id="uuid-7fd78122-7c1b-49d9-96fe-7497ac4eb95e" data-name="Naamloos verloop 3" x1="0" y1="828" x2="1" y2="828" gradientTransform="translate(137.44 2123.83) scale(1.83 -1.83)" gradientUnits="userSpaceOnUse">
      <stop offset="0" stop-color="#f7741e"/>
      <stop offset=".22" stop-color="#f7741e"/>
      <stop offset="1" stop-color="#7200ff"/>
    </linearGradient>
  </defs>
  <g class="uuid-9b4a111f-54ff-470d-9bef-2ff2a6f6ef34">
    <path d="M701.26,574.94h18.5c.15,5.09,4.63,8.48,13.57,8.48,9.41,0,13.42-3.86,13.42-8.48,0-5.86-6.79-6.63-14.96-7.71-11.72-1.54-28.99-3.55-28.99-22.21,0-15.58,11.88-25.75,30.23-25.75s30.07,10.49,30.53,23.9h-18.2c-.46-4.63-4.78-7.86-12.03-7.86-8.02,0-12.03,3.85-12.03,8.33,0,5.86,6.94,6.79,15.11,7.87,10.18,1.39,28.84,3.39,28.84,22.36,0,15.42-12.49,25.6-31.92,25.6s-31.61-10.33-32.08-24.52"/>
    <path d="M770.61,568.16v-73.87h18.35v26.99h39.32v16.65h-39.32v30.23c0,10.18,5.24,14.19,12.8,14.19s12.8-3.86,12.8-14.19v-2h18.35v2c0,21.13-12.65,31.3-31.15,31.3s-31.15-10.18-31.15-31.3"/>
    <path d="M838.77,553.2c0-22.98,13.57-33.93,33.46-33.93s33.31,10.95,33.31,34.24v.46h-18.2v-.77c0-12.34-6.17-16.81-15.11-16.81s-15.11,4.47-15.11,16.81v44.26h-18.35v-44.26Z"/>
    <path d="M910.38,559.37c0-23.13,16.96-40.1,41.02-40.1s41.02,16.96,41.02,40.1-16.96,40.1-41.02,40.1-41.02-16.96-41.02-40.1M973.76,559.37c0-13.42-8.94-22.98-22.36-22.98s-22.52,9.56-22.52,22.98,9.1,22.98,22.52,22.98,22.36-9.56,22.36-22.98"/>
    <path d="M1000.54,557.82c0-25.45,15.11-38.55,37.63-38.55s37.63,12.95,37.63,38.55v39.63h-18.35v-39.63c0-14.5-7.71-21.44-19.28-21.44s-19.28,6.94-19.28,21.44v39.63h-18.35v-39.63Z"/>
    <path d="M1086.54,605.78h18.51c3.08,7.09,10.49,10.33,20.2,10.33,13.57,0,22.05-6.32,22.05-24.06v-6.63c-5.24,8.48-14.34,13.11-25.76,13.11-18.2,0-37.63-12.18-37.63-39.17,0-23.13,16.96-40.1,41.02-40.1s40.71,16.04,40.71,40.71v31.46c0,29.15-18.04,40.56-40.4,40.56-18.97,0-33.92-8.17-38.71-26.22M1147.3,559.37c0-13.42-8.95-22.98-22.36-22.98s-22.52,9.56-22.52,22.98,9.1,22.05,22.52,22.05,22.36-8.63,22.36-22.05"/>
    <path d="M1204.06,560.14c0-24.21,16.96-40.87,41.18-40.87s40.56,16.19,40.56,40.71v37.47h-16.81v-14.96c-4.63,11.26-14.96,16.96-26.99,16.96-18.51,0-37.94-13.26-37.94-39.32M1267.44,559.37c0-13.42-8.94-22.98-22.36-22.98s-22.51,9.56-22.51,22.98,9.1,22.98,22.51,22.98,22.36-9.56,22.36-22.98"/>
    <path d="M1291.76,605.78h18.35c3.09,7.09,9.1,10.33,18.35,10.33,12.49,0,19.59-6.01,19.59-20.82v-9.56c-4.63,8.33-12.64,12.8-22.67,12.8-17.58,0-34.24-11.41-34.24-38.55v-38.71h18.35v38.71c0,14.5,7.71,21.44,19.28,21.44s19.28-7.25,19.28-21.44v-38.71h18.35v73.56c0,26.52-16.81,37.17-37.94,37.17-17.73,0-32.38-8.17-36.7-26.22"/>
    <path d="M1372.11,560.14c0-24.21,16.96-40.87,41.17-40.87s40.56,16.19,40.56,40.71v37.47h-16.81v-14.96c-4.63,11.26-14.96,16.96-26.99,16.96-18.5,0-37.93-13.26-37.93-39.32M1435.49,559.37c0-13.42-8.95-22.98-22.36-22.98s-22.52,9.56-22.52,22.98,9.1,22.98,22.52,22.98,22.36-9.56,22.36-22.98"/>
  </g>
  <g class="uuid-9ece0d51-e69f-4690-af0f-337768fa158c">
    <rect class="uuid-fb098318-840d-42e6-baf2-6436c279429f" y="398.61" width="672.19" height="301.8"/>
  </g>
  <g class="uuid-0370359c-2d8e-4981-81c4-fbbc815a90b0">
    <rect class="uuid-ebf19e96-d2d6-4b00-80a4-d3e78f56f7f6" x="137.44" y="607.15" width="1.83" height="3.17"/>
  </g>
  <g class="uuid-492ecac8-ea12-46a3-b0b5-d8fb0fdc2998">
    <rect class="uuid-7a0c48aa-6d2a-4f88-ace1-d120ae6869da" x="137.44" y="607.15" width="1.83" height="3.17"/>
  </g>
</svg>