<?xml version="1.0" encoding="UTF-8"?><svg id="uuid-6c2d2135-a80b-4a82-9e39-4ddad8859d5c" xmlns="http://www.w3.org/2000/svg" viewBox="0 0 404.43 264.26"><defs><style>.uuid-d96e6ed4-f2b5-495a-aad2-e9499ee77840{opacity:.75;}.uuid-0a615b2f-0732-4f8c-8bf7-ac804b285eb7,.uuid-1f3bd5b5-6b49-4d73-bc9a-ecd55abcedb5{fill:#fff;}.uuid-4e53e9cc-8d32-4bd6-b3f3-1c67a92a0e2f{fill:#231f20;}.uuid-532bb027-e00e-4a52-ad61-e0da51a8d778{fill:#e54b74;}.uuid-1f3bd5b5-6b49-4d73-bc9a-ecd55abcedb5,.uuid-2cb62c40-9674-49bd-b2c9-39b8a843598a{stroke:#e54b74;stroke-miterlimit:10;}.uuid-2cb62c40-9674-49bd-b2c9-39b8a843598a{fill:none;}.uuid-93056da1-84e0-41df-8b0b-86fc901ef2ff{fill:#faf4ea;isolation:isolate;opacity:.25;}</style></defs><g id="uuid-b235aea1-5281-47e9-bc42-60767d812997"><g id="uuid-f1b1c0f5-ebd1-428e-b8d8-58779874893c"><rect class="uuid-93056da1-84e0-41df-8b0b-86fc901ef2ff" width="404.43" height="264.26" rx="46.34" ry="46.34"/><line class="uuid-2cb62c40-9674-49bd-b2c9-39b8a843598a" x1="276.29" y1="133.69" x2="343.02" y2="164.81"/><polygon class="uuid-532bb027-e00e-4a52-ad61-e0da51a8d778" points="338.91 166.97 341.9 164.28 342.04 160.26 348.43 167.33 338.91 166.97"/><line class="uuid-2cb62c40-9674-49bd-b2c9-39b8a843598a" x1="92.69" y1="183.77" x2="229.58" y2="133.92"/><polygon class="uuid-532bb027-e00e-4a52-ad61-e0da51a8d778" points="228.2 138.36 228.42 134.34 225.67 131.4 235.19 131.87 228.2 138.36"/><line class="uuid-2cb62c40-9674-49bd-b2c9-39b8a843598a" x1="69.47" y1="169.41" x2="64.19" y2="109.22"/><polygon class="uuid-532bb027-e00e-4a52-ad61-e0da51a8d778" points="68.12 111.7 64.29 110.45 60.74 112.34 63.66 103.28 68.12 111.7"/><g id="uuid-7ede34b3-3bb2-428b-8a83-882fb7f7da8c"><ellipse class="uuid-1f3bd5b5-6b49-4d73-bc9a-ecd55abcedb5" cx="256.36" cy="124.36" rx="22.15" ry="21.75"/><g class="uuid-d96e6ed4-f2b5-495a-aad2-e9499ee77840"><path class="uuid-0a615b2f-0732-4f8c-8bf7-ac804b285eb7" d="M238.61,123.22c-.78,0-1.42-.63-1.42-1.42v-3.13h-.09c-.78,0-1.42-.63-1.42-1.42v-1.07c0-.78.63-1.42,1.42-1.42h4.32c.78,0,1.42.63,1.42,1.42v1.07c0,.78-.63,1.42-1.42,1.42h-.12v3.13c0,.78-.63,1.42-1.42,1.42h-1.28.01Z"/><path class="uuid-0a615b2f-0732-4f8c-8bf7-ac804b285eb7" d="M241.86,123.22c-.78,0-1.42-.63-1.42-1.42v-4.07c0-.16.03-.31.07-.46-.08-.23-.11-.47-.11-.71-.01-.49.19-1.01.57-1.4.39-.4.93-.62,1.51-.62,1.17,0,2.07.87,2.09,2.03,0,.25-.04.49-.12.71.05.14.08.3.08.46v4.07c0,.78-.63,1.42-1.42,1.42h-1.27.02Z"/><path class="uuid-0a615b2f-0732-4f8c-8bf7-ac804b285eb7" d="M249.07,123.22c-.22,0-.43-.05-.62-.14-.19.09-.4.14-.62.14h-1.23c-.22,0-.43-.05-.61-.14-.19.09-.39.14-.61.14h-1.23c-.78,0-1.42-.63-1.42-1.42v-2.77c0-.48-.02-.89-.03-1.23-.02-.39.12-.76.39-1.04.27-.28.64-.44,1.03-.44h1.07c.13,0,.26.02.38.05.29-.09.61-.14.93-.14.43,0,.84.09,1.19.26.38-.18.8-.26,1.24-.26,1.39,0,2.79.98,2.79,3.18v2.4c0,.78-.63,1.42-1.42,1.42h-1.23,0Z"/><path class="uuid-0a615b2f-0732-4f8c-8bf7-ac804b285eb7" d="M253.25,123.3c-2.15,0-3.59-1.4-3.59-3.49,0-1.74,1.22-3.59,3.47-3.59,1.9,0,3.23,1.42,3.23,3.45,0,.36-.04.65-.06.75-.04.22-.13.42-.25.59l.07.35c.13.67-.23,1.33-.87,1.58-.58.23-1.26.35-2,.35h0Z"/><path class="uuid-0a615b2f-0732-4f8c-8bf7-ac804b285eb7" d="M258.48,123.3c-.74,0-1.45-.16-1.99-.46-.57-.31-.86-.96-.7-1.59l.22-.91c.02-.1.06-.19.1-.28-.24-.48-.27-.92-.27-1.13,0-1.54,1.32-2.73,3.08-2.73.65,0,1.29.14,1.78.38.6.3.91.97.74,1.62l-.22.88c.33.48.44,1.01.44,1.45,0,1.33-1,2.75-3.18,2.75v.02Z"/><path class="uuid-0a615b2f-0732-4f8c-8bf7-ac804b285eb7" d="M261.02,123.22c-.78,0-1.42-.63-1.42-1.42v-4.07c0-.16.03-.31.07-.46-.08-.22-.11-.46-.11-.71-.01-.5.19-1.02.57-1.41.39-.4.93-.62,1.51-.62,1.17,0,2.06.87,2.09,2.03,0,.25-.04.49-.12.71.05.14.08.3.08.46v4.07c0,.78-.63,1.42-1.42,1.42h-1.27.02Z"/><path class="uuid-0a615b2f-0732-4f8c-8bf7-ac804b285eb7" d="M265.9,123.22c-.24,0-.47-.06-.67-.17-.2.11-.43.17-.67.17h-1.27c-.78,0-1.42-.63-1.42-1.42v-2.77c0-.48-.02-.89-.03-1.23-.02-.39.12-.76.39-1.04.27-.28.64-.44,1.03-.44h1.1c.14,0,.27.02.4.06.28-.09.6-.15.94-.15,1.43,0,2.88.98,2.88,3.17v2.42c0,.78-.63,1.42-1.42,1.42h-1.27v-.02Z"/><path class="uuid-0a615b2f-0732-4f8c-8bf7-ac804b285eb7" d="M270.11,123.3c-2.1,0-3.57-1.44-3.57-3.5s1.58-3.58,3.75-3.58c.51,0,1.04.09,1.46.25.66.25,1.03.94.89,1.62l-.2.94c-.06.27-.19.51-.38.7.23.21.38.5.43.81l.15.93c.1.63-.24,1.26-.82,1.52-.44.19-1.06.31-1.71.31h0Z"/><path class="uuid-0a615b2f-0732-4f8c-8bf7-ac804b285eb7" d="M273.79,123.3c-2.15,0-3.59-1.4-3.59-3.49,0-1.74,1.22-3.59,3.47-3.59,1.9,0,3.23,1.42,3.23,3.45,0,.36-.04.65-.06.75-.04.22-.13.42-.25.59l.07.35c.13.67-.23,1.33-.87,1.58-.58.23-1.26.35-2,.35h0Z"/><path class="uuid-0a615b2f-0732-4f8c-8bf7-ac804b285eb7" d="M227.41,133.22c-.78,0-1.42-.63-1.42-1.42v-4.07c0-.16.03-.31.07-.46-.08-.23-.11-.47-.11-.71-.01-.49.19-1.01.57-1.4.39-.4.93-.62,1.51-.62,1.17,0,2.07.87,2.09,2.03,0,.25-.04.49-.12.71.05.14.08.3.08.46v4.07c0,.78-.63,1.42-1.42,1.42h-1.27.02Z"/><path class="uuid-0a615b2f-0732-4f8c-8bf7-ac804b285eb7" d="M232.29,133.22c-.24,0-.47-.06-.67-.17-.2.11-.43.17-.67.17h-1.27c-.78,0-1.42-.63-1.42-1.42v-2.77c0-.48-.02-.89-.03-1.23-.02-.39.12-.76.39-1.04.27-.28.64-.44,1.03-.44h1.1c.14,0,.27.02.4.06.28-.09.6-.15.94-.15,1.43,0,2.88.98,2.88,3.17v2.42c0,.78-.63,1.42-1.42,1.42h-1.27v-.02Z"/><path class="uuid-0a615b2f-0732-4f8c-8bf7-ac804b285eb7" d="M234.58,133.22c-.78,0-1.42-.63-1.42-1.42v-4.07c0-.16.03-.31.07-.46-.08-.22-.11-.46-.11-.71-.01-.5.19-1.02.57-1.41.39-.4.93-.62,1.51-.62,1.17,0,2.06.87,2.09,2.03,0,.25-.04.49-.12.71.05.14.08.3.08.46v4.07c0,.78-.63,1.42-1.42,1.42h-1.27.02Z"/><path class="uuid-0a615b2f-0732-4f8c-8bf7-ac804b285eb7" d="M238.34,133.31c-.77,0-1.49-.29-1.97-.79-.5-.52-.74-1.23-.74-2.19v-.55c-.33-.26-.54-.66-.54-1.11v-.93c0-.46.22-.87.56-1.13.1-.55.52-1,1.08-1.13l1.24-.28c.1-.02.21-.04.32-.04.32,0,.63.11.88.31.29.24.48.58.52.95.54.2.92.72.92,1.33v.93c0,.44-.2.83-.51,1.09.3.27.48.65.48,1.05v.96c.01.58-.34,1.11-.88,1.33-.35.14-.8.21-1.35.21h-.01Z"/><path class="uuid-0a615b2f-0732-4f8c-8bf7-ac804b285eb7" d="M239.92,133.22c-.78,0-1.42-.63-1.42-1.42v-4.07c0-.16.03-.31.07-.46-.08-.22-.11-.46-.11-.71-.01-.5.19-1.02.57-1.41.39-.4.93-.62,1.51-.62,1.17,0,2.06.87,2.09,2.03,0,.25-.04.49-.12.71.05.14.08.3.08.46v4.07c0,.78-.63,1.42-1.42,1.42h-1.27.02Z"/><path class="uuid-0a615b2f-0732-4f8c-8bf7-ac804b285eb7" d="M243.26,133.31c-1.53,0-2.73-1.17-2.73-2.67,0-.55.16-1.13.52-1.64l-.18-.62c-.18-.63.1-1.31.67-1.63.29-.16,1.09-.54,2.27-.54,1.95,0,3.21,1.25,3.21,3.18v1.42c0,.43.02.67.04.73.08.41-.03.84-.3,1.17-.27.32-.67.51-1.09.51h-1.14c-.12,0-.24-.02-.35-.04-.29.09-.6.13-.92.13h0Z"/><rect class="uuid-0a615b2f-0732-4f8c-8bf7-ac804b285eb7" x="245.19" y="124.47" width="4.1" height="8.75" rx="1.42" ry="1.42"/><path class="uuid-0a615b2f-0732-4f8c-8bf7-ac804b285eb7" d="M252.09,133.31c-1.8,0-3.16-1.51-3.16-3.51,0-1.05.35-1.99,1.01-2.66.52-.52,1.18-.84,1.9-.91v-.35c0-.78.63-1.42,1.42-1.42h1.27c.78,0,1.42.63,1.42,1.42v4.7c0,.43.02.88.03,1.13.02.39-.12.77-.38,1.06-.27.28-.64.45-1.03.45h-1.12c-.14,0-.27-.02-.4-.06-.3.1-.62.15-.95.15h-.01Z"/><path class="uuid-0a615b2f-0732-4f8c-8bf7-ac804b285eb7" d="M255.55,133.22c-.78,0-1.42-.63-1.42-1.42v-4.07c0-.16.03-.31.07-.46-.08-.22-.11-.46-.11-.71-.01-.5.19-1.02.57-1.41.39-.4.93-.62,1.51-.62,1.17,0,2.06.87,2.09,2.03,0,.25-.04.49-.12.71.05.14.08.3.08.46v4.07c0,.78-.63,1.42-1.42,1.42h-1.27.02Z"/><path class="uuid-0a615b2f-0732-4f8c-8bf7-ac804b285eb7" d="M258.89,133.31c-1.53,0-2.73-1.17-2.73-2.67,0-.55.16-1.13.52-1.64l-.18-.62c-.18-.63.1-1.31.67-1.63.29-.16,1.09-.54,2.27-.54,1.95,0,3.21,1.25,3.21,3.18v1.42c0,.43.02.67.04.73.08.41-.03.84-.3,1.17-.27.32-.67.51-1.09.51h-1.14c-.12,0-.24-.02-.35-.04-.29.09-.6.13-.92.13h0Z"/><path class="uuid-0a615b2f-0732-4f8c-8bf7-ac804b285eb7" d="M263.82,134.96c-.39,0-1.37-.05-2.17-.5-.56-.32-.83-.97-.67-1.59,0,0,.25-.96.25-.97-.41-.57-.65-1.31-.65-2.12,0-2.03,1.4-3.56,3.27-3.56.31,0,.6.04.87.12.1-.02.2-.03.3-.03h1.1c.39,0,.77.16,1.03.45.27.29.41.67.38,1.06-.01.24-.03.56-.03,1.12v2.27c0,1.29-.36,2.24-1.09,2.89-.68.58-1.54.86-2.6.86h0Z"/><path class="uuid-0a615b2f-0732-4f8c-8bf7-ac804b285eb7" d="M269.71,133.22c-.24,0-.47-.06-.67-.17-.2.11-.43.17-.67.17h-1.27c-.78,0-1.42-.63-1.42-1.42v-2.77c0-.48-.02-.89-.03-1.23-.02-.39.12-.76.39-1.04.27-.28.64-.44,1.03-.44h1.1c.14,0,.27.02.4.06.28-.09.6-.15.94-.15,1.43,0,2.88.98,2.88,3.17v2.42c0,.78-.63,1.42-1.42,1.42h-1.27v-.02Z"/><path class="uuid-0a615b2f-0732-4f8c-8bf7-ac804b285eb7" d="M273.87,133.31c-2.04,0-3.52-1.48-3.52-3.52s1.48-3.58,3.59-3.58,3.5,1.47,3.5,3.5c0,2.36-1.79,3.59-3.57,3.59h0Z"/><path class="uuid-0a615b2f-0732-4f8c-8bf7-ac804b285eb7" d="M277.89,133.31c-.74,0-1.45-.16-1.99-.45-.57-.31-.86-.96-.7-1.59l.22-.91c.02-.1.06-.19.1-.28-.24-.48-.27-.92-.27-1.13,0-1.54,1.32-2.72,3.08-2.72.65,0,1.3.14,1.78.38.6.3.91.97.74,1.62l-.22.87c.33.48.44,1.01.44,1.45,0,1.33-1,2.75-3.18,2.75h0Z"/><path class="uuid-0a615b2f-0732-4f8c-8bf7-ac804b285eb7" d="M280.42,133.22c-.78,0-1.42-.63-1.42-1.42v-4.07c0-.16.03-.31.07-.46-.08-.22-.11-.46-.11-.71-.01-.5.19-1.02.57-1.41.39-.4.93-.62,1.51-.62,1.17,0,2.06.87,2.09,2.03,0,.25-.04.49-.12.71.05.14.08.3.08.46v4.07c0,.78-.63,1.42-1.42,1.42h-1.27.02Z"/><path class="uuid-0a615b2f-0732-4f8c-8bf7-ac804b285eb7" d="M283.79,133.31c-.74,0-1.45-.16-1.99-.45-.57-.31-.86-.96-.7-1.59l.22-.91c.02-.1.06-.19.1-.28-.24-.48-.27-.92-.27-1.13,0-1.54,1.32-2.72,3.08-2.72.65,0,1.3.14,1.78.38.6.3.91.97.74,1.62l-.22.87c.33.48.44,1.01.44,1.45,0,1.33-1,2.75-3.18,2.75h0Z"/></g><path d="M238.61,117.25h-1.51v-1.07h4.32v1.07h-1.53v4.55h-1.28v-4.55Z"/><path d="M243.17,116.6c0,.35-.27.63-.68.63s-.67-.28-.66-.63c0-.37.26-.64.67-.64s.67.27.67.64ZM241.86,121.8v-4.07h1.27v4.07h-1.27Z"/><path d="M244.14,119.03c0-.51-.02-.94-.03-1.3h1.07l.06.55h.02c.18-.26.53-.64,1.23-.64.52,0,.94.27,1.12.69h.02c.15-.21.33-.38.53-.49.22-.13.47-.2.77-.2.78,0,1.38.55,1.38,1.77v2.4h-1.23v-2.22c0-.59-.19-.93-.6-.93-.29,0-.5.2-.58.44-.03.09-.05.22-.05.32v2.38h-1.23v-2.28c0-.52-.18-.87-.58-.87-.33,0-.52.25-.59.46-.04.1-.05.22-.05.32v2.37h-1.23v-2.77h-.03Z"/><path d="M252.29,120.17c.04.52.56.77,1.15.77.43,0,.78-.06,1.12-.17l.17.86c-.42.17-.92.25-1.47.25-1.38,0-2.17-.8-2.17-2.07,0-1.03.64-2.17,2.06-2.17,1.32,0,1.82,1.02,1.82,2.03,0,.22-.03.41-.04.5h-2.64ZM253.78,119.3c0-.31-.13-.82-.72-.82-.53,0-.75.48-.78.82h1.5Z"/><path d="M257.39,120.69c.23.14.72.31,1.09.31s.54-.13.54-.34-.12-.31-.6-.47c-.84-.28-1.17-.74-1.16-1.22,0-.76.65-1.33,1.66-1.33.47,0,.9.11,1.15.23l-.22.88c-.18-.1-.53-.23-.88-.23-.31,0-.48.12-.48.33,0,.19.16.29.66.47.77.27,1.1.66,1.11,1.26,0,.76-.6,1.32-1.77,1.32-.53,0-1.01-.12-1.32-.28l.22-.91v-.02Z"/><path d="M262.32,116.6c0,.35-.27.63-.68.63s-.67-.28-.66-.63c0-.37.26-.64.67-.64s.67.27.67.64ZM261.02,121.8v-4.07h1.27v4.07h-1.27Z"/><path d="M263.3,119.03c0-.51-.02-.94-.03-1.3h1.1l.06.56h.03c.17-.26.58-.65,1.26-.65.83,0,1.46.55,1.46,1.75v2.42h-1.27v-2.26c0-.52-.18-.88-.64-.88-.35,0-.56.24-.64.48-.03.08-.05.2-.05.32v2.35h-1.27v-2.79Z"/><path d="M271.24,121.7c-.22.1-.65.18-1.13.18-1.32,0-2.16-.8-2.16-2.08,0-1.19.82-2.17,2.33-2.17.33,0,.7.06.97.16l-.2.94c-.15-.07-.38-.12-.71-.12-.67,0-1.1.48-1.09,1.14,0,.75.5,1.14,1.12,1.14.3,0,.53-.05.72-.12l.15.93h0Z"/><path d="M272.83,120.17c.04.52.56.77,1.15.77.43,0,.78-.06,1.12-.17l.17.86c-.42.17-.92.25-1.47.25-1.38,0-2.17-.8-2.17-2.07,0-1.03.64-2.17,2.06-2.17,1.32,0,1.82,1.02,1.82,2.03,0,.22-.03.41-.04.5h-2.64ZM274.32,119.3c0-.31-.13-.82-.72-.82-.53,0-.75.48-.78.82h1.5Z"/><path d="M228.72,126.6c0,.35-.27.63-.68.63s-.67-.28-.66-.63c0-.37.26-.64.67-.64s.67.27.67.64ZM227.41,131.81v-4.07h1.27v4.07h-1.27Z"/><path d="M229.69,129.03c0-.51-.02-.94-.03-1.3h1.1l.06.56h.02c.17-.26.58-.65,1.26-.65.83,0,1.46.55,1.46,1.75v2.42h-1.27v-2.26c0-.52-.18-.88-.64-.88-.35,0-.56.24-.64.48-.03.08-.05.2-.05.32v2.35h-1.27v-2.79Z"/><path d="M235.89,126.6c0,.35-.27.63-.68.63s-.67-.28-.66-.63c0-.37.26-.64.67-.64s.67.27.67.64ZM234.58,131.81v-4.07h1.27v4.07h-1.27Z"/><path d="M238.28,126.57v1.17h.91v.93h-.91v1.47c0,.49.12.72.5.72.16,0,.28-.02.38-.03v.96c-.16.07-.46.11-.82.11-.41,0-.75-.14-.95-.35-.23-.24-.35-.63-.35-1.21v-1.67h-.54v-.93h.54v-.88l1.24-.28h0Z"/><path d="M241.23,126.6c0,.35-.27.63-.68.63s-.67-.28-.66-.63c0-.37.26-.64.67-.64s.67.27.67.64ZM239.92,131.81v-4.07h1.27v4.07h-1.27Z"/><path d="M244.52,131.81l-.07-.41h-.03c-.27.32-.68.5-1.17.5-.83,0-1.32-.6-1.32-1.25,0-1.06.95-1.57,2.39-1.56v-.06c0-.22-.12-.52-.74-.52-.42,0-.86.14-1.12.31l-.23-.82c.28-.16.84-.36,1.58-.36,1.36,0,1.79.8,1.79,1.76v1.42c0,.39.02.77.06.99h-1.14ZM244.37,129.88c-.67,0-1.18.15-1.18.64,0,.33.22.48.5.48.32,0,.58-.21.66-.47.02-.07.03-.14.03-.22v-.44h-.01Z"/><path d="M246.61,125.89h1.27v5.92h-1.27v-5.92Z"/><path d="M254.53,125.89v4.7c0,.46.02.94.03,1.22h-1.12l-.06-.6h-.02c-.26.46-.75.69-1.28.69-.97,0-1.74-.82-1.74-2.09,0-1.37.85-2.17,1.83-2.17.5,0,.89.17,1.07.46h.02v-2.21h1.27ZM253.27,129.46c0-.07,0-.16-.02-.22-.08-.34-.35-.62-.74-.62-.58,0-.88.52-.88,1.16,0,.69.34,1.12.87,1.12.37,0,.66-.25.73-.61.03-.09.03-.18.03-.29v-.53h0Z"/><path d="M256.86,126.6c0,.35-.27.63-.68.63s-.67-.28-.66-.63c0-.37.26-.64.67-.64s.67.27.67.64ZM255.55,131.81v-4.07h1.27v4.07h-1.27Z"/><path d="M260.15,131.81l-.07-.41h-.03c-.27.32-.68.5-1.17.5-.83,0-1.32-.6-1.32-1.25,0-1.06.95-1.57,2.39-1.56v-.06c0-.22-.12-.52-.74-.52-.42,0-.86.14-1.12.31l-.23-.82c.28-.16.84-.36,1.58-.36,1.36,0,1.79.8,1.79,1.76v1.42c0,.39.02.77.06.99h-1.14ZM260,129.88c-.67,0-1.18.15-1.18.64,0,.33.22.48.5.48.32,0,.58-.21.66-.47.02-.07.03-.14.03-.22v-.44h-.01Z"/><path d="M266.13,127.73c-.02.26-.03.6-.03,1.21v2.27c0,.78-.16,1.42-.62,1.83-.45.38-1.06.5-1.66.5-.53,0-1.1-.11-1.47-.32l.25-.96c.26.15.71.31,1.18.31.6,0,1.06-.33,1.06-1.07v-.27h-.02c-.24.34-.63.53-1.1.53-1.01,0-1.72-.82-1.72-1.99,0-1.31.85-2.14,1.85-2.14.56,0,.91.24,1.12.57h.02l.04-.48h1.1,0ZM264.83,129.39c0-.08,0-.17-.02-.23-.09-.33-.33-.56-.68-.56-.46,0-.83.42-.83,1.16,0,.61.3,1.08.83,1.08.32,0,.58-.22.67-.52.03-.09.04-.23.04-.33v-.6h-.01Z"/><path d="M267.11,129.03c0-.51-.02-.94-.03-1.3h1.1l.06.56h.03c.17-.26.58-.65,1.26-.65.83,0,1.46.55,1.46,1.75v2.42h-1.27v-2.26c0-.52-.18-.88-.64-.88-.35,0-.56.24-.64.48-.03.08-.05.2-.05.32v2.35h-1.27v-2.79Z"/><path d="M276.02,129.72c0,1.49-1.06,2.17-2.15,2.17-1.19,0-2.11-.78-2.11-2.1s.87-2.16,2.17-2.16,2.08.86,2.08,2.08h.01ZM273.07,129.76c0,.7.29,1.22.83,1.22.49,0,.81-.49.81-1.22,0-.61-.23-1.23-.81-1.23-.61,0-.83.62-.83,1.23Z"/><path d="M276.8,130.7c.23.14.72.31,1.09.31s.54-.13.54-.34-.12-.31-.6-.47c-.84-.28-1.17-.74-1.16-1.22,0-.76.65-1.33,1.66-1.33.47,0,.9.11,1.15.23l-.22.87c-.18-.1-.53-.23-.88-.23-.31,0-.48.12-.48.33,0,.19.16.29.66.47.78.27,1.1.66,1.11,1.26,0,.76-.6,1.32-1.77,1.32-.53,0-1.01-.12-1.32-.28l.22-.91h0Z"/><path d="M281.73,126.6c0,.35-.27.63-.68.63s-.67-.28-.66-.63c0-.37.26-.64.67-.64s.67.27.67.64ZM280.42,131.81v-4.07h1.27v4.07h-1.27Z"/><path d="M282.7,130.7c.23.14.72.31,1.09.31s.54-.13.54-.34-.12-.31-.6-.47c-.84-.28-1.17-.74-1.16-1.22,0-.76.65-1.33,1.66-1.33.47,0,.9.11,1.15.23l-.22.87c-.18-.1-.53-.23-.88-.23-.31,0-.48.12-.48.33,0,.19.16.29.66.47.78.27,1.1.66,1.11,1.26,0,.76-.6,1.32-1.77,1.32-.53,0-1.01-.12-1.32-.28l.22-.91h0Z"/></g><g id="uuid-1ffe790a-7b88-489d-b952-a38afd721c23"><ellipse class="uuid-1f3bd5b5-6b49-4d73-bc9a-ecd55abcedb5" cx="369" cy="176.74" rx="22.15" ry="21.75"/><path d="M360.57,173.64c.47-.08,1.08-.12,1.72-.12,1.07,0,1.76.19,2.3.6.58.43.95,1.12.95,2.12,0,1.07-.39,1.82-.93,2.27-.59.49-1.49.72-2.59.72-.66,0-1.12-.04-1.44-.08v-5.52h-.01ZM361.85,178.22c.11.03.28.03.44.03,1.15,0,1.9-.62,1.9-1.97,0-1.17-.67-1.78-1.77-1.78-.28,0-.47.02-.57.05v3.67h0Z"/><path d="M368.65,179.18l-.07-.41h-.03c-.27.33-.68.5-1.17.5-.83,0-1.32-.6-1.32-1.25,0-1.06.95-1.57,2.39-1.56v-.06c0-.22-.12-.52-.74-.52-.42,0-.86.14-1.12.31l-.23-.82c.28-.16.84-.36,1.58-.36,1.36,0,1.79.8,1.79,1.76v1.42c0,.39.02.77.06.99h-1.14ZM368.5,177.26c-.67,0-1.18.15-1.18.64,0,.33.22.48.5.48.32,0,.58-.21.66-.47.02-.07.03-.14.03-.22v-.44h-.01Z"/><path d="M371.58,175.11l.61,2c.07.24.15.54.2.76h.02c.06-.22.12-.52.18-.76l.5-2h1.36l-.95,2.68c-.58,1.62-.97,2.27-1.43,2.67-.44.38-.91.52-1.23.56l-.27-1.08c.16-.02.36-.1.55-.22.19-.1.4-.3.52-.51.04-.06.07-.12.07-.18,0-.04,0-.11-.06-.21l-1.49-3.72h1.42Z"/><path d="M374.85,178.07c.23.14.72.31,1.09.31s.54-.13.54-.34-.12-.31-.6-.47c-.84-.28-1.17-.74-1.16-1.22,0-.76.65-1.33,1.66-1.33.47,0,.9.11,1.15.23l-.22.88c-.18-.1-.53-.23-.88-.23-.31,0-.48.12-.48.33,0,.19.16.29.66.47.77.27,1.1.66,1.11,1.26,0,.76-.6,1.32-1.77,1.32-.53,0-1.01-.12-1.32-.28l.22-.91v-.02Z"/></g><g id="uuid-bf34d767-4baa-472f-b8a4-2287ec27adca"><ellipse class="uuid-1f3bd5b5-6b49-4d73-bc9a-ecd55abcedb5" cx="61.88" cy="81.07" rx="22.15" ry="21.75"/><path d="M49.69,83.52l-1.8-5.62h1.39l.68,2.37c.19.67.37,1.31.5,2.01h.03c.14-.67.32-1.34.51-1.98l.72-2.4h1.35l-1.89,5.62h-1.49Z"/><path d="M54.25,81.89c.04.52.56.77,1.15.77.43,0,.78-.06,1.12-.17l.17.86c-.42.17-.92.25-1.47.25-1.38,0-2.17-.8-2.17-2.07,0-1.03.64-2.17,2.06-2.17,1.32,0,1.82,1.02,1.82,2.03,0,.22-.03.41-.04.5h-2.64ZM55.75,81.02c0-.31-.13-.82-.72-.82-.53,0-.75.48-.78.82h1.5Z"/><path d="M57.68,80.79c0-.6-.02-.99-.03-1.34h1.09l.04.75h.03c.21-.59.71-.84,1.1-.84.12,0,.17,0,.27.02v1.19c-.09-.02-.2-.03-.34-.03-.47,0-.78.25-.87.64-.02.08-.03.18-.03.28v2.07h-1.27v-2.73h.01Z"/><path d="M60.84,82.41c.23.14.72.31,1.09.31s.54-.13.54-.34-.12-.31-.6-.47c-.84-.28-1.17-.74-1.16-1.22,0-.76.65-1.33,1.66-1.33.47,0,.9.11,1.15.23l-.22.88c-.18-.1-.53-.23-.88-.23-.31,0-.48.12-.48.33,0,.19.16.29.66.47.78.27,1.1.66,1.11,1.26,0,.76-.6,1.32-1.77,1.32-.53,0-1.01-.12-1.32-.28l.22-.91v-.02Z"/><path d="M65.77,78.31c0,.35-.27.63-.68.63s-.67-.28-.66-.63c0-.37.26-.64.67-.64s.67.27.67.64ZM64.47,83.52v-4.07h1.27v4.07h-1.27Z"/><path d="M70.77,81.44c0,1.49-1.06,2.17-2.15,2.17-1.19,0-2.11-.78-2.11-2.1s.87-2.16,2.17-2.16,2.08.86,2.08,2.08h.01ZM67.82,81.48c0,.7.29,1.22.83,1.22.49,0,.81-.49.81-1.22,0-.61-.23-1.22-.81-1.22-.61,0-.83.62-.83,1.22Z"/><path d="M71.56,80.75c0-.51-.02-.94-.03-1.3h1.1l.06.56h.03c.17-.26.58-.65,1.26-.65.83,0,1.46.55,1.46,1.75v2.42h-1.27v-2.26c0-.52-.18-.88-.64-.88-.35,0-.56.24-.64.48-.03.08-.05.2-.05.32v2.35h-1.27v-2.79Z"/></g><g id="uuid-a4517a35-227c-49ba-aa94-f6d941f10972"><ellipse class="uuid-1f3bd5b5-6b49-4d73-bc9a-ecd55abcedb5" cx="71.43" cy="191.49" rx="22.15" ry="21.75"/><g id="uuid-523bfbfb-b37a-41a8-aed6-3d16678642b7" class="uuid-d96e6ed4-f2b5-495a-aad2-e9499ee77840"><path class="uuid-0a615b2f-0732-4f8c-8bf7-ac804b285eb7" d="M43.29,190.41c-.6,0-1.15-.03-1.63-.09-.7-.09-1.23-.69-1.23-1.41v-5.52c0-.7.51-1.29,1.19-1.4.54-.09,1.23-.13,1.94-.13,1.37,0,2.34.27,3.15.88.69.51,1.51,1.49,1.51,3.25,0,1.38-.51,2.57-1.44,3.36-.85.71-2.02,1.06-3.51,1.06h.02Z"/><path class="uuid-0a615b2f-0732-4f8c-8bf7-ac804b285eb7" d="M49.48,190.44c-2.04,0-3.52-1.48-3.52-3.52s1.48-3.58,3.59-3.58,3.5,1.47,3.5,3.5c0,2.36-1.79,3.59-3.57,3.59h0Z"/><path class="uuid-0a615b2f-0732-4f8c-8bf7-ac804b285eb7" d="M54.37,190.43c-2.1,0-3.57-1.44-3.57-3.5s1.58-3.58,3.75-3.58c.51,0,1.04.09,1.46.25.66.25,1.04.94.89,1.62l-.2.94c-.06.27-.19.51-.38.7.23.21.38.5.43.81l.15.93c.1.63-.23,1.26-.82,1.52-.44.2-1.06.31-1.71.31h0Z"/><path class="uuid-0a615b2f-0732-4f8c-8bf7-ac804b285eb7" d="M57.81,190.43c-.77,0-1.49-.29-1.97-.78-.5-.52-.75-1.24-.75-2.19v-.55c-.33-.26-.54-.66-.54-1.12v-.93c0-.46.22-.87.56-1.13.1-.55.52-1,1.08-1.13l1.24-.28c.1-.02.21-.04.32-.04.32,0,.63.11.88.31.29.24.48.58.52.95.54.2.92.72.92,1.33v.93c0,.44-.2.83-.52,1.09.3.27.48.65.48,1.05v.96c.01.58-.34,1.11-.89,1.33-.35.14-.8.21-1.35.21h.02Z"/><path class="uuid-0a615b2f-0732-4f8c-8bf7-ac804b285eb7" d="M61.23,190.44c-2.04,0-3.52-1.48-3.52-3.52s1.48-3.58,3.59-3.58,3.5,1.47,3.5,3.5c0,2.36-1.79,3.59-3.57,3.59h0Z"/><path class="uuid-0a615b2f-0732-4f8c-8bf7-ac804b285eb7" d="M64.16,190.35c-.78,0-1.42-.63-1.42-1.42v-2.73c0-.57-.02-.94-.03-1.27-.02-.39.12-.76.39-1.05.27-.28.64-.44,1.03-.44h1.09c.12,0,.25.02.36.05.26-.09.53-.14.81-.14.23,0,.34,0,.52.04.67.12,1.17.71,1.17,1.39v1.19c0,.42-.19.82-.51,1.09-.21.17-.46.28-.73.32v1.55c0,.78-.63,1.42-1.41,1.42h-1.27Z"/><path class="uuid-0a615b2f-0732-4f8c-8bf7-ac804b285eb7" d="M69.01,190.35c-.78,0-1.42-.63-1.42-1.42v-2.73c0-.57-.02-.94-.03-1.27-.02-.39.12-.76.39-1.05.27-.28.64-.44,1.03-.44h1.09c.12,0,.25.02.36.05.26-.09.53-.14.81-.14.23,0,.34,0,.52.04.67.12,1.17.71,1.17,1.39v1.19c0,.42-.19.82-.51,1.09-.21.17-.46.28-.73.32v1.55c0,.78-.63,1.42-1.41,1.42h-1.27Z"/><path class="uuid-0a615b2f-0732-4f8c-8bf7-ac804b285eb7" d="M74.05,190.43c-2.15,0-3.59-1.4-3.59-3.49,0-1.74,1.22-3.59,3.48-3.59,1.9,0,3.23,1.42,3.23,3.45,0,.36-.05.64-.06.75-.04.22-.13.42-.25.59l.07.35c.13.67-.23,1.33-.86,1.58-.58.23-1.26.35-2,.35h-.02Z"/><path class="uuid-0a615b2f-0732-4f8c-8bf7-ac804b285eb7" d="M76.51,192c-.78,0-1.42-.63-1.42-1.42v-4.36c0-.51-.02-.95-.03-1.3-.02-.39.12-.76.39-1.04.27-.28.64-.44,1.02-.44h1.1c.14,0,.28.02.41.06.32-.1.66-.15,1.02-.15,1.77,0,3.11,1.5,3.11,3.49,0,2.2-1.42,3.42-2.92,3.58v.16c0,.78-.63,1.42-1.42,1.42h-1.27,0Z"/><path class="uuid-0a615b2f-0732-4f8c-8bf7-ac804b285eb7" d="M83.4,190.44c-2.04,0-3.52-1.48-3.52-3.52s1.48-3.58,3.59-3.58,3.5,1.47,3.5,3.5c0,2.36-1.79,3.59-3.57,3.59h0Z"/><path class="uuid-0a615b2f-0732-4f8c-8bf7-ac804b285eb7" d="M86.33,190.35c-.78,0-1.42-.63-1.42-1.42v-2.73c0-.57-.02-.94-.03-1.27-.02-.39.12-.76.39-1.05.27-.28.64-.44,1.03-.44h1.09c.12,0,.25.02.36.05.26-.09.53-.14.81-.14.23,0,.34,0,.52.04.67.12,1.17.71,1.17,1.39v1.19c0,.42-.19.82-.51,1.09-.21.17-.46.28-.73.32v1.55c0,.78-.63,1.42-1.41,1.42h-1.27Z"/><path class="uuid-0a615b2f-0732-4f8c-8bf7-ac804b285eb7" d="M91.15,190.43c-.77,0-1.49-.29-1.97-.78-.5-.52-.75-1.24-.75-2.19v-.55c-.33-.26-.54-.66-.54-1.12v-.93c0-.46.22-.87.56-1.13.1-.55.52-1,1.08-1.13l1.24-.28c.1-.02.21-.04.32-.04.32,0,.63.11.88.31.29.24.48.58.52.95.54.2.92.72.92,1.33v.93c0,.44-.2.83-.52,1.09.3.27.48.65.48,1.05v.96c.01.58-.34,1.11-.89,1.33-.35.14-.8.21-1.35.21h.02Z"/><path class="uuid-0a615b2f-0732-4f8c-8bf7-ac804b285eb7" d="M94.63,190.43c-2.15,0-3.59-1.4-3.59-3.49,0-1.74,1.22-3.59,3.48-3.59,1.9,0,3.23,1.42,3.23,3.45,0,.36-.05.64-.06.75-.04.22-.13.42-.25.59l.07.35c.13.67-.23,1.33-.86,1.58-.58.23-1.26.35-2,.35h-.02Z"/><path class="uuid-0a615b2f-0732-4f8c-8bf7-ac804b285eb7" d="M98.6,190.44c-1.8,0-3.16-1.51-3.16-3.51,0-1.05.35-1.99,1.01-2.66.52-.52,1.18-.84,1.9-.91v-.35c0-.78.63-1.42,1.42-1.42h1.27c.78,0,1.42.63,1.42,1.42v4.7c0,.43.02.88.03,1.13.02.39-.11.77-.38,1.06-.27.28-.64.45-1.03.45h-1.12c-.14,0-.27-.02-.4-.06-.3.1-.62.15-.95.15h-.01Z"/><path class="uuid-0a615b2f-0732-4f8c-8bf7-ac804b285eb7" d="M40.62,200.44c-2.04,0-3.52-1.48-3.52-3.52s1.48-3.57,3.59-3.57,3.5,1.47,3.5,3.5c0,2.36-1.79,3.59-3.57,3.59Z"/><path class="uuid-0a615b2f-0732-4f8c-8bf7-ac804b285eb7" d="M44.98,200.44c-1.31,0-2.85-.84-2.85-3.19v-2.39c0-.78.63-1.42,1.42-1.42h1.28c.24,0,.46.06.65.16.2-.1.42-.16.65-.16h1.27c.78,0,1.42.63,1.42,1.42v2.77c0,.5.02.92.03,1.24.02.39-.12.77-.39,1.05-.27.28-.64.44-1.03.44h-1.1c-.14,0-.27-.02-.4-.06-.3.1-.62.15-.96.15h.01Z"/><path class="uuid-0a615b2f-0732-4f8c-8bf7-ac804b285eb7" d="M49.89,200.43c-.77,0-1.49-.29-1.97-.79-.5-.52-.74-1.23-.74-2.19v-.55c-.33-.26-.54-.66-.54-1.12v-.93c0-.46.22-.87.56-1.13.1-.55.52-1,1.08-1.13l1.24-.28c.1-.02.21-.04.32-.04.32,0,.63.11.88.31.29.24.48.58.52.95.54.2.92.72.92,1.33v.93c0,.44-.2.83-.52,1.09.3.27.48.65.48,1.05v.96c.01.58-.34,1.11-.88,1.33-.35.14-.8.21-1.35.21h0Z"/><path class="uuid-0a615b2f-0732-4f8c-8bf7-ac804b285eb7" d="M53.36,200.43c-2.1,0-3.57-1.44-3.57-3.5s1.58-3.58,3.75-3.58c.51,0,1.05.09,1.47.25.65.25,1.03.94.89,1.62l-.2.94c-.06.27-.19.51-.38.7.23.21.38.5.43.81l.15.93c.1.63-.24,1.26-.82,1.52-.44.19-1.06.3-1.71.3h0Z"/><path class="uuid-0a615b2f-0732-4f8c-8bf7-ac804b285eb7" d="M56.98,200.44c-2.04,0-3.52-1.48-3.52-3.52s1.48-3.57,3.59-3.57,3.5,1.47,3.5,3.5c0,2.36-1.79,3.59-3.57,3.59Z"/><path class="uuid-0a615b2f-0732-4f8c-8bf7-ac804b285eb7" d="M64.84,200.35c-.22,0-.43-.05-.62-.14-.19.09-.4.14-.62.14h-1.23c-.22,0-.43-.05-.61-.14-.19.09-.39.14-.61.14h-1.23c-.78,0-1.42-.63-1.42-1.42v-2.77c0-.48-.02-.89-.03-1.23-.02-.39.12-.76.39-1.04.27-.28.64-.44,1.02-.44h1.07c.13,0,.26.02.38.05.29-.09.61-.14.93-.14.43,0,.84.09,1.19.26.39-.18.8-.26,1.24-.26,1.39,0,2.79.98,2.79,3.18v2.4c0,.78-.63,1.42-1.42,1.42h-1.23.01Z"/><path class="uuid-0a615b2f-0732-4f8c-8bf7-ac804b285eb7" d="M69.02,200.43c-2.15,0-3.59-1.4-3.59-3.49,0-1.74,1.22-3.59,3.48-3.59,1.9,0,3.23,1.42,3.23,3.45,0,.36-.05.64-.06.75-.04.22-.13.42-.26.59l.07.35c.13.67-.23,1.33-.87,1.59-.58.23-1.26.35-2,.35h0Z"/><path class="uuid-0a615b2f-0732-4f8c-8bf7-ac804b285eb7" d="M78.09,200.35c-.22,0-.43-.05-.62-.14-.19.09-.4.14-.62.14h-1.23c-.22,0-.43-.05-.61-.14-.19.09-.39.14-.61.14h-1.23c-.78,0-1.42-.63-1.42-1.42v-2.77c0-.48-.02-.89-.03-1.23-.02-.39.12-.76.39-1.04.27-.28.64-.44,1.02-.44h1.07c.13,0,.26.02.38.05.29-.09.61-.14.93-.14.43,0,.84.09,1.19.26.39-.18.8-.26,1.24-.26,1.39,0,2.79.98,2.79,3.18v2.4c0,.78-.63,1.42-1.42,1.42h-1.23.01Z"/><path class="uuid-0a615b2f-0732-4f8c-8bf7-ac804b285eb7" d="M82.28,200.43c-2.15,0-3.59-1.4-3.59-3.49,0-1.74,1.22-3.59,3.48-3.59,1.9,0,3.23,1.42,3.23,3.45,0,.36-.05.64-.06.75-.04.22-.13.42-.26.59l.07.35c.13.67-.23,1.33-.87,1.59-.58.23-1.26.35-2,.35h0Z"/><path class="uuid-0a615b2f-0732-4f8c-8bf7-ac804b285eb7" d="M85.79,200.44c-1.53,0-2.73-1.17-2.73-2.67,0-.55.16-1.13.52-1.64l-.18-.62c-.18-.63.1-1.31.67-1.63.29-.16,1.09-.54,2.27-.54,1.95,0,3.21,1.25,3.21,3.17v1.42c0,.43.02.67.03.73.08.42-.03.84-.3,1.17-.27.32-.67.51-1.09.51h-1.14c-.12,0-.23-.01-.35-.04-.29.09-.6.13-.92.13h.01Z"/><path class="uuid-0a615b2f-0732-4f8c-8bf7-ac804b285eb7" d="M90.22,200.43c-.74,0-1.45-.16-1.99-.45-.57-.31-.86-.96-.7-1.59l.22-.91c.02-.1.06-.19.1-.28-.24-.48-.27-.92-.27-1.13,0-1.54,1.32-2.72,3.08-2.72.65,0,1.3.14,1.78.38.6.3.91.97.74,1.62l-.22.87c.33.48.44,1.01.44,1.45,0,1.33-1,2.75-3.18,2.75h0Z"/><path class="uuid-0a615b2f-0732-4f8c-8bf7-ac804b285eb7" d="M94.17,200.44c-1.31,0-2.85-.84-2.85-3.19v-2.39c0-.78.63-1.42,1.42-1.42h1.28c.24,0,.46.06.65.16.2-.1.42-.16.65-.16h1.27c.78,0,1.42.63,1.42,1.42v2.77c0,.5.02.92.03,1.24.02.39-.12.77-.39,1.05-.27.28-.64.44-1.03.44h-1.1c-.14,0-.27-.02-.4-.06-.3.1-.62.15-.96.15h.01Z"/><path class="uuid-0a615b2f-0732-4f8c-8bf7-ac804b285eb7" d="M97.61,200.35c-.78,0-1.42-.63-1.42-1.42v-2.73c0-.57-.02-.94-.03-1.27-.02-.39.12-.77.39-1.05.27-.28.64-.44,1.03-.44h1.09c.13,0,.25.02.36.05.26-.09.53-.14.81-.14.23,0,.34,0,.52.04.67.12,1.17.71,1.17,1.39v1.19c0,.42-.19.82-.51,1.09-.21.17-.46.28-.73.32v1.55c0,.78-.63,1.42-1.41,1.42h-1.27Z"/><path class="uuid-0a615b2f-0732-4f8c-8bf7-ac804b285eb7" d="M102.66,200.43c-2.15,0-3.59-1.4-3.59-3.49,0-1.74,1.22-3.59,3.48-3.59,1.9,0,3.23,1.42,3.23,3.45,0,.36-.05.64-.06.75-.04.22-.13.42-.26.59l.07.35c.13.67-.23,1.33-.87,1.59-.58.23-1.26.35-2,.35h0Z"/></g><g id="uuid-49ab3cc4-10f6-4368-8328-e535029fa420"><path d="M41.85,183.39c.47-.07,1.08-.12,1.72-.12,1.07,0,1.76.19,2.3.6.58.43.95,1.12.95,2.12,0,1.08-.39,1.82-.93,2.27-.59.49-1.49.72-2.59.72-.66,0-1.12-.04-1.44-.08v-5.52h-.01ZM43.12,187.97c.11.02.28.02.44.02,1.15,0,1.9-.62,1.9-1.97,0-1.17-.67-1.78-1.77-1.78-.28,0-.47.03-.58.05v3.67h.01Z"/><path d="M51.63,186.85c0,1.49-1.06,2.17-2.15,2.17-1.19,0-2.11-.78-2.11-2.1s.87-2.16,2.17-2.16,2.08.86,2.08,2.08h.01ZM48.68,186.89c0,.7.29,1.22.83,1.22.49,0,.81-.49.81-1.22,0-.61-.23-1.22-.81-1.22-.61,0-.83.62-.83,1.22Z"/><path d="M55.5,188.83c-.22.1-.65.18-1.13.18-1.32,0-2.16-.8-2.16-2.08,0-1.19.82-2.17,2.33-2.17.33,0,.7.06.97.16l-.2.94c-.15-.07-.38-.12-.71-.12-.67,0-1.1.48-1.09,1.14,0,.75.5,1.14,1.12,1.14.3,0,.53-.05.72-.12l.15.93h0Z"/><path d="M57.75,183.69v1.17h.91v.93h-.91v1.48c0,.49.12.72.5.72.16,0,.28-.02.38-.03v.96c-.16.07-.46.11-.82.11-.41,0-.75-.14-.95-.35-.23-.24-.35-.63-.35-1.21v-1.67h-.54v-.93h.54v-.88l1.24-.28v-.02Z"/><path d="M63.38,186.85c0,1.49-1.06,2.17-2.15,2.17-1.19,0-2.11-.78-2.11-2.1s.87-2.16,2.17-2.16,2.08.86,2.08,2.08h.01ZM60.43,186.89c0,.7.29,1.22.83,1.22.49,0,.81-.49.81-1.22,0-.61-.23-1.22-.81-1.22-.61,0-.83.62-.83,1.22Z"/><path d="M64.16,186.2c0-.6-.02-.99-.03-1.34h1.09l.04.75h.03c.21-.59.71-.84,1.1-.84.12,0,.17,0,.27.02v1.19c-.09-.02-.2-.03-.34-.03-.47,0-.78.25-.87.64-.02.08-.03.18-.03.28v2.07h-1.27v-2.73h.01Z"/><path d="M69.01,186.2c0-.6-.02-.99-.03-1.34h1.09l.04.75h.03c.21-.59.71-.84,1.1-.84.12,0,.17,0,.27.02v1.19c-.09-.02-.2-.03-.34-.03-.47,0-.78.25-.87.64-.02.08-.03.18-.03.28v2.07h-1.27v-2.73h.01Z"/><path d="M73.09,187.3c.04.52.56.77,1.15.77.43,0,.78-.06,1.12-.17l.17.86c-.42.17-.92.25-1.47.25-1.38,0-2.17-.8-2.17-2.07,0-1.03.64-2.17,2.06-2.17,1.32,0,1.82,1.02,1.82,2.03,0,.22-.03.41-.04.5h-2.64ZM74.58,186.43c0-.31-.13-.82-.72-.82-.53,0-.75.48-.78.82h1.5Z"/><path d="M76.51,186.22c0-.53-.02-.99-.03-1.37h1.1l.06.57h.02c.3-.43.77-.66,1.36-.66.89,0,1.69.78,1.69,2.07,0,1.48-.94,2.18-1.85,2.18-.49,0-.88-.2-1.06-.47h-.02v2.02h-1.27v-4.36.02ZM77.78,187.18c0,.1,0,.19.03.27.08.34.38.6.74.6.55,0,.88-.46.88-1.15,0-.65-.29-1.14-.86-1.14-.36,0-.67.27-.76.64-.02.07-.03.15-.03.23v.56h0Z"/><path d="M85.55,186.85c0,1.49-1.06,2.17-2.15,2.17-1.19,0-2.11-.78-2.11-2.1s.87-2.16,2.17-2.16,2.08.86,2.08,2.08h.01ZM82.6,186.89c0,.7.29,1.22.83,1.22.49,0,.81-.49.81-1.22,0-.61-.23-1.22-.81-1.22-.61,0-.83.62-.83,1.22Z"/><path d="M86.33,186.2c0-.6-.02-.99-.03-1.34h1.09l.04.75h.03c.21-.59.71-.84,1.1-.84.12,0,.17,0,.27.02v1.19c-.09-.02-.2-.03-.34-.03-.47,0-.78.25-.87.64-.02.08-.03.18-.03.28v2.07h-1.27v-2.73h.01Z"/><path d="M91.09,183.69v1.17h.91v.93h-.91v1.48c0,.49.12.72.5.72.16,0,.28-.02.38-.03v.96c-.16.07-.46.11-.82.11-.41,0-.75-.14-.95-.35-.23-.24-.35-.63-.35-1.21v-1.67h-.54v-.93h.54v-.88l1.24-.28v-.02Z"/><path d="M93.67,187.3c.04.52.56.77,1.15.77.43,0,.78-.06,1.12-.17l.17.86c-.42.17-.92.25-1.47.25-1.38,0-2.17-.8-2.17-2.07,0-1.03.64-2.17,2.06-2.17,1.32,0,1.82,1.02,1.82,2.03,0,.22-.03.41-.04.5h-2.64ZM95.16,186.43c0-.31-.13-.82-.72-.82-.53,0-.75.48-.78.82h1.5Z"/><path d="M101.04,183.02v4.7c0,.46.02.94.03,1.22h-1.12l-.06-.6h-.02c-.26.46-.75.69-1.27.69-.97,0-1.74-.83-1.74-2.09,0-1.37.85-2.17,1.82-2.17.5,0,.89.17,1.07.46h.02v-2.21h1.27ZM99.78,186.58c0-.07,0-.16-.02-.22-.07-.34-.35-.62-.74-.62-.58,0-.88.52-.88,1.16,0,.69.34,1.12.87,1.12.37,0,.66-.25.73-.61.03-.09.03-.18.03-.29v-.53h0Z"/><path d="M42.77,196.85c0,1.49-1.06,2.17-2.15,2.17-1.19,0-2.11-.78-2.11-2.1s.87-2.16,2.17-2.16,2.08.86,2.08,2.08h.01ZM39.82,196.89c0,.7.29,1.22.83,1.22.49,0,.81-.49.81-1.22,0-.61-.23-1.22-.81-1.22-.61,0-.83.62-.83,1.22Z"/><path d="M47.4,197.63c0,.53.02.97.03,1.31h-1.1l-.06-.57h-.03c-.16.25-.54.67-1.27.67-.83,0-1.43-.52-1.43-1.77v-2.39h1.28v2.19c0,.59.19.95.63.95.35,0,.55-.24.63-.44.03-.08.04-.18.04-.28v-2.42h1.27v2.77-.02Z"/><path d="M49.84,193.69v1.17h.91v.93h-.91v1.47c0,.49.12.72.5.72.16,0,.28-.02.37-.03v.96c-.16.07-.46.11-.82.11-.41,0-.75-.14-.95-.35-.23-.24-.35-.63-.35-1.21v-1.67h-.54v-.93h.54v-.88l1.24-.28h.01Z"/><path d="M54.49,198.83c-.22.1-.65.18-1.13.18-1.32,0-2.16-.8-2.16-2.08,0-1.19.82-2.17,2.33-2.17.33,0,.7.06.97.16l-.2.94c-.15-.07-.38-.12-.71-.12-.67,0-1.1.47-1.09,1.14,0,.75.5,1.14,1.12,1.14.3,0,.53-.05.72-.12l.15.93h0Z"/><path d="M59.13,196.85c0,1.49-1.06,2.17-2.15,2.17-1.19,0-2.11-.78-2.11-2.1s.87-2.16,2.17-2.16,2.08.86,2.08,2.08h.01ZM56.18,196.89c0,.7.29,1.22.83,1.22.49,0,.81-.49.81-1.22,0-.61-.23-1.22-.81-1.22-.61,0-.83.62-.83,1.22Z"/><path d="M59.91,196.16c0-.51-.02-.94-.03-1.3h1.07l.06.55h.03c.17-.26.53-.64,1.23-.64.53,0,.94.27,1.12.69h.02c.15-.21.33-.38.53-.49.22-.13.47-.2.77-.2.78,0,1.38.55,1.38,1.77v2.4h-1.23v-2.22c0-.59-.19-.93-.6-.93-.29,0-.5.2-.58.44-.03.09-.05.22-.05.32v2.38h-1.23v-2.28c0-.52-.18-.87-.58-.87-.33,0-.52.25-.59.46-.04.1-.05.22-.05.32v2.37h-1.23v-2.77h-.04Z"/><path d="M68.06,197.3c.04.53.56.78,1.15.78.43,0,.78-.06,1.12-.17l.17.86c-.42.17-.92.25-1.47.25-1.38,0-2.17-.8-2.17-2.08,0-1.03.64-2.17,2.06-2.17,1.32,0,1.82,1.02,1.82,2.03,0,.22-.03.41-.04.5h-2.64ZM69.55,196.43c0-.31-.13-.83-.72-.83-.53,0-.75.48-.78.83h1.5Z"/><path d="M73.17,196.16c0-.51-.02-.94-.03-1.3h1.07l.06.55h.03c.17-.26.53-.64,1.23-.64.53,0,.94.27,1.12.69h.02c.15-.21.33-.38.53-.49.22-.13.47-.2.77-.2.78,0,1.38.55,1.38,1.77v2.4h-1.23v-2.22c0-.59-.19-.93-.6-.93-.29,0-.5.2-.58.44-.03.09-.05.22-.05.32v2.38h-1.23v-2.28c0-.52-.18-.87-.58-.87-.33,0-.52.25-.59.46-.04.1-.05.22-.05.32v2.37h-1.23v-2.77h-.04Z"/><path d="M81.31,197.3c.04.53.56.78,1.15.78.43,0,.78-.06,1.12-.17l.17.86c-.42.17-.92.25-1.47.25-1.38,0-2.17-.8-2.17-2.08,0-1.03.64-2.17,2.06-2.17,1.32,0,1.82,1.02,1.82,2.03,0,.22-.03.41-.04.5h-2.64ZM82.8,196.43c0-.31-.13-.83-.72-.83-.53,0-.75.48-.78.83h1.5Z"/><path d="M87.05,198.93l-.08-.41h-.02c-.27.33-.68.5-1.17.5-.82,0-1.32-.6-1.32-1.25,0-1.06.95-1.57,2.39-1.56v-.06c0-.22-.12-.52-.74-.52-.42,0-.86.14-1.12.31l-.23-.82c.28-.16.84-.36,1.58-.36,1.36,0,1.79.8,1.79,1.76v1.42c0,.39.02.77.06.99h-1.14ZM86.9,197.01c-.67,0-1.18.15-1.18.64,0,.33.22.48.5.48.32,0,.58-.21.66-.47.02-.07.03-.14.03-.22v-.44h-.01Z"/><path d="M89.13,197.83c.23.14.72.31,1.09.31s.54-.13.54-.34-.12-.31-.6-.47c-.84-.28-1.17-.74-1.16-1.22,0-.76.65-1.33,1.66-1.33.47,0,.9.11,1.15.23l-.22.87c-.18-.1-.53-.23-.88-.23-.31,0-.48.12-.48.33,0,.19.16.29.66.47.78.27,1.1.66,1.11,1.26,0,.76-.6,1.32-1.77,1.32-.53,0-1.01-.12-1.32-.28l.22-.91h0Z"/><path d="M96.6,197.63c0,.53.02.97.03,1.31h-1.1l-.06-.57h-.03c-.16.25-.54.67-1.27.67-.83,0-1.43-.52-1.43-1.77v-2.39h1.28v2.19c0,.59.19.95.63.95.35,0,.55-.24.63-.44.03-.08.04-.18.04-.28v-2.42h1.27v2.77-.02Z"/><path d="M97.61,196.2c0-.6-.02-.99-.03-1.34h1.09l.04.75h.03c.21-.59.71-.84,1.1-.84.12,0,.17,0,.27.02v1.19c-.09-.02-.2-.03-.34-.03-.47,0-.78.25-.87.64-.02.08-.03.18-.03.28v2.07h-1.27v-2.73h.01Z"/><path d="M101.69,197.3c.04.53.56.78,1.15.78.43,0,.78-.06,1.12-.17l.17.86c-.42.17-.92.25-1.47.25-1.38,0-2.17-.8-2.17-2.08,0-1.03.64-2.17,2.06-2.17,1.32,0,1.82,1.02,1.82,2.03,0,.22-.03.41-.04.5h-2.64ZM103.18,196.43c0-.31-.13-.83-.72-.83-.53,0-.75.48-.78.83h1.5Z"/></g></g><g id="uuid-d7d351b5-1e9c-4e0c-95e4-0bb9f2dda324"><g id="uuid-6fb68356-2a50-44bc-9a27-e23dba3b0e39"><path d="M156.07,167.63v2.16h2.09v-2.16h1.27v5.62h-1.27v-2.35h-2.09v2.35h-1.27v-5.62h1.27Z"/><path d="M162.82,173.25l-.08-.41h-.02c-.27.33-.68.5-1.17.5-.82,0-1.32-.6-1.32-1.25,0-1.06.95-1.57,2.39-1.56v-.06c0-.22-.12-.52-.74-.52-.42,0-.86.14-1.12.31l-.23-.82c.28-.16.84-.36,1.58-.36,1.36,0,1.79.8,1.79,1.76v1.42c0,.39.02.77.06.99h-1.14ZM162.67,171.32c-.67,0-1.18.15-1.18.64,0,.33.22.48.5.48.32,0,.58-.21.66-.47.02-.07.03-.14.03-.22v-.44h-.01Z"/><path d="M164.89,172.14c.23.14.72.31,1.09.31s.54-.13.54-.34-.12-.31-.6-.47c-.84-.28-1.17-.74-1.16-1.22,0-.76.65-1.33,1.66-1.33.47,0,.9.11,1.15.23l-.22.88c-.18-.1-.53-.23-.88-.23-.31,0-.48.12-.48.33,0,.19.16.29.66.47.78.27,1.1.66,1.11,1.26,0,.76-.6,1.32-1.77,1.32-.53,0-1.01-.12-1.32-.28l.22-.91v-.02Z"/><path d="M170.2,170.54c0-.53-.02-.99-.03-1.37h1.1l.06.57h.02c.3-.43.77-.66,1.36-.66.89,0,1.69.77,1.69,2.07,0,1.48-.94,2.18-1.85,2.18-.49,0-.88-.2-1.06-.47h-.02v2.02h-1.27v-4.36.02ZM171.47,171.5c0,.1,0,.19.03.27.08.34.38.6.74.6.55,0,.88-.46.88-1.15,0-.65-.29-1.14-.86-1.14-.36,0-.67.27-.76.64-.02.07-.03.15-.03.22v.56h0Z"/><path d="M175.19,170.51c0-.6-.02-.99-.03-1.34h1.09l.04.75h.03c.21-.59.71-.84,1.1-.84.12,0,.17,0,.27.02v1.19c-.09-.02-.2-.03-.34-.03-.47,0-.78.25-.87.64-.02.08-.03.18-.03.28v2.07h-1.27v-2.73h.01Z"/><path d="M182.31,171.16c0,1.49-1.06,2.17-2.15,2.17-1.19,0-2.11-.78-2.11-2.1s.87-2.16,2.17-2.16,2.08.86,2.08,2.08h.01ZM179.36,171.21c0,.7.29,1.22.83,1.22.49,0,.81-.49.81-1.22,0-.61-.23-1.22-.81-1.22-.61,0-.83.62-.83,1.22Z"/><path d="M183.1,170.54c0-.53-.02-.99-.03-1.37h1.1l.06.57h.02c.3-.43.77-.66,1.36-.66.89,0,1.69.77,1.69,2.07,0,1.48-.94,2.18-1.85,2.18-.49,0-.88-.2-1.06-.47h-.02v2.02h-1.27v-4.36.02ZM184.36,171.5c0,.1,0,.19.03.27.08.34.38.6.74.6.55,0,.88-.46.88-1.15,0-.65-.29-1.14-.86-1.14-.36,0-.67.27-.76.64-.02.07-.03.15-.03.22v.56h0Z"/><path d="M189.08,171.61c.04.53.56.78,1.15.78.43,0,.78-.06,1.12-.17l.17.86c-.42.17-.92.25-1.47.25-1.38,0-2.17-.8-2.17-2.08,0-1.03.64-2.17,2.06-2.17,1.32,0,1.82,1.02,1.82,2.03,0,.22-.03.41-.04.5h-2.64ZM190.57,170.75c0-.31-.13-.83-.72-.83-.53,0-.75.48-.78.83h1.5Z"/><path d="M192.51,170.51c0-.6-.02-.99-.03-1.34h1.09l.04.75h.03c.21-.59.71-.84,1.1-.84.12,0,.17,0,.27.02v1.19c-.09-.02-.2-.03-.34-.03-.47,0-.78.25-.87.64-.02.08-.03.18-.03.28v2.07h-1.27v-2.73h.01Z"/><path d="M197.27,168.01v1.17h.91v.93h-.91v1.47c0,.49.12.72.5.72.16,0,.28-.02.37-.03v.96c-.16.07-.46.11-.82.11-.41,0-.75-.14-.95-.35-.23-.24-.35-.63-.35-1.21v-1.67h-.54v-.93h.54v-.88l1.24-.28h.01Z"/><path d="M199.9,169.17l.61,2c.07.24.15.54.2.76h.02c.06-.22.12-.52.18-.76l.5-2h1.36l-.95,2.68c-.58,1.62-.97,2.27-1.43,2.67-.44.38-.91.52-1.22.56l-.27-1.08c.16-.02.36-.1.55-.22.19-.1.4-.3.53-.51.04-.06.07-.12.07-.18,0-.04,0-.11-.06-.21l-1.49-3.72h1.41-.01Z"/><path d="M156.73,181.94c.34.17.87.35,1.41.35.58,0,.89-.24.89-.61s-.27-.55-.94-.79c-.93-.32-1.54-.84-1.54-1.66,0-.96.8-1.69,2.12-1.69.63,0,1.1.13,1.43.28l-.28,1.02c-.23-.11-.62-.27-1.17-.27s-.82.25-.82.54c0,.36.32.52,1.04.79.99.37,1.46.88,1.46,1.67,0,.94-.72,1.74-2.27,1.74-.64,0-1.28-.17-1.59-.34l.26-1.05v.02Z"/><path d="M162.46,177.63v5.62h-1.27v-5.62h1.27Z"/><path d="M168.7,180.38c0,1.84-1.12,2.96-2.76,2.96s-2.64-1.26-2.64-2.86c0-1.68,1.07-2.94,2.73-2.94s2.67,1.29,2.67,2.84ZM164.65,180.46c0,1.1.52,1.87,1.37,1.87s1.35-.82,1.35-1.91c0-1.01-.48-1.88-1.36-1.88s-1.36.82-1.36,1.91h0Z"/><path d="M173.16,183.88v.42h-4.17v-.42h4.17Z"/><path d="M177.51,180.52c0,1.67-.67,2.83-2.06,2.83s-2.02-1.26-2.02-2.79.67-2.81,2.07-2.81,2.02,1.29,2.02,2.77h-.01ZM174.7,180.55c0,1.24.29,1.83.78,1.83s.76-.62.76-1.85-.26-1.83-.77-1.83c-.47,0-.78.59-.78,1.85h.01Z"/><path d="M182.13,180.52c0,1.67-.67,2.83-2.06,2.83s-2.02-1.26-2.02-2.79.67-2.81,2.07-2.81,2.02,1.29,2.02,2.77h-.01ZM179.32,180.55c0,1.24.29,1.83.78,1.83s.76-.62.76-1.85-.26-1.83-.77-1.83c-.47,0-.78.59-.78,1.85h.01Z"/><path d="M186.76,180.52c0,1.67-.67,2.83-2.06,2.83s-2.02-1.26-2.02-2.79.67-2.81,2.07-2.81,2.02,1.29,2.02,2.77h-.01ZM183.95,180.55c0,1.24.29,1.83.78,1.83s.76-.62.76-1.85-.26-1.83-.77-1.83c-.47,0-.78.59-.78,1.85h.01Z"/><path d="M187.39,183.25v-.77l.7-.63c1.18-1.06,1.76-1.67,1.77-2.3,0-.44-.27-.79-.89-.79-.47,0-.88.23-1.16.45l-.36-.91c.41-.31,1.04-.56,1.77-.56,1.22,0,1.9.72,1.9,1.7,0,.91-.66,1.63-1.44,2.33l-.5.42v.02h2.04v1.04h-3.84.01Z"/><path d="M192.01,183.25v-.77l.7-.63c1.18-1.06,1.76-1.67,1.77-2.3,0-.44-.27-.79-.89-.79-.47,0-.88.23-1.16.45l-.36-.91c.41-.31,1.04-.56,1.77-.56,1.22,0,1.9.72,1.9,1.7,0,.91-.66,1.63-1.44,2.33l-.5.42v.02h2.04v1.04h-3.84.01Z"/><path d="M196.86,182.01c.22.12.74.33,1.26.33.66,0,.99-.32.99-.72,0-.53-.53-.78-1.09-.78h-.52v-.91h.49c.42,0,.97-.17.97-.62,0-.32-.27-.57-.8-.57-.44,0-.91.19-1.13.33l-.26-.92c.33-.21.97-.41,1.67-.41,1.16,0,1.8.61,1.8,1.35,0,.57-.32,1.02-.99,1.26v.02c.65.12,1.17.61,1.17,1.32,0,.96-.84,1.66-2.22,1.66-.7,0-1.29-.18-1.61-.38l.26-.95h.01Z"/></g><g id="uuid-34a3fb5b-95c4-4bad-bcfb-b6a8e5e65a2c"><path d="M302.97,124.13v2.16h2.09v-2.16h1.27v5.62h-1.27v-2.35h-2.09v2.35h-1.28v-5.62h1.28Z"/><path d="M309.71,129.74l-.07-.41h-.03c-.27.32-.68.5-1.17.5-.83,0-1.32-.6-1.32-1.25,0-1.06.95-1.57,2.39-1.56v-.06c0-.22-.12-.52-.74-.52-.42,0-.86.14-1.12.31l-.23-.82c.28-.16.84-.36,1.58-.36,1.36,0,1.79.8,1.79,1.76v1.42c0,.39.02.77.06.99h-1.14ZM309.56,127.82c-.67,0-1.18.15-1.18.64,0,.33.22.48.5.48.32,0,.58-.21.66-.47.02-.07.03-.14.03-.22v-.44h-.01Z"/><path d="M311.78,128.63c.23.14.72.31,1.09.31s.54-.13.54-.34-.12-.31-.6-.47c-.84-.28-1.17-.74-1.16-1.22,0-.76.65-1.33,1.66-1.33.47,0,.9.11,1.15.23l-.22.88c-.18-.1-.53-.23-.88-.23-.31,0-.48.12-.48.33,0,.19.16.29.66.47.77.27,1.1.66,1.11,1.26,0,.76-.6,1.32-1.77,1.32-.53,0-1.01-.12-1.32-.28l.22-.91v-.02Z"/><path d="M320.94,128.43c0,.53.02.97.03,1.31h-1.1l-.06-.57h-.03c-.16.25-.54.67-1.27.67-.83,0-1.43-.52-1.43-1.77v-2.39h1.27v2.19c0,.59.19.95.63.95.35,0,.55-.24.63-.44.03-.08.04-.18.04-.27v-2.42h1.28v2.77-.03Z"/><path d="M321.95,126.97c0-.51-.02-.94-.03-1.3h1.1l.06.56h.02c.17-.26.58-.65,1.26-.65.83,0,1.46.55,1.46,1.75v2.42h-1.27v-2.26c0-.52-.18-.88-.64-.88-.35,0-.56.24-.64.48-.03.08-.05.2-.05.32v2.35h-1.27v-2.79Z"/><path d="M328.15,124.54c0,.35-.27.63-.68.63s-.67-.28-.66-.63c0-.37.26-.64.67-.64s.67.27.67.64ZM326.84,129.74v-4.07h1.27v4.07h-1.27Z"/><path d="M330.54,124.5v1.17h.91v.93h-.91v1.48c0,.49.12.72.5.72.16,0,.28-.02.38-.03v.96c-.16.07-.46.11-.82.11-.41,0-.75-.14-.95-.35-.23-.24-.35-.63-.35-1.21v-1.67h-.54v-.93h.54v-.88l1.24-.28v-.02Z"/><path d="M294.61,138.44c.34.17.87.35,1.41.35.58,0,.89-.24.89-.61s-.27-.55-.94-.79c-.93-.32-1.54-.84-1.54-1.66,0-.96.8-1.69,2.12-1.69.63,0,1.1.13,1.43.28l-.28,1.02c-.23-.11-.62-.27-1.17-.27s-.82.25-.82.54c0,.36.32.52,1.04.79.99.37,1.46.88,1.46,1.67,0,.94-.72,1.74-2.27,1.74-.64,0-1.27-.17-1.59-.34l.26-1.05v.02Z"/><path d="M300.34,134.13v5.62h-1.27v-5.62h1.27Z"/><path d="M306.58,136.88c0,1.84-1.12,2.96-2.76,2.96s-2.64-1.26-2.64-2.86c0-1.68,1.07-2.94,2.73-2.94s2.67,1.29,2.67,2.84ZM302.53,136.95c0,1.1.52,1.87,1.37,1.87s1.35-.82,1.35-1.91c0-1.01-.48-1.88-1.36-1.88s-1.36.82-1.36,1.91h0Z"/><path d="M311.04,140.37v.42h-4.17v-.42h4.17Z"/><path d="M315.39,137.01c0,1.67-.67,2.83-2.06,2.83s-2.02-1.26-2.02-2.79.67-2.81,2.07-2.81,2.02,1.29,2.02,2.77h-.01ZM312.58,137.05c0,1.24.29,1.83.78,1.83s.76-.62.76-1.85-.26-1.83-.77-1.83c-.47,0-.78.59-.77,1.85Z"/><path d="M320.01,137.01c0,1.67-.67,2.83-2.06,2.83s-2.02-1.26-2.02-2.79.67-2.81,2.07-2.81,2.02,1.29,2.02,2.77h-.01ZM317.21,137.05c0,1.24.29,1.83.78,1.83s.76-.62.76-1.85-.26-1.83-.77-1.83c-.47,0-.78.59-.77,1.85Z"/><path d="M324.64,137.01c0,1.67-.67,2.83-2.06,2.83s-2.02-1.26-2.02-2.79.67-2.81,2.07-2.81,2.02,1.29,2.02,2.77h-.01ZM321.83,137.05c0,1.24.29,1.83.78,1.83s.76-.62.76-1.85-.26-1.83-.77-1.83c-.47,0-.78.59-.77,1.85Z"/><path d="M325.27,139.75v-.77l.7-.63c1.18-1.06,1.76-1.67,1.77-2.3,0-.44-.27-.79-.89-.79-.47,0-.88.23-1.16.45l-.36-.91c.41-.31,1.04-.56,1.77-.56,1.23,0,1.9.72,1.9,1.7,0,.91-.66,1.63-1.44,2.33l-.5.42v.02h2.04v1.04h-3.84.01Z"/><path d="M329.89,139.75v-.77l.7-.63c1.18-1.06,1.76-1.67,1.77-2.3,0-.44-.27-.79-.89-.79-.47,0-.88.23-1.16.45l-.36-.91c.41-.31,1.04-.56,1.77-.56,1.23,0,1.9.72,1.9,1.7,0,.91-.66,1.63-1.44,2.33l-.5.42v.02h2.04v1.04h-3.84.01Z"/><path d="M336.14,135.45h-.02l-1.03.49-.21-.95,1.43-.67h1.05v5.42h-1.22v-4.29Z"/></g><g id="uuid-d7e328a8-226b-4a77-9067-131f9aed4066"><path d="M15.41,130.9v2.16h2.09v-2.16h1.27v5.62h-1.27v-2.35h-2.09v2.35h-1.27v-5.62h1.27Z"/><path d="M22.16,136.52l-.08-.41h-.02c-.27.32-.68.5-1.17.5-.82,0-1.32-.6-1.32-1.25,0-1.06.95-1.57,2.39-1.56v-.06c0-.22-.12-.52-.74-.52-.42,0-.86.14-1.12.31l-.23-.82c.28-.16.84-.36,1.58-.36,1.36,0,1.79.8,1.79,1.76v1.42c0,.39.02.77.06.99h-1.14ZM22.01,134.59c-.67,0-1.18.15-1.18.64,0,.33.22.48.5.48.32,0,.58-.21.66-.47.02-.07.03-.14.03-.22v-.44h-.01Z"/><path d="M24.23,135.41c.23.14.72.31,1.09.31s.54-.13.54-.34-.12-.31-.6-.47c-.84-.28-1.17-.74-1.16-1.22,0-.76.65-1.33,1.66-1.33.47,0,.9.11,1.15.23l-.22.88c-.18-.1-.53-.23-.88-.23-.31,0-.48.12-.48.33,0,.19.16.29.66.47.78.27,1.1.66,1.11,1.26,0,.76-.6,1.32-1.77,1.32-.53,0-1.01-.12-1.32-.28l.22-.91v-.02Z"/><path d="M29.54,133.81c0-.53-.02-.99-.03-1.37h1.1l.06.57h.02c.3-.43.77-.66,1.36-.66.89,0,1.69.77,1.69,2.07,0,1.48-.94,2.18-1.85,2.18-.49,0-.88-.2-1.06-.47h-.02v2.02h-1.27v-4.36.02ZM30.81,134.77c0,.1,0,.19.03.27.08.34.38.6.74.6.55,0,.88-.46.88-1.15,0-.65-.29-1.14-.86-1.14-.36,0-.67.27-.76.64-.02.07-.03.15-.03.23v.56h0Z"/><path d="M34.53,133.79c0-.6-.02-.99-.03-1.34h1.09l.04.75h.03c.21-.59.71-.84,1.1-.84.12,0,.17,0,.27.02v1.19c-.09-.02-.2-.03-.34-.03-.47,0-.78.25-.87.64-.02.08-.03.18-.03.28v2.07h-1.27v-2.73h.01Z"/><path d="M41.65,134.44c0,1.49-1.06,2.17-2.15,2.17-1.19,0-2.11-.78-2.11-2.1s.87-2.16,2.17-2.16,2.08.86,2.08,2.08h.01ZM38.7,134.48c0,.7.29,1.22.83,1.22.49,0,.81-.49.81-1.22,0-.61-.23-1.22-.81-1.22-.61,0-.83.62-.83,1.22Z"/><path d="M42.44,133.81c0-.53-.02-.99-.03-1.37h1.1l.06.57h.02c.3-.43.77-.66,1.36-.66.89,0,1.69.77,1.69,2.07,0,1.48-.94,2.18-1.85,2.18-.49,0-.88-.2-1.06-.47h-.02v2.02h-1.27v-4.36.02ZM43.7,134.77c0,.1,0,.19.03.27.08.34.38.6.74.6.55,0,.88-.46.88-1.15,0-.65-.29-1.14-.86-1.14-.36,0-.67.27-.76.64-.02.07-.03.15-.03.23v.56h0Z"/><path d="M48.42,134.89c.04.52.56.77,1.15.77.43,0,.78-.06,1.12-.17l.17.86c-.42.17-.92.25-1.47.25-1.38,0-2.17-.8-2.17-2.07,0-1.03.64-2.17,2.06-2.17,1.32,0,1.82,1.02,1.82,2.03,0,.22-.03.41-.04.5h-2.64ZM49.91,134.02c0-.31-.13-.82-.72-.82-.53,0-.75.48-.78.82h1.5Z"/><path d="M51.85,133.79c0-.6-.02-.99-.03-1.34h1.09l.04.75h.03c.21-.59.71-.84,1.1-.84.12,0,.17,0,.27.02v1.19c-.09-.02-.2-.03-.34-.03-.47,0-.78.25-.87.64-.02.08-.03.18-.03.28v2.07h-1.27v-2.73h.01Z"/><path d="M56.61,131.28v1.17h.91v.93h-.91v1.48c0,.49.12.72.5.72.16,0,.28-.02.37-.03v.96c-.16.07-.46.11-.82.11-.41,0-.75-.14-.95-.35-.23-.24-.35-.63-.35-1.21v-1.67h-.54v-.93h.54v-.88l1.24-.28v-.02Z"/><path d="M59.24,132.44l.61,2c.07.24.15.54.2.76h.02c.06-.22.12-.53.18-.76l.5-2h1.36l-.95,2.68c-.58,1.62-.97,2.27-1.43,2.67-.44.38-.91.52-1.22.56l-.27-1.07c.16-.03.36-.1.55-.22.19-.1.4-.3.53-.51.04-.06.07-.12.07-.18,0-.04,0-.11-.06-.21l-1.49-3.72h1.41-.01Z"/><path d="M16.07,145.21c.34.17.87.35,1.41.35.58,0,.89-.24.89-.61s-.27-.55-.94-.79c-.93-.33-1.54-.84-1.54-1.66,0-.96.8-1.69,2.12-1.69.63,0,1.1.13,1.43.28l-.28,1.03c-.23-.11-.62-.27-1.17-.27s-.82.25-.82.54c0,.36.32.52,1.04.79.99.37,1.46.88,1.46,1.67,0,.94-.72,1.74-2.27,1.74-.64,0-1.28-.17-1.59-.34l.26-1.05h0Z"/><path d="M21.8,140.91v5.62h-1.27v-5.62h1.27Z"/><path d="M28.04,143.66c0,1.84-1.12,2.96-2.76,2.96s-2.64-1.26-2.64-2.86c0-1.68,1.07-2.94,2.73-2.94s2.67,1.29,2.67,2.84ZM23.99,143.73c0,1.1.52,1.88,1.37,1.88s1.35-.82,1.35-1.91c0-1.01-.48-1.87-1.36-1.87s-1.36.82-1.36,1.91h0Z"/><path d="M32.5,147.15v.42h-4.17v-.42h4.17Z"/><path d="M36.85,143.79c0,1.67-.67,2.82-2.06,2.82s-2.02-1.26-2.02-2.79.67-2.81,2.07-2.81,2.02,1.29,2.02,2.77h-.01ZM34.04,143.82c0,1.24.29,1.83.78,1.83s.76-.62.76-1.85-.26-1.83-.77-1.83c-.47,0-.78.59-.78,1.85h.01Z"/><path d="M41.47,143.79c0,1.67-.67,2.82-2.06,2.82s-2.02-1.26-2.02-2.79.67-2.81,2.07-2.81,2.02,1.29,2.02,2.77h-.01ZM38.67,143.82c0,1.24.29,1.83.78,1.83s.76-.62.76-1.85-.26-1.83-.77-1.83c-.47,0-.78.59-.78,1.85h.01Z"/><path d="M46.1,143.79c0,1.67-.67,2.82-2.06,2.82s-2.02-1.26-2.02-2.79.67-2.81,2.07-2.81,2.02,1.29,2.02,2.77h-.01ZM43.29,143.82c0,1.24.29,1.83.78,1.83s.76-.62.76-1.85-.26-1.83-.77-1.83c-.47,0-.78.59-.78,1.85h.01Z"/><path d="M46.73,146.52v-.77l.7-.63c1.18-1.06,1.76-1.67,1.77-2.3,0-.44-.27-.79-.89-.79-.47,0-.88.23-1.16.45l-.36-.91c.41-.31,1.04-.56,1.77-.56,1.22,0,1.9.72,1.9,1.7,0,.91-.66,1.63-1.44,2.33l-.5.42v.02h2.04v1.04h-3.84.01Z"/><path d="M51.35,146.52v-.77l.7-.63c1.18-1.06,1.76-1.67,1.77-2.3,0-.44-.27-.79-.89-.79-.47,0-.88.23-1.16.45l-.36-.91c.41-.31,1.04-.56,1.77-.56,1.22,0,1.9.72,1.9,1.7,0,.91-.66,1.63-1.44,2.33l-.5.42v.02h2.04v1.04h-3.84.01Z"/><path d="M56.2,145.28c.22.12.74.33,1.26.33.66,0,.99-.32.99-.72,0-.53-.53-.77-1.09-.77h-.52v-.91h.49c.42,0,.97-.17.97-.62,0-.33-.27-.57-.8-.57-.44,0-.91.19-1.13.33l-.26-.92c.33-.21.97-.41,1.67-.41,1.16,0,1.8.61,1.8,1.35,0,.58-.32,1.03-.99,1.26v.02c.65.12,1.17.61,1.17,1.32,0,.96-.84,1.66-2.22,1.66-.7,0-1.29-.18-1.61-.38l.26-.95v-.02Z"/></g></g><path class="uuid-4e53e9cc-8d32-4bd6-b3f3-1c67a92a0e2f" d="M20.14,19.11l-.57,2.84h3.22l.56-2.84h.87l-1.34,6.74h-.86l.62-3.17h-3.22l-.62,3.17h-.86l1.34-6.74h.86Z"/><path class="uuid-4e53e9cc-8d32-4bd6-b3f3-1c67a92a0e2f" d="M29.28,25.62c-.39.17-1.03.32-1.82.32-1.76,0-2.83-1.07-2.83-2.79,0-1.27.53-2.48,1.49-3.25.72-.59,1.61-.91,2.64-.91.78,0,1.33.19,1.51.33l-.28.67c-.26-.15-.76-.28-1.38-.28-.73,0-1.46.27-2,.76-.65.59-1.07,1.54-1.07,2.56,0,1.21.57,2.2,2.13,2.2.53,0,1.11-.1,1.49-.29l.11.68h.01Z"/><path class="uuid-4e53e9cc-8d32-4bd6-b3f3-1c67a92a0e2f" d="M31.52,19.21c.39-.09.94-.15,1.51-.15.67,0,1.32.16,1.71.52.33.3.51.69.51,1.22,0,.76-.38,1.39-.84,1.76-.54.44-1.33.64-2.12.64-.26,0-.5-.02-.72-.05l-.53,2.7h-.85l1.32-6.64h.01ZM31.72,22.45c.25.05.45.07.7.07,1.18,0,1.97-.71,1.97-1.66,0-.8-.59-1.12-1.39-1.12-.34,0-.6.03-.76.07l-.52,2.64Z"/><path class="uuid-4e53e9cc-8d32-4bd6-b3f3-1c67a92a0e2f" d="M36.78,19.21c.43-.09,1.01-.15,1.52-.15.7,0,1.3.16,1.67.49.32.27.52.66.52,1.12,0,.98-.78,1.71-1.66,1.95v.02c.48.16.72.66.77,1.36.07.94.12,1.58.22,1.85h-.89c-.04-.14-.11-.85-.17-1.63-.05-.92-.4-1.31-1.1-1.31h-.77l-.57,2.94h-.86l1.32-6.64h0ZM37.03,22.27h.77c1.09,0,1.79-.69,1.79-1.5,0-.72-.56-1.04-1.35-1.04-.34,0-.57.03-.73.07l-.49,2.47h.01Z"/><path class="uuid-4e53e9cc-8d32-4bd6-b3f3-1c67a92a0e2f" d="M47.43,21.76c0,1.17-.44,2.46-1.27,3.26-.62.59-1.43.94-2.4.94-1.81,0-2.66-1.31-2.66-2.74,0-1.19.49-2.5,1.34-3.31.59-.56,1.46-.91,2.35-.91,1.88,0,2.64,1.32,2.64,2.76h0ZM43.09,20.38c-.67.65-1.07,1.83-1.07,2.77,0,1.1.51,2.11,1.88,2.11.59,0,1.16-.25,1.6-.67.65-.64,1.04-1.85,1.04-2.79s-.32-2.1-1.85-2.1c-.62,0-1.17.26-1.6.68h0Z"/><path class="uuid-4e53e9cc-8d32-4bd6-b3f3-1c67a92a0e2f" d="M53.73,25.84l.5-3.64c.09-.64.25-1.63.38-2.28h-.04c-.32.68-.71,1.48-1.09,2.17l-2.08,3.71h-.66l-.52-3.63c-.1-.78-.18-1.56-.22-2.25h-.02c-.16.62-.37,1.64-.54,2.28l-.95,3.64h-.81l1.82-6.74h1.1l.55,3.87c.07.57.16,1.18.17,1.68h.03c.22-.5.52-1.1.82-1.66l2.17-3.89h1.12l-.89,6.74h-.84Z"/><path class="uuid-4e53e9cc-8d32-4bd6-b3f3-1c67a92a0e2f" d="M56.07,24.8c.37.25.9.43,1.48.43.79,0,1.52-.45,1.52-1.27,0-.5-.3-.87-1.03-1.26-.89-.46-1.39-1-1.39-1.73,0-1.2,1.08-1.98,2.37-1.98.67,0,1.18.2,1.43.36l-.31.67c-.22-.12-.65-.32-1.21-.31-.86,0-1.38.55-1.38,1.1s.35.86,1.08,1.25c.86.44,1.34.97,1.34,1.8,0,1.17-.95,2.08-2.52,2.08-.71,0-1.39-.22-1.68-.46l.31-.68h-.01Z"/></g></g></svg>