<?xml version="1.0" encoding="UTF-8"?><svg id="uuid-4909a5fe-e95e-4f44-a04c-810831a9fe3e" xmlns="http://www.w3.org/2000/svg" viewBox="0 0 404.43 264.26"><defs><style>.uuid-0a55d00f-096b-49e8-8b0f-3bd9894abf18{opacity:.75;}.uuid-8e60031c-fa09-4e8e-b87b-634a17eed382,.uuid-1747b838-24fe-49a7-94b6-ac6e136929ff{fill:#fff;}.uuid-c0aca5d7-5655-46e6-a544-135bcd525530{fill:#231f20;}.uuid-8062b490-2fe6-4da4-a18f-c6ada637c1a9{fill:#7200ff;}.uuid-1747b838-24fe-49a7-94b6-ac6e136929ff,.uuid-d2cb8ce0-ba63-41f2-8043-6dc8633e482c{stroke:#7200ff;stroke-miterlimit:10;}.uuid-9ac4d800-6814-4b69-84ef-a00f2a93a41a{fill:#faf4ea;isolation:isolate;opacity:.25;}.uuid-d2cb8ce0-ba63-41f2-8043-6dc8633e482c{fill:none;}</style></defs><g id="uuid-122c6371-1f32-4751-a878-7cd3e4511de9"><g id="uuid-e9be3317-b537-49ad-9a36-a81b1a1e0a10"><rect class="uuid-9ac4d800-6814-4b69-84ef-a00f2a93a41a" width="404.43" height="264.26" rx="46.34" ry="46.34"/><line class="uuid-d2cb8ce0-ba63-41f2-8043-6dc8633e482c" x1="217.33" y1="114.17" x2="264.75" y2="66.75"/><polygon class="uuid-8062b490-2fe6-4da4-a18f-c6ada637c1a9" points="265.38 71.35 263.87 67.62 260.14 66.12 268.97 62.53 265.38 71.35"/><line class="uuid-d2cb8ce0-ba63-41f2-8043-6dc8633e482c" x1="202.38" y1="195.85" x2="202.38" y2="156.44"/><polygon class="uuid-8062b490-2fe6-4da4-a18f-c6ada637c1a9" points="206.09 159.25 202.38 157.67 198.68 159.25 202.38 150.47 206.09 159.25"/><g id="uuid-549d9dff-e367-4530-8040-c64f1c0645a5"><ellipse class="uuid-1747b838-24fe-49a7-94b6-ac6e136929ff" cx="202.41" cy="216.78" rx="21.26" ry="20.88"/><g class="uuid-0a55d00f-096b-49e8-8b0f-3bd9894abf18"><path class="uuid-8e60031c-fa09-4e8e-b87b-634a17eed382" d="M160.7,220.26c-.63,0-1.13-.51-1.13-1.13v-5.39c0-.63.51-1.13,1.13-1.13h3.33c.63,0,1.13.51,1.13,1.13v1c0,.25-.08.48-.21.66.06.14.09.29.09.46v.99c0,.17-.04.33-.1.47.21.21.34.49.34.8v1c0,.63-.51,1.13-1.13,1.13h-3.45Z"/><rect class="uuid-8e60031c-fa09-4e8e-b87b-634a17eed382" x="163.83" y="212.32" width="3.48" height="7.94" rx="1.13" ry="1.13"/><path class="uuid-8e60031c-fa09-4e8e-b87b-634a17eed382" d="M169.02,220.34c-1.93,0-3.22-1.26-3.22-3.12,0-1.56,1.09-3.22,3.11-3.22,1.69,0,2.88,1.27,2.88,3.08,0,.3-.04.56-.06.68-.04.21-.13.39-.26.54l.09.44c.1.53-.19,1.07-.69,1.27-.53.21-1.15.32-1.84.32h-.01Z"/><path class="uuid-8e60031c-fa09-4e8e-b87b-634a17eed382" d="M172.8,220.34c-.68,0-1.31-.25-1.73-.68-.44-.46-.65-1.09-.65-1.95v-.65c-.31-.2-.52-.55-.52-.95v-.9c0-.4.21-.76.53-.96.05-.48.4-.89.88-1l1.19-.27c.08-.02.17-.03.25-.03.25,0,.5.09.71.25.27.22.43.54.43.89v.02c.5.12.87.57.87,1.1v.9c0,.47-.28.87-.69,1.04.09.04.17.09.25.16.26.21.41.53.41.86v.92c.01.47-.27.89-.7,1.06-.38.15-.87.19-1.22.19h-.01Z"/><path class="uuid-8e60031c-fa09-4e8e-b87b-634a17eed382" d="M174.32,220.26c-.63,0-1.13-.51-1.13-1.13v-2.62c0-.55-.02-.91-.03-1.23-.02-.31.1-.61.31-.84s.51-.35.82-.35h1.05c.13,0,.25.02.36.06.26-.1.52-.15.77-.15.2,0,.3,0,.45.03.54.1.94.57.94,1.12v1.14c0,.34-.15.65-.41.87-.21.17-.46.26-.73.26h-.05v1.71c0,.63-.51,1.13-1.13,1.13h-1.22Z"/><path class="uuid-8e60031c-fa09-4e8e-b87b-634a17eed382" d="M179.09,220.35c-1.83,0-3.16-1.32-3.16-3.15s1.32-3.21,3.22-3.21,3.13,1.32,3.13,3.13c0,2.11-1.61,3.22-3.2,3.22h.01Z"/><path class="uuid-8e60031c-fa09-4e8e-b87b-634a17eed382" d="M184.41,220.26c-.24,0-.46-.07-.64-.2-.18.12-.4.2-.64.2h-1.22c-.63,0-1.13-.51-1.13-1.13v-2.66c0-.47-.02-.87-.03-1.19-.01-.31.1-.61.31-.84.21-.22.51-.35.82-.35h1.06c.14,0,.27.02.39.07.27-.1.57-.16.9-.16,1.26,0,2.53.87,2.53,2.81v2.32c0,.63-.51,1.13-1.13,1.13h-1.22Z"/><path class="uuid-8e60031c-fa09-4e8e-b87b-634a17eed382" d="M186.6,220.26c-.63,0-1.13-.51-1.13-1.13v-3.91c0-.15.03-.3.09-.44-.08-.21-.12-.44-.12-.68-.01-.42.16-.87.49-1.2.33-.34.79-.52,1.29-.52.99,0,1.76.74,1.78,1.72,0,.24-.04.47-.13.67.06.13.09.28.09.44v3.91c0,.63-.51,1.13-1.13,1.13h-1.23Z"/><path class="uuid-8e60031c-fa09-4e8e-b87b-634a17eed382" d="M190.64,220.34c-1.89,0-3.2-1.29-3.2-3.13s1.39-3.21,3.37-3.21c.46,0,.95.08,1.33.23.52.2.82.75.71,1.3l-.19.9c-.06.3-.25.57-.51.73h0c.3.17.5.47.56.8l.14.9c.08.51-.19,1-.66,1.21-.39.17-.96.28-1.55.28h0Z"/><path class="uuid-8e60031c-fa09-4e8e-b87b-634a17eed382" d="M196.51,220.26c-.24,0-.46-.07-.64-.2-.18.12-.4.2-.64.2h-1.22c-.63,0-1.13-.51-1.13-1.13v-5.68c0-.63.51-1.13,1.13-1.13h1.22c.63,0,1.13.51,1.13,1.13v.54c1.24,0,2.49.88,2.49,2.84v2.29c0,.63-.51,1.13-1.13,1.13h-1.22,0Z"/><path class="uuid-8e60031c-fa09-4e8e-b87b-634a17eed382" d="M200.57,220.34c-1.93,0-3.22-1.26-3.22-3.12,0-1.56,1.09-3.22,3.11-3.22,1.69,0,2.88,1.27,2.88,3.08,0,.3-.04.56-.06.68-.04.21-.13.39-.26.54l.09.44c.1.53-.19,1.07-.69,1.27-.53.21-1.15.32-1.84.32h-.01Z"/><path class="uuid-8e60031c-fa09-4e8e-b87b-634a17eed382" d="M203.93,220.35c-1.34,0-2.4-1.02-2.4-2.33,0-.53.16-1.08.52-1.54l-.2-.69c-.14-.5.08-1.04.54-1.3.26-.15.99-.49,2.07-.49,1.76,0,2.85,1.08,2.85,2.82v1.36c0,.4.02.65.04.75.06.33-.03.67-.24.93-.22.26-.54.41-.87.41h-1.1c-.12,0-.23-.02-.33-.05-.27.09-.57.14-.88.14h0Z"/><rect class="uuid-8e60031c-fa09-4e8e-b87b-634a17eed382" x="206.02" y="212.32" width="3.48" height="7.94" rx="1.13" ry="1.13"/><path class="uuid-8e60031c-fa09-4e8e-b87b-634a17eed382" d="M210.77,220.34c-.68,0-1.31-.25-1.73-.68-.44-.45-.65-1.09-.65-1.94v-.65c-.31-.2-.52-.55-.52-.95v-.9c0-.4.21-.76.53-.96.05-.48.4-.89.88-1l1.19-.27c.08-.02.17-.03.25-.03.25,0,.5.09.71.25.27.22.43.54.43.89v.02c.5.12.87.57.87,1.1v.9c0,.47-.28.87-.69,1.04.09.04.17.09.25.16.26.21.41.53.41.86v.92c.01.47-.27.89-.7,1.06-.38.16-.87.19-1.22.19h-.01Z"/><path class="uuid-8e60031c-fa09-4e8e-b87b-634a17eed382" d="M214.78,220.26c-.24,0-.46-.07-.64-.2-.18.12-.4.2-.64.2h-1.22c-.63,0-1.13-.51-1.13-1.13v-5.68c0-.63.51-1.13,1.13-1.13h1.22c.63,0,1.13.51,1.13,1.13v.54c1.24,0,2.49.88,2.49,2.84v2.29c0,.63-.51,1.13-1.13,1.13h-1.21Z"/><path class="uuid-8e60031c-fa09-4e8e-b87b-634a17eed382" d="M218.59,220.26c-.63,0-1.13-.51-1.13-1.13v-2.62c0-.55-.01-.91-.03-1.23-.01-.31.1-.61.31-.84s.51-.35.82-.35h1.05c.13,0,.25.02.36.06.26-.1.52-.15.77-.15.2,0,.3,0,.45.03.54.1.94.57.94,1.12v1.14c0,.34-.15.65-.41.87-.21.17-.46.26-.73.26h-.05v1.71c0,.63-.51,1.13-1.13,1.13h-1.22Z"/><path class="uuid-8e60031c-fa09-4e8e-b87b-634a17eed382" d="M223.43,220.34c-1.93,0-3.22-1.26-3.22-3.12,0-1.56,1.09-3.22,3.11-3.22,1.69,0,2.88,1.27,2.88,3.08,0,.29-.04.55-.06.68-.04.21-.13.4-.26.55l.09.44c.1.53-.19,1.07-.69,1.27-.53.21-1.15.32-1.84.32h-.01Z"/><path class="uuid-8e60031c-fa09-4e8e-b87b-634a17eed382" d="M227.64,220.34c-1.89,0-3.21-1.29-3.21-3.13s1.39-3.21,3.37-3.21c.46,0,.95.08,1.33.23.52.2.83.75.71,1.3l-.19.9c-.06.3-.25.57-.51.73h0c.3.17.5.47.56.8l.14.9c.08.51-.19,1-.66,1.21-.39.17-.96.28-1.55.28h0Z"/><path class="uuid-8e60031c-fa09-4e8e-b87b-634a17eed382" d="M231.11,220.35c-1.83,0-3.16-1.32-3.16-3.15s1.32-3.21,3.22-3.21,3.13,1.32,3.13,3.13c0,2.11-1.61,3.22-3.2,3.22h.01Z"/><path class="uuid-8e60031c-fa09-4e8e-b87b-634a17eed382" d="M233.93,220.26c-.63,0-1.13-.51-1.13-1.13v-2.62c0-.55-.01-.91-.03-1.23-.01-.31.1-.61.31-.84s.51-.35.82-.35h1.05c.13,0,.25.02.36.06.26-.1.52-.15.77-.15.2,0,.3,0,.45.03.54.1.94.57.94,1.12v1.14c0,.34-.15.65-.41.87-.21.17-.46.26-.73.26h-.05v1.71c0,.63-.51,1.13-1.13,1.13h-1.22Z"/><path class="uuid-8e60031c-fa09-4e8e-b87b-634a17eed382" d="M238.35,220.35c-1.6,0-2.81-1.35-2.81-3.14,0-.95.32-1.8.91-2.39.51-.51,1.18-.8,1.89-.82v-.55c0-.63.51-1.13,1.13-1.13h1.22c.63,0,1.13.51,1.13,1.13v4.51c0,.42.01.85.03,1.1.02.31-.09.62-.31.84-.21.23-.51.36-.83.36h-1.08c-.13,0-.26-.02-.38-.07-.28.1-.59.15-.91.15h.01Z"/><path class="uuid-8e60031c-fa09-4e8e-b87b-634a17eed382" d="M242.71,220.34c-.68,0-1.32-.15-1.8-.41-.45-.25-.68-.77-.56-1.27l.22-.87c.03-.11.07-.22.13-.32-.25-.43-.29-.84-.28-1.09,0-1.38,1.15-2.39,2.73-2.39.59,0,1.18.12,1.61.34.48.24.72.78.59,1.3l-.22.84s-.02.07-.03.1c.34.44.45.94.45,1.35,0,1.21-.87,2.41-2.83,2.41h0Z"/></g><path d="M163.9,216.85h-1.98v1.28h2.21v1h-3.44v-5.39h3.33v1h-2.1v1.12h1.98v.99h0Z"/><path d="M164.96,213.45h1.22v5.68h-1.22v-5.68Z"/><path d="M168.1,217.56c.04.5.54.74,1.1.74.42,0,.75-.06,1.08-.16l.16.82c-.4.16-.89.24-1.42.24-1.33,0-2.09-.77-2.09-1.99,0-.99.62-2.09,1.98-2.09,1.26,0,1.74.98,1.74,1.95,0,.21-.02.39-.04.48h-2.52.01ZM169.53,216.73c0-.29-.13-.79-.69-.79-.51,0-.72.46-.75.79h1.44Z"/><path d="M172.74,214.1v1.12h.87v.9h-.87v1.42c0,.47.11.69.48.69.15,0,.27-.02.36-.03v.92c-.15.06-.44.1-.78.1-.39,0-.72-.14-.91-.34-.22-.23-.34-.61-.34-1.16v-1.6h-.52v-.9h.52v-.85l1.19-.27h0Z"/><path d="M174.32,216.51c0-.58-.02-.95-.03-1.29h1.05l.04.72h.03c.2-.57.68-.81,1.06-.81.11,0,.17,0,.26.02v1.14c-.09-.02-.19-.03-.33-.03-.45,0-.75.24-.83.62-.02.08-.02.18-.02.27v1.98h-1.22v-2.62h-.01Z"/><path d="M181.16,217.13c0,1.43-1.02,2.09-2.06,2.09-1.14,0-2.02-.75-2.02-2.01s.83-2.07,2.09-2.07,2,.82,2,2h-.01ZM178.33,217.17c0,.67.28,1.17.8,1.17.47,0,.78-.47.78-1.17,0-.58-.22-1.18-.78-1.18s-.8.6-.8,1.18Z"/><path d="M181.91,216.47c0-.49-.02-.9-.03-1.25h1.06l.06.54h.02c.16-.25.56-.62,1.21-.62.8,0,1.4.53,1.4,1.68v2.32h-1.22v-2.17c0-.5-.18-.85-.62-.85-.34,0-.54.23-.62.46-.03.07-.05.19-.05.3v2.25h-1.22v-2.66h.01Z"/><path d="M187.86,214.13c0,.33-.26.61-.66.61s-.64-.27-.63-.61c0-.35.25-.62.64-.62s.64.26.65.62ZM186.6,219.13v-3.91h1.22v3.91h-1.22Z"/><path d="M191.73,219.03c-.22.1-.62.18-1.09.18-1.26,0-2.07-.77-2.07-2,0-1.14.78-2.08,2.24-2.08.32,0,.67.06.93.15l-.19.9c-.14-.06-.36-.12-.68-.12-.64,0-1.06.46-1.05,1.1,0,.72.48,1.09,1.07,1.09.29,0,.51-.05.7-.12l.14.9h0Z"/><path d="M194.02,213.45h1.22v2.23h.02c.13-.17.29-.3.48-.4.18-.1.41-.15.63-.15.78,0,1.37.54,1.37,1.71v2.29h-1.22v-2.15c0-.51-.18-.86-.63-.86-.32,0-.52.21-.61.42-.03.08-.04.18-.04.27v2.32h-1.22v-5.68h0Z"/><path d="M199.64,217.56c.04.5.54.74,1.1.74.42,0,.75-.06,1.08-.16l.16.82c-.4.16-.89.24-1.42.24-1.33,0-2.09-.77-2.09-1.99,0-.99.62-2.09,1.98-2.09,1.26,0,1.74.98,1.74,1.95,0,.21-.02.39-.04.48h-2.52.01ZM201.07,216.73c0-.29-.13-.79-.69-.79-.51,0-.72.46-.75.79h1.44Z"/><path d="M205.15,219.13l-.07-.39h-.02c-.26.31-.66.48-1.12.48-.79,0-1.26-.58-1.26-1.2,0-1.02.91-1.5,2.29-1.5v-.06c0-.21-.11-.5-.71-.5-.4,0-.82.14-1.08.3l-.22-.78c.27-.15.81-.34,1.52-.34,1.3,0,1.72.77,1.72,1.69v1.36c0,.38.02.74.06.95h-1.11ZM205.01,217.28c-.64,0-1.14.14-1.14.62,0,.31.21.46.48.46.3,0,.55-.2.63-.45.02-.06.02-.14.02-.21v-.42h.01Z"/><path d="M207.15,213.45h1.21v5.68h-1.21v-5.68Z"/><path d="M210.71,214.1v1.12h.87v.9h-.87v1.42c0,.47.11.69.48.69.15,0,.27-.02.36-.03v.92c-.15.06-.44.1-.78.1-.39,0-.72-.14-.91-.34-.22-.23-.34-.61-.34-1.16v-1.6h-.52v-.9h.52v-.85l1.19-.27h0Z"/><path d="M212.29,213.45h1.21v2.23h.02c.13-.17.29-.3.48-.4.18-.1.41-.15.63-.15.78,0,1.37.54,1.37,1.71v2.29h-1.22v-2.15c0-.51-.18-.86-.63-.86-.32,0-.52.21-.61.42-.03.08-.04.18-.04.27v2.32h-1.21v-5.68h0Z"/><path d="M218.59,216.51c0-.58-.02-.95-.03-1.29h1.05l.04.72h.03c.2-.57.68-.81,1.06-.81.11,0,.17,0,.26.02v1.14c-.09-.02-.19-.03-.33-.03-.45,0-.75.24-.83.62-.02.08-.02.18-.02.27v1.98h-1.21v-2.62h-.02Z"/><path d="M222.5,217.56c.04.5.54.74,1.1.74.42,0,.75-.06,1.08-.16l.16.82c-.4.16-.89.24-1.42.24-1.33,0-2.09-.77-2.09-1.99,0-.99.62-2.09,1.97-2.09,1.26,0,1.74.98,1.74,1.95,0,.21-.02.39-.04.48h-2.52.02ZM223.93,216.73c0-.29-.13-.79-.69-.79-.51,0-.72.46-.75.79h1.44Z"/><path d="M228.73,219.03c-.22.1-.62.18-1.09.18-1.26,0-2.07-.77-2.07-2,0-1.14.78-2.08,2.24-2.08.32,0,.67.06.93.15l-.19.9c-.14-.06-.36-.12-.68-.12-.64,0-1.06.46-1.05,1.1,0,.72.48,1.09,1.07,1.09.29,0,.51-.05.7-.12l.14.9h0Z"/><path d="M233.17,217.13c0,1.43-1.02,2.09-2.06,2.09-1.14,0-2.02-.75-2.02-2.01s.83-2.07,2.09-2.07,2,.82,2,2h-.01ZM230.34,217.17c0,.67.28,1.17.8,1.17.47,0,.78-.47.78-1.17,0-.58-.22-1.18-.78-1.18s-.8.6-.8,1.18Z"/><path d="M233.93,216.51c0-.58-.02-.95-.03-1.29h1.05l.04.72h.03c.2-.57.68-.81,1.06-.81.11,0,.17,0,.26.02v1.14c-.09-.02-.19-.03-.33-.03-.45,0-.75.24-.83.62-.02.08-.02.18-.02.27v1.98h-1.21v-2.62h-.02Z"/><path d="M240.69,213.45v4.51c0,.44.02.9.03,1.17h-1.08l-.06-.58h-.02c-.25.44-.72.66-1.22.66-.93,0-1.67-.79-1.67-2.01,0-1.32.82-2.08,1.75-2.08.48,0,.86.17,1.03.44h.02v-2.12h1.22ZM239.48,216.87c0-.06,0-.15-.02-.22-.07-.33-.34-.6-.71-.6-.55,0-.84.5-.84,1.11,0,.66.33,1.08.83,1.08.35,0,.63-.24.7-.58.02-.09.03-.18.03-.28v-.51h.01Z"/><path d="M241.66,218.07c.22.14.69.3,1.05.3s.52-.13.52-.33-.12-.3-.58-.45c-.81-.27-1.12-.71-1.11-1.18,0-.73.62-1.28,1.59-1.28.46,0,.86.1,1.1.22l-.22.84c-.18-.1-.51-.22-.85-.22-.3,0-.46.12-.46.32,0,.18.15.28.63.45.74.26,1.06.63,1.06,1.21,0,.73-.58,1.26-1.7,1.26-.51,0-.97-.11-1.26-.27l.22-.87h.01Z"/></g><g id="uuid-30de11db-da49-42a0-93fe-c8b69fa91e4a"><ellipse class="uuid-1747b838-24fe-49a7-94b6-ac6e136929ff" cx="202.36" cy="129.09" rx="21.26" ry="20.88"/><g class="uuid-0a55d00f-096b-49e8-8b0f-3bd9894abf18"><path class="uuid-8e60031c-fa09-4e8e-b87b-634a17eed382" d="M185.32,127.77c-.63,0-1.13-.51-1.13-1.13v-3.23h-.31c-.63,0-1.13-.51-1.13-1.13v-1.02c0-.63.51-1.13,1.13-1.13h4.14c.63,0,1.13.51,1.13,1.13v1.02c0,.63-.51,1.13-1.13,1.13h-.34v3.23c0,.63-.51,1.13-1.13,1.13h-1.23Z"/><path class="uuid-8e60031c-fa09-4e8e-b87b-634a17eed382" d="M188.44,127.77c-.63,0-1.13-.51-1.13-1.13v-3.91c0-.15.03-.3.09-.44-.08-.21-.12-.44-.12-.68-.01-.42.16-.87.49-1.2.33-.34.79-.52,1.29-.52.99,0,1.76.74,1.78,1.72,0,.24-.04.47-.13.67.06.13.09.28.09.44v3.91c0,.63-.51,1.13-1.13,1.13h-1.23Z"/><path class="uuid-8e60031c-fa09-4e8e-b87b-634a17eed382" d="M195.36,127.77c-.22,0-.42-.06-.59-.17-.17.11-.38.17-.59.17h-1.18c-.22,0-.42-.06-.59-.16-.17.1-.37.16-.59.16h-1.18c-.63,0-1.13-.51-1.13-1.13v-2.66c0-.47-.02-.87-.03-1.19-.01-.31.1-.61.31-.84.21-.22.51-.35.82-.35h1.02c.13,0,.25.02.37.06.28-.1.58-.15.89-.15.42,0,.81.1,1.14.28.37-.19.76-.28,1.19-.28,1.22,0,2.45.87,2.45,2.83v2.3c0,.63-.51,1.13-1.13,1.13h-1.18Z"/><path class="uuid-8e60031c-fa09-4e8e-b87b-634a17eed382" d="M199.38,127.85c-1.93,0-3.22-1.26-3.22-3.12,0-1.56,1.09-3.22,3.11-3.22,1.69,0,2.88,1.27,2.88,3.08,0,.3-.04.56-.06.68-.04.21-.13.4-.26.55l.09.44c.1.53-.19,1.07-.69,1.27-.53.21-1.15.32-1.83.32h-.02Z"/><path class="uuid-8e60031c-fa09-4e8e-b87b-634a17eed382" d="M204.39,127.85c-.68,0-1.32-.14-1.8-.41-.45-.25-.69-.77-.56-1.27l.22-.87c.03-.11.07-.22.13-.31-.25-.43-.29-.84-.28-1.09,0-1.38,1.15-2.39,2.72-2.39.59,0,1.18.12,1.61.34.48.24.72.78.59,1.3l-.22.84s-.02.07-.03.1c.34.44.45.94.45,1.35,0,1.21-.87,2.41-2.83,2.41h0Z"/><path class="uuid-8e60031c-fa09-4e8e-b87b-634a17eed382" d="M206.82,127.77c-.63,0-1.13-.51-1.13-1.13v-3.91c0-.15.03-.3.09-.44-.08-.21-.12-.44-.12-.68-.01-.42.16-.87.49-1.2.33-.34.79-.52,1.29-.52.99,0,1.76.74,1.78,1.72,0,.24-.05.47-.13.68.06.14.09.28.09.44v3.91c0,.63-.51,1.13-1.13,1.13h-1.23Z"/><path class="uuid-8e60031c-fa09-4e8e-b87b-634a17eed382" d="M211.51,127.77c-.24,0-.46-.07-.64-.2-.18.12-.4.2-.64.2h-1.21c-.63,0-1.13-.51-1.13-1.13v-2.66c0-.47-.02-.87-.03-1.2-.01-.31.1-.61.31-.83s.51-.35.82-.35h1.06c.14,0,.27.02.39.07.27-.1.57-.16.9-.16,1.26,0,2.53.87,2.53,2.81v2.32c0,.63-.51,1.13-1.13,1.13h-1.23Z"/><path class="uuid-8e60031c-fa09-4e8e-b87b-634a17eed382" d="M215.55,127.85c-1.89,0-3.2-1.29-3.2-3.13s1.39-3.21,3.37-3.21c.46,0,.95.08,1.33.22.53.2.83.75.71,1.3l-.19.9c-.06.3-.25.57-.51.73h0c.3.17.5.47.56.8l.14.9c.08.51-.19,1.01-.66,1.22-.39.17-.96.27-1.55.27h0Z"/><path class="uuid-8e60031c-fa09-4e8e-b87b-634a17eed382" d="M219.09,127.85c-1.93,0-3.22-1.26-3.22-3.12,0-1.56,1.09-3.22,3.11-3.22,1.69,0,2.88,1.27,2.88,3.08,0,.29-.04.55-.06.68-.04.21-.13.4-.27.55l.09.44c.1.54-.19,1.07-.69,1.27-.53.21-1.15.32-1.83.32h-.01Z"/><path class="uuid-8e60031c-fa09-4e8e-b87b-634a17eed382" d="M174.57,137.37c-.63,0-1.13-.51-1.13-1.13v-3.91c0-.15.03-.3.09-.44-.08-.21-.12-.44-.12-.68-.01-.42.16-.87.49-1.2.33-.34.79-.52,1.29-.52.99,0,1.76.74,1.78,1.72,0,.24-.04.47-.13.67.06.13.09.28.09.44v3.91c0,.63-.51,1.13-1.13,1.13h-1.23Z"/><path class="uuid-8e60031c-fa09-4e8e-b87b-634a17eed382" d="M179.26,137.37c-.24,0-.46-.07-.64-.2-.18.12-.4.2-.64.2h-1.22c-.63,0-1.13-.51-1.13-1.13v-2.66c0-.47-.02-.87-.03-1.19-.01-.31.1-.61.31-.84.21-.22.51-.35.82-.35h1.06c.14,0,.27.02.39.07.27-.1.57-.16.9-.16,1.26,0,2.53.87,2.53,2.81v2.32c0,.63-.51,1.13-1.13,1.13h-1.22Z"/><path class="uuid-8e60031c-fa09-4e8e-b87b-634a17eed382" d="M181.45,137.37c-.63,0-1.13-.51-1.13-1.13v-3.91c0-.15.03-.3.09-.44-.08-.21-.12-.44-.12-.68-.01-.42.16-.87.49-1.2.33-.34.79-.52,1.29-.52.99,0,1.76.74,1.78,1.72,0,.24-.04.47-.13.67.06.13.09.28.09.44v3.91c0,.63-.51,1.13-1.13,1.13h-1.23Z"/><path class="uuid-8e60031c-fa09-4e8e-b87b-634a17eed382" d="M185.06,137.45c-.68,0-1.31-.25-1.73-.68-.44-.45-.65-1.09-.65-1.94v-.65c-.31-.2-.52-.55-.52-.95v-.9c0-.4.21-.76.53-.96.05-.48.4-.89.88-1l1.19-.27c.08-.02.17-.03.25-.03.25,0,.5.09.71.25.27.22.43.54.43.89v.02c.5.12.87.57.87,1.1v.9c0,.47-.28.87-.69,1.04.09.04.17.09.25.16.26.21.41.53.41.86v.92c.01.47-.27.89-.7,1.06-.38.15-.87.19-1.22.19h-.01Z"/><path class="uuid-8e60031c-fa09-4e8e-b87b-634a17eed382" d="M186.58,137.37c-.63,0-1.13-.51-1.13-1.13v-3.91c0-.15.03-.3.09-.44-.08-.21-.12-.44-.12-.68-.01-.42.16-.87.49-1.2.33-.34.79-.52,1.29-.52.99,0,1.76.74,1.78,1.72,0,.24-.04.47-.13.67.06.13.09.28.09.44v3.91c0,.63-.51,1.13-1.13,1.13h-1.23Z"/><path class="uuid-8e60031c-fa09-4e8e-b87b-634a17eed382" d="M189.78,137.46c-1.34,0-2.4-1.02-2.4-2.33,0-.53.16-1.08.52-1.54l-.2-.69c-.14-.51.08-1.05.54-1.3.26-.15.99-.49,2.07-.49,1.76,0,2.85,1.08,2.85,2.82v1.36c0,.4.02.65.04.75.06.33-.03.67-.24.93-.22.26-.53.41-.87.41h-1.1c-.11,0-.23-.02-.33-.05-.27.09-.57.14-.88.14h0Z"/><rect class="uuid-8e60031c-fa09-4e8e-b87b-634a17eed382" x="191.86" y="129.43" width="3.48" height="7.94" rx="1.13" ry="1.13"/><path class="uuid-8e60031c-fa09-4e8e-b87b-634a17eed382" d="M198.26,137.46c-1.6,0-2.81-1.35-2.81-3.14,0-.95.32-1.8.91-2.39.51-.51,1.18-.8,1.89-.82v-.55c0-.63.51-1.13,1.13-1.13h1.22c.63,0,1.13.51,1.13,1.13v4.51c0,.41.01.85.03,1.1.02.31-.09.62-.31.85-.21.23-.51.36-.83.36h-1.08c-.13,0-.26-.02-.38-.07-.28.1-.59.15-.91.15h.01Z"/><path class="uuid-8e60031c-fa09-4e8e-b87b-634a17eed382" d="M201.58,137.37c-.63,0-1.13-.51-1.13-1.13v-3.91c0-.15.03-.3.09-.44-.08-.21-.12-.44-.12-.68-.01-.42.16-.87.49-1.2.33-.34.79-.52,1.29-.52.99,0,1.76.74,1.78,1.72,0,.24-.05.47-.13.67.06.13.09.28.09.44v3.91c0,.63-.51,1.13-1.13,1.13h-1.23Z"/><path class="uuid-8e60031c-fa09-4e8e-b87b-634a17eed382" d="M204.78,137.46c-1.34,0-2.4-1.02-2.4-2.33,0-.53.16-1.08.52-1.54l-.2-.7c-.14-.51.08-1.05.54-1.3.26-.15.99-.49,2.07-.49,1.76,0,2.85,1.08,2.85,2.82v1.36c0,.4.02.65.04.75.06.33-.03.67-.25.93-.21.26-.53.41-.87.41h-1.09c-.12,0-.23-.02-.33-.05-.27.09-.57.14-.88.14h0Z"/><path class="uuid-8e60031c-fa09-4e8e-b87b-634a17eed382" d="M209.52,139.04c-.75,0-1.46-.17-1.97-.45-.45-.25-.67-.77-.54-1.27l.24-.92s.02-.06.03-.1c-.41-.52-.64-1.22-.64-2.01,0-1.82,1.25-3.19,2.91-3.19.29,0,.57.04.83.13.1-.03.2-.04.3-.04h1.06c.31,0,.61.13.83.36s.32.54.3.85c-.01.23-.03.54-.03,1.08v2.18c0,1.17-.32,2.02-.97,2.61-.6.51-1.39.77-2.34.77h-.01Z"/><path class="uuid-8e60031c-fa09-4e8e-b87b-634a17eed382" d="M215.17,137.37c-.24,0-.46-.07-.64-.2-.18.12-.4.2-.64.2h-1.21c-.63,0-1.13-.51-1.13-1.13v-2.66c0-.47-.02-.87-.03-1.2-.01-.31.1-.61.31-.83s.51-.35.82-.35h1.06c.14,0,.27.02.39.07.27-.1.57-.16.9-.16,1.26,0,2.53.87,2.53,2.81v2.32c0,.63-.51,1.13-1.13,1.13h-1.23Z"/><path class="uuid-8e60031c-fa09-4e8e-b87b-634a17eed382" d="M219.16,137.46c-1.83,0-3.16-1.32-3.16-3.15s1.32-3.21,3.22-3.21,3.13,1.32,3.13,3.13c0,2.11-1.61,3.22-3.2,3.22h.01Z"/><path class="uuid-8e60031c-fa09-4e8e-b87b-634a17eed382" d="M223.02,137.45c-.68,0-1.32-.15-1.8-.41-.45-.25-.68-.77-.56-1.27l.22-.87c.03-.11.07-.22.13-.32-.25-.43-.29-.85-.28-1.09,0-1.38,1.15-2.39,2.72-2.39.59,0,1.17.12,1.61.34.48.24.72.78.59,1.3l-.22.84s-.02.07-.03.1c.34.44.45.94.45,1.35,0,1.21-.88,2.41-2.83,2.41h0Z"/><path class="uuid-8e60031c-fa09-4e8e-b87b-634a17eed382" d="M225.45,137.37c-.63,0-1.13-.51-1.13-1.13v-3.91c0-.15.03-.3.09-.44-.08-.21-.12-.44-.12-.68-.01-.42.16-.87.49-1.2.33-.34.79-.52,1.29-.52.99,0,1.76.74,1.78,1.72,0,.24-.04.47-.13.67.06.13.09.28.09.44v3.91c0,.63-.51,1.13-1.13,1.13h-1.23Z"/><path class="uuid-8e60031c-fa09-4e8e-b87b-634a17eed382" d="M228.68,137.45c-.68,0-1.32-.15-1.8-.41-.45-.25-.68-.77-.56-1.27l.22-.87c.03-.11.07-.22.13-.32-.25-.43-.29-.85-.28-1.09,0-1.38,1.15-2.39,2.72-2.39.59,0,1.17.12,1.61.34.48.24.72.78.59,1.3l-.22.84s-.02.07-.03.1c.34.44.45.94.45,1.35,0,1.21-.88,2.41-2.83,2.41h0Z"/></g><path d="M185.32,122.27h-1.45v-1.02h4.14v1.02h-1.47v4.37h-1.22v-4.37Z"/><path d="M189.7,121.64c0,.33-.26.61-.66.61s-.64-.27-.63-.61c0-.35.25-.62.64-.62s.64.26.65.62ZM188.44,126.64v-3.91h1.22v3.91h-1.22Z"/><path d="M190.63,123.98c0-.49-.02-.9-.03-1.25h1.02l.06.53h.02c.17-.25.51-.62,1.18-.62.5,0,.9.26,1.07.66h.02c.14-.2.32-.36.5-.47.22-.13.46-.19.74-.19.75,0,1.32.53,1.32,1.69v2.3h-1.18v-2.13c0-.57-.18-.89-.58-.89-.28,0-.48.19-.56.42-.03.09-.05.21-.05.31v2.29h-1.18v-2.19c0-.5-.18-.83-.56-.83-.31,0-.5.24-.57.44-.04.1-.05.21-.05.3v2.28h-1.18v-2.66h.01Z"/><path d="M198.45,125.07c.04.5.54.74,1.1.74.42,0,.75-.06,1.08-.16l.16.82c-.4.16-.89.24-1.42.24-1.33,0-2.09-.77-2.09-1.99,0-.99.62-2.09,1.98-2.09,1.26,0,1.74.98,1.74,1.95,0,.21-.02.39-.04.48h-2.52.01ZM199.88,124.24c0-.29-.13-.79-.69-.79-.51,0-.72.46-.75.79h1.44Z"/><path d="M203.35,125.58c.22.14.69.29,1.05.29s.52-.13.52-.33-.12-.3-.58-.45c-.81-.27-1.12-.71-1.11-1.17,0-.73.62-1.28,1.59-1.28.46,0,.86.1,1.1.22l-.22.84c-.18-.1-.51-.22-.85-.22-.3,0-.46.12-.46.32,0,.18.15.28.63.45.74.26,1.06.63,1.06,1.21,0,.73-.58,1.26-1.69,1.26-.51,0-.97-.11-1.26-.27l.22-.87Z"/><path d="M208.08,121.64c0,.33-.26.61-.66.61s-.64-.27-.63-.61c0-.35.25-.62.64-.62s.64.26.65.62ZM206.82,126.64v-3.91h1.22v3.91h-1.22Z"/><path d="M209.02,123.98c0-.49-.02-.9-.03-1.25h1.06l.06.54h.02c.16-.25.56-.62,1.21-.62.8,0,1.4.53,1.4,1.68v2.32h-1.22v-2.17c0-.5-.18-.85-.62-.85-.34,0-.54.23-.62.46-.03.07-.05.19-.05.3v2.25h-1.21v-2.66h0Z"/><path d="M216.64,126.54c-.22.1-.62.18-1.09.18-1.26,0-2.07-.77-2.07-2,0-1.14.78-2.08,2.24-2.08.32,0,.67.06.93.15l-.19.9c-.14-.06-.36-.12-.68-.12-.64,0-1.06.46-1.05,1.1,0,.72.48,1.1,1.07,1.1.29,0,.51-.05.7-.12l.14.9h0Z"/><path d="M218.16,125.07c.04.5.54.74,1.1.74.42,0,.75-.06,1.08-.16l.16.82c-.4.16-.89.24-1.42.24-1.33,0-2.09-.77-2.09-1.99,0-.99.62-2.09,1.98-2.09,1.26,0,1.74.98,1.74,1.95,0,.21-.02.39-.04.48h-2.52.01ZM219.59,124.24c0-.29-.13-.79-.69-.79-.51,0-.72.46-.75.79h1.44Z"/><path d="M175.83,131.24c0,.34-.26.61-.66.61s-.64-.27-.63-.61c0-.35.25-.62.64-.62s.64.26.65.62ZM174.57,136.24v-3.91h1.22v3.91h-1.22Z"/><path d="M176.77,133.58c0-.49-.02-.9-.03-1.25h1.06l.06.54h.02c.16-.25.56-.62,1.21-.62.8,0,1.4.53,1.4,1.68v2.32h-1.22v-2.17c0-.5-.18-.85-.62-.85-.34,0-.54.23-.62.46-.03.07-.05.19-.05.3v2.25h-1.22v-2.66h.01Z"/><path d="M182.71,131.24c0,.34-.26.61-.66.61s-.64-.27-.63-.61c0-.35.25-.62.64-.62s.64.26.65.62ZM181.45,136.24v-3.91h1.22v3.91h-1.22Z"/><path d="M185,131.21v1.12h.87v.89h-.87v1.42c0,.47.11.69.48.69.15,0,.27-.02.36-.03v.92c-.15.06-.44.1-.78.1-.39,0-.72-.14-.91-.34-.22-.23-.34-.61-.34-1.16v-1.6h-.52v-.89h.52v-.85l1.19-.27h0Z"/><path d="M187.84,131.24c0,.34-.26.61-.66.61s-.64-.27-.63-.61c0-.35.25-.62.64-.62s.64.26.65.62ZM186.58,136.24v-3.91h1.22v3.91h-1.22Z"/><path d="M191,136.24l-.07-.39h-.02c-.26.31-.66.48-1.12.48-.79,0-1.26-.58-1.26-1.2,0-1.02.91-1.5,2.29-1.5v-.06c0-.21-.11-.5-.71-.5-.4,0-.82.14-1.08.3l-.22-.78c.27-.15.81-.34,1.52-.34,1.3,0,1.72.77,1.72,1.69v1.36c0,.38.02.74.06.95h-1.11ZM190.85,134.39c-.64,0-1.14.14-1.14.62,0,.31.21.46.48.46.3,0,.55-.2.63-.45.02-.06.02-.13.02-.21v-.42h.01Z"/><path d="M193,130.56h1.22v5.68h-1.22v-5.68Z"/><path d="M200.6,130.56v4.51c0,.44.02.9.03,1.17h-1.08l-.06-.58h-.02c-.25.44-.72.66-1.22.66-.93,0-1.67-.79-1.67-2.01,0-1.32.82-2.08,1.75-2.08.48,0,.86.17,1.03.44h.02v-2.12h1.22ZM199.39,133.98c0-.06,0-.15-.02-.22-.07-.33-.34-.6-.71-.6-.55,0-.84.5-.84,1.11,0,.66.33,1.08.83,1.08.35,0,.63-.24.7-.58.02-.09.03-.18.03-.28v-.51h.01Z"/><path d="M202.84,131.24c0,.34-.26.61-.66.61s-.64-.27-.63-.61c0-.35.25-.62.64-.62s.64.26.65.62ZM201.58,136.24v-3.91h1.22v3.91h-1.22Z"/><path d="M206,136.24l-.07-.39h-.02c-.26.31-.66.48-1.12.48-.79,0-1.26-.58-1.26-1.2,0-1.02.91-1.5,2.29-1.5v-.06c0-.21-.11-.5-.71-.5-.4,0-.82.14-1.08.3l-.22-.78c.27-.15.81-.34,1.52-.34,1.3,0,1.72.77,1.72,1.69v1.36c0,.38.02.74.06.95h-1.11ZM205.85,134.39c-.64,0-1.13.14-1.13.62,0,.31.21.46.48.46.3,0,.55-.2.63-.45.02-.06.02-.13.02-.21v-.42h0Z"/><path d="M211.73,132.33c-.02.25-.03.58-.03,1.16v2.18c0,.75-.15,1.37-.59,1.76-.43.37-1.02.48-1.59.48-.51,0-1.06-.1-1.41-.3l.24-.92c.25.14.68.29,1.14.29.58,0,1.02-.31,1.02-1.03v-.26h-.02c-.23.33-.61.51-1.05.51-.97,0-1.66-.78-1.66-1.91,0-1.26.82-2.06,1.78-2.06.54,0,.87.23,1.07.55h.02l.04-.46h1.06-.02ZM210.48,133.92c0-.08,0-.16-.02-.22-.09-.32-.32-.54-.66-.54-.44,0-.8.4-.8,1.11,0,.58.29,1.04.8,1.04.31,0,.56-.21.64-.5.03-.09.04-.22.04-.32v-.58h0Z"/><path d="M212.68,133.58c0-.49-.02-.9-.03-1.25h1.06l.06.54h.02c.16-.25.56-.62,1.21-.62.8,0,1.4.53,1.4,1.68v2.32h-1.22v-2.17c0-.5-.18-.85-.62-.85-.34,0-.54.23-.62.46-.03.07-.05.19-.05.3v2.25h-1.21v-2.66h0Z"/><path d="M221.23,134.24c0,1.43-1.02,2.09-2.06,2.09-1.14,0-2.02-.75-2.02-2.01s.83-2.07,2.09-2.07,2,.82,2,2h-.01ZM218.4,134.28c0,.67.28,1.17.8,1.17.47,0,.78-.47.78-1.17,0-.58-.22-1.17-.78-1.17s-.8.6-.8,1.17Z"/><path d="M221.97,135.17c.22.14.69.3,1.05.3s.52-.13.52-.33-.12-.3-.58-.45c-.81-.27-1.12-.71-1.11-1.18,0-.73.62-1.28,1.59-1.28.46,0,.86.1,1.1.22l-.22.84c-.18-.1-.51-.22-.85-.22-.3,0-.46.12-.46.32,0,.18.15.28.63.45.74.26,1.06.63,1.06,1.21,0,.73-.58,1.26-1.7,1.26-.51,0-.97-.11-1.26-.27l.22-.87h.01Z"/><path d="M226.71,131.24c0,.34-.26.61-.66.61s-.64-.27-.63-.61c0-.35.25-.62.64-.62s.64.26.65.62ZM225.45,136.24v-3.91h1.21v3.91h-1.21Z"/><path d="M227.64,135.17c.22.14.69.3,1.05.3s.52-.13.52-.33-.12-.3-.58-.45c-.81-.27-1.12-.71-1.11-1.18,0-.73.62-1.28,1.59-1.28.46,0,.86.1,1.1.22l-.22.84c-.18-.1-.51-.22-.85-.22-.3,0-.46.12-.46.32,0,.18.15.28.63.45.74.26,1.06.63,1.06,1.21,0,.73-.58,1.26-1.7,1.26-.51,0-.97-.11-1.26-.27l.22-.87h.01Z"/></g><g id="uuid-ab4a2d4c-6dae-4355-bcbf-ba7adfeae328"><ellipse class="uuid-1747b838-24fe-49a7-94b6-ac6e136929ff" cx="284.26" cy="47.27" rx="21.26" ry="20.88"/><path d="M276.17,44.31c.45-.07,1.03-.11,1.65-.11,1.02,0,1.69.18,2.21.58.56.42.91,1.08.91,2.03,0,1.03-.38,1.74-.9,2.18-.57.47-1.43.7-2.49.7-.63,0-1.08-.04-1.38-.08v-5.29h0ZM277.39,48.7c.1.02.27.02.42.02,1.1,0,1.82-.6,1.82-1.89,0-1.12-.65-1.71-1.7-1.71-.27,0-.45.02-.55.05v3.53h.01Z"/><path d="M283.92,49.62l-.07-.39h-.02c-.26.31-.66.48-1.12.48-.79,0-1.26-.58-1.26-1.2,0-1.02.91-1.5,2.29-1.5v-.06c0-.21-.11-.5-.71-.5-.4,0-.82.14-1.08.3l-.22-.78c.27-.15.81-.34,1.52-.34,1.3,0,1.72.77,1.72,1.69v1.36c0,.38.02.74.06.95h-1.11ZM283.78,47.78c-.64,0-1.14.14-1.14.62,0,.31.21.46.48.46.3,0,.55-.2.63-.45.02-.06.02-.14.02-.21v-.42h.01Z"/><path d="M286.74,45.71l.58,1.92c.06.23.14.52.19.73h.02c.06-.21.12-.5.18-.73l.48-1.92h1.3l-.91,2.57c-.56,1.55-.94,2.17-1.38,2.57-.42.37-.87.5-1.18.54l-.26-1.03c.15-.02.34-.1.53-.21.18-.1.38-.29.5-.49.04-.06.06-.12.06-.18,0-.04,0-.1-.06-.2l-1.43-3.57h1.38Z"/><path d="M289.88,48.56c.22.14.69.3,1.05.3s.52-.13.52-.33-.12-.3-.58-.45c-.81-.27-1.12-.71-1.11-1.18,0-.73.62-1.28,1.59-1.28.46,0,.86.1,1.1.22l-.22.84c-.18-.1-.51-.22-.85-.22-.3,0-.46.12-.46.32,0,.18.15.28.63.45.74.26,1.06.63,1.06,1.21,0,.73-.58,1.26-1.7,1.26-.51,0-.97-.11-1.26-.27l.22-.87h.01Z"/></g><g id="uuid-922f5e8b-35b2-40b2-8dbe-7aadf2db6916"><g id="uuid-919a183d-5a4a-4df1-85b0-cce479f4fa54"><path d="M152.73,167.33v2.07h2.01v-2.07h1.22v5.39h-1.22v-2.25h-2.01v2.25h-1.22v-5.39h1.22Z"/><path d="M159.2,172.71l-.07-.39h-.02c-.26.31-.66.48-1.12.48-.79,0-1.26-.58-1.26-1.2,0-1.02.91-1.5,2.29-1.5v-.06c0-.21-.11-.5-.71-.5-.4,0-.82.14-1.08.3l-.22-.78c.27-.15.81-.34,1.52-.34,1.3,0,1.72.77,1.72,1.69v1.36c0,.38.02.74.06.95h-1.11ZM159.06,170.87c-.64,0-1.14.14-1.14.62,0,.31.21.46.48.46.3,0,.55-.2.63-.45.02-.06.02-.14.02-.21v-.42h.01Z"/><path d="M161.2,171.65c.22.14.69.3,1.05.3s.52-.13.52-.33-.12-.3-.58-.45c-.81-.27-1.12-.71-1.11-1.17,0-.73.62-1.28,1.59-1.28.46,0,.86.1,1.1.22l-.22.84c-.18-.1-.51-.22-.85-.22-.3,0-.46.12-.46.32,0,.18.15.28.63.45.74.26,1.06.63,1.06,1.21,0,.73-.58,1.26-1.69,1.26-.51,0-.97-.11-1.26-.27l.22-.87h0Z"/><path d="M166.29,170.12c0-.51-.02-.95-.03-1.31h1.06l.06.54h.02c.29-.42.74-.63,1.3-.63.86,0,1.62.74,1.62,1.99,0,1.42-.9,2.09-1.77,2.09-.47,0-.84-.19-1.02-.45h-.02v1.94h-1.22v-4.18h0ZM167.51,171.04c0,.1,0,.18.02.26.08.33.36.58.71.58.53,0,.84-.44.84-1.1,0-.62-.28-1.1-.82-1.1-.34,0-.65.26-.73.62-.02.06-.02.14-.02.22v.54-.02Z"/><path d="M171.08,170.09c0-.58-.02-.95-.03-1.29h1.05l.04.72h.03c.2-.57.68-.81,1.06-.81.11,0,.17,0,.26.02v1.14c-.09-.02-.19-.03-.33-.03-.45,0-.75.24-.83.62-.02.08-.02.18-.02.27v1.98h-1.22v-2.62h-.01Z"/><path d="M177.91,170.71c0,1.43-1.02,2.09-2.06,2.09-1.14,0-2.02-.75-2.02-2.01s.83-2.07,2.09-2.07,2,.82,2,2h-.01ZM175.08,170.75c0,.67.28,1.18.8,1.18.47,0,.78-.47.78-1.18,0-.58-.22-1.17-.78-1.17s-.8.6-.8,1.17Z"/><path d="M178.67,170.12c0-.51-.02-.95-.03-1.31h1.06l.06.54h.02c.29-.42.74-.63,1.3-.63.86,0,1.62.74,1.62,1.99,0,1.42-.9,2.09-1.77,2.09-.47,0-.84-.19-1.02-.45h-.02v1.94h-1.22v-4.18h0ZM179.88,171.04c0,.1,0,.18.02.26.08.33.36.58.71.58.53,0,.84-.44.84-1.1,0-.62-.28-1.1-.82-1.1-.34,0-.65.26-.73.62-.02.06-.02.14-.02.22v.54-.02Z"/><path d="M184.41,171.15c.04.5.54.74,1.1.74.42,0,.75-.06,1.08-.16l.16.82c-.4.16-.89.24-1.42.24-1.33,0-2.09-.77-2.09-1.99,0-.99.62-2.09,1.98-2.09,1.26,0,1.74.98,1.74,1.95,0,.21-.02.39-.04.48h-2.52.01ZM185.84,170.32c0-.3-.13-.79-.69-.79-.51,0-.72.46-.75.79h1.44Z"/><path d="M187.7,170.09c0-.58-.02-.95-.03-1.29h1.05l.04.72h.03c.2-.57.68-.81,1.06-.81.11,0,.17,0,.26.02v1.14c-.09-.02-.19-.03-.33-.03-.45,0-.75.24-.83.62-.02.08-.02.18-.02.27v1.98h-1.22v-2.62h-.01Z"/><path d="M192.27,167.68v1.12h.87v.9h-.87v1.42c0,.47.11.69.48.69.15,0,.27-.02.36-.03v.92c-.15.06-.44.1-.78.1-.39,0-.72-.14-.91-.34-.22-.23-.34-.61-.34-1.16v-1.6h-.52v-.9h.52v-.85l1.19-.27h0Z"/><path d="M194.79,168.8l.58,1.92c.06.23.14.52.19.73h.02c.06-.21.12-.5.18-.73l.48-1.92h1.3l-.91,2.57c-.56,1.55-.94,2.17-1.38,2.57-.42.37-.87.5-1.18.54l-.26-1.03c.15-.02.34-.1.53-.21.18-.1.38-.29.5-.49.04-.06.06-.12.06-.18,0-.04,0-.1-.06-.2l-1.43-3.57h1.38Z"/><path d="M153.36,181.06c.33.17.83.34,1.35.34.56,0,.86-.23.86-.58s-.26-.53-.9-.76c-.9-.31-1.48-.81-1.48-1.59,0-.92.77-1.62,2.04-1.62.61,0,1.06.13,1.38.27l-.27.98c-.22-.1-.6-.26-1.13-.26s-.78.24-.78.52c0,.34.3.5,1,.76.95.35,1.4.85,1.4,1.61,0,.9-.7,1.67-2.17,1.67-.62,0-1.22-.16-1.53-.33l.25-1.01h-.02Z"/><path d="M158.86,176.92v5.39h-1.22v-5.39h1.22Z"/><path d="M164.85,179.56c0,1.77-1.07,2.84-2.65,2.84s-2.53-1.21-2.53-2.74c0-1.62,1.03-2.82,2.62-2.82s2.56,1.24,2.56,2.73h0ZM160.96,179.64c0,1.06.5,1.8,1.31,1.8s1.3-.78,1.3-1.83c0-.97-.46-1.8-1.3-1.8s-1.3.78-1.3,1.83h-.01Z"/><path d="M169.13,182.91v.4h-4v-.4h4Z"/><path d="M173.3,179.69c0,1.61-.65,2.71-1.98,2.71s-1.94-1.21-1.94-2.68.64-2.69,1.98-2.69,1.94,1.24,1.94,2.66ZM170.61,179.72c0,1.19.28,1.76.75,1.76s.73-.59.73-1.77-.25-1.76-.74-1.76c-.45,0-.75.57-.74,1.78h0Z"/><path d="M177.74,179.69c0,1.61-.65,2.71-1.98,2.71s-1.94-1.21-1.94-2.68.64-2.69,1.98-2.69,1.94,1.24,1.94,2.66ZM175.05,179.72c0,1.19.28,1.76.75,1.76s.73-.59.73-1.77-.25-1.76-.74-1.76c-.45,0-.75.57-.74,1.78h0Z"/><path d="M182.18,179.69c0,1.61-.65,2.71-1.98,2.71s-1.94-1.21-1.94-2.68.64-2.69,1.98-2.69,1.94,1.24,1.94,2.66ZM179.49,179.72c0,1.19.28,1.76.75,1.76s.73-.59.73-1.77-.25-1.76-.74-1.76c-.45,0-.75.57-.74,1.78h0Z"/><path d="M182.78,182.31v-.74l.67-.61c1.14-1.02,1.69-1.6,1.7-2.21,0-.42-.26-.76-.86-.76-.45,0-.84.22-1.11.43l-.34-.87c.39-.3,1-.54,1.7-.54,1.18,0,1.82.69,1.82,1.63,0,.87-.63,1.57-1.38,2.24l-.48.4v.02h1.96v1h-3.69.01Z"/><path d="M187.22,182.31v-.74l.67-.61c1.14-1.02,1.69-1.6,1.7-2.21,0-.42-.26-.76-.86-.76-.45,0-.84.22-1.11.43l-.34-.87c.39-.3,1-.54,1.7-.54,1.18,0,1.82.69,1.82,1.63,0,.87-.63,1.57-1.38,2.24l-.48.4v.02h1.96v1h-3.69.01Z"/><path d="M191.88,181.12c.22.11.71.32,1.21.32.63,0,.95-.3.95-.7,0-.51-.51-.74-1.05-.74h-.5v-.87h.47c.41,0,.93-.16.93-.6,0-.31-.26-.54-.77-.54-.42,0-.87.18-1.09.31l-.25-.88c.31-.2.94-.39,1.61-.39,1.11,0,1.73.58,1.73,1.29,0,.55-.31.98-.95,1.21v.02c.62.11,1.13.58,1.13,1.26,0,.92-.81,1.59-2.13,1.59-.67,0-1.24-.18-1.54-.37l.25-.91h0Z"/></g><g id="uuid-356b06e1-f234-428c-8981-9faddcc8063e"><path d="M249.63,90.51v2.07h2.01v-2.07h1.22v5.39h-1.22v-2.25h-2.01v2.25h-1.22v-5.39h1.22Z"/><path d="M256.11,95.89l-.07-.39h-.02c-.26.31-.66.48-1.12.48-.79,0-1.26-.58-1.26-1.2,0-1.02.91-1.5,2.29-1.5v-.06c0-.21-.11-.5-.71-.5-.4,0-.82.14-1.08.3l-.22-.78c.27-.15.81-.34,1.52-.34,1.3,0,1.72.77,1.72,1.69v1.36c0,.38.02.74.06.95h-1.11ZM255.96,94.05c-.64,0-1.14.14-1.14.62,0,.31.21.46.48.46.3,0,.55-.2.63-.45.02-.06.02-.14.02-.21v-.42h.01Z"/><path d="M258.1,94.83c.22.14.69.3,1.05.3s.52-.13.52-.33-.12-.3-.58-.45c-.81-.27-1.12-.71-1.11-1.17,0-.73.62-1.28,1.59-1.28.46,0,.86.1,1.1.22l-.22.84c-.18-.1-.51-.22-.85-.22-.29,0-.46.12-.46.32,0,.18.15.28.63.45.74.26,1.06.63,1.06,1.21,0,.73-.58,1.26-1.69,1.26-.51,0-.97-.11-1.26-.27l.22-.87h0Z"/><path d="M266.88,94.64c0,.51.02.93.03,1.25h-1.05l-.06-.55h-.02c-.15.24-.52.64-1.22.64-.79,0-1.38-.5-1.38-1.7v-2.29h1.22v2.1c0,.57.18.91.61.91.34,0,.53-.23.61-.42.03-.07.04-.17.04-.26v-2.33h1.22v2.65h0Z"/><path d="M267.86,93.23c0-.49-.02-.9-.03-1.25h1.06l.06.54h.02c.16-.25.56-.62,1.21-.62.8,0,1.4.53,1.4,1.68v2.32h-1.21v-2.17c0-.5-.18-.85-.62-.85-.34,0-.54.23-.62.46-.03.07-.05.19-.05.3v2.25h-1.22v-2.66h0Z"/><path d="M273.8,90.9c0,.34-.26.61-.66.61s-.64-.27-.63-.61c0-.35.25-.62.64-.62s.64.26.65.62ZM272.55,95.89v-3.91h1.21v3.91h-1.21Z"/><path d="M276.1,90.87v1.12h.87v.9h-.87v1.42c0,.47.11.69.48.69.15,0,.27-.02.36-.03v.92c-.15.06-.44.1-.78.1-.39,0-.72-.14-.91-.34-.22-.23-.34-.61-.34-1.16v-1.6h-.52v-.9h.52v-.85l1.19-.27h0Z"/><path d="M241.62,104.24c.33.17.83.34,1.35.34.56,0,.86-.23.86-.58s-.26-.53-.9-.76c-.9-.31-1.48-.81-1.48-1.59,0-.92.77-1.62,2.04-1.62.61,0,1.06.13,1.38.27l-.27.98c-.22-.1-.6-.26-1.13-.26s-.78.24-.78.52c0,.34.3.5,1,.76.95.35,1.4.85,1.4,1.61,0,.9-.7,1.67-2.17,1.67-.62,0-1.22-.16-1.53-.33l.25-1.01h-.02Z"/><path d="M247.12,100.11v5.39h-1.22v-5.39h1.22Z"/><path d="M253.11,102.74c0,1.77-1.07,2.84-2.65,2.84s-2.54-1.21-2.54-2.74c0-1.62,1.03-2.82,2.62-2.82s2.56,1.24,2.56,2.73h0ZM249.22,102.82c0,1.06.5,1.8,1.31,1.8s1.3-.78,1.3-1.83c0-.97-.46-1.8-1.3-1.8s-1.3.78-1.3,1.83h-.01Z"/><path d="M257.38,106.09v.4h-4v-.4h4Z"/><path d="M261.56,102.87c0,1.61-.65,2.71-1.97,2.71s-1.94-1.21-1.94-2.68.64-2.69,1.98-2.69,1.93,1.24,1.93,2.66ZM258.86,102.9c0,1.19.28,1.76.75,1.76s.73-.59.73-1.77-.25-1.76-.74-1.76c-.45,0-.75.57-.74,1.78h0Z"/><path d="M266,102.87c0,1.61-.65,2.71-1.98,2.71s-1.93-1.21-1.94-2.68c0-1.5.64-2.69,1.98-2.69s1.94,1.24,1.94,2.66ZM263.3,102.9c0,1.19.28,1.76.75,1.76s.73-.59.73-1.77-.25-1.76-.74-1.76c-.45,0-.75.57-.74,1.78h0Z"/><path d="M270.44,102.87c0,1.61-.65,2.71-1.97,2.71s-1.94-1.21-1.94-2.68.64-2.69,1.98-2.69,1.93,1.24,1.93,2.66ZM267.74,102.9c0,1.19.28,1.76.75,1.76s.73-.59.73-1.77-.25-1.76-.74-1.76c-.45,0-.75.57-.74,1.78h0Z"/><path d="M271.04,105.49v-.74l.67-.61c1.14-1.02,1.69-1.6,1.7-2.21,0-.42-.26-.76-.86-.76-.45,0-.84.22-1.11.43l-.34-.87c.39-.3,1-.54,1.7-.54,1.18,0,1.82.69,1.82,1.63,0,.87-.63,1.57-1.38,2.24l-.48.4v.02h1.96v1h-3.69.01Z"/><path d="M275.48,105.49v-.74l.67-.61c1.14-1.02,1.69-1.6,1.7-2.21,0-.42-.26-.76-.86-.76-.45,0-.84.22-1.11.43l-.34-.87c.39-.3,1-.54,1.7-.54,1.17,0,1.82.69,1.82,1.63,0,.87-.63,1.57-1.38,2.24l-.48.4v.02h1.96v1h-3.69.01Z"/><path d="M281.47,101.38h-.02l-.99.47-.2-.91,1.38-.64h1.01v5.2h-1.18v-4.12Z"/></g></g><path class="uuid-c0aca5d7-5655-46e6-a544-135bcd525530" d="M29.59,22.68h-2.54l-.48,2.46h2.86l-.15.71h-3.73l1.33-6.74h3.57l-.15.71h-2.7l-.43,2.16h2.54l-.15.7h.03Z"/><path class="uuid-c0aca5d7-5655-46e6-a544-135bcd525530" d="M32.64,19.11l-.57,2.84h3.22l.56-2.84h.87l-1.34,6.74h-.86l.62-3.17h-3.22l-.62,3.17h-.86l1.34-6.74h.86Z"/><path class="uuid-c0aca5d7-5655-46e6-a544-135bcd525530" d="M38.26,19.21c.43-.09,1.01-.15,1.52-.15.7,0,1.3.16,1.67.49.32.27.52.66.52,1.12,0,.98-.78,1.71-1.66,1.95v.02c.48.16.72.66.77,1.36.07.94.12,1.58.22,1.85h-.89c-.04-.14-.11-.85-.17-1.63-.05-.92-.4-1.31-1.1-1.31h-.77l-.57,2.94h-.86l1.32-6.64h0ZM38.51,22.27h.77c1.09,0,1.79-.69,1.79-1.5,0-.72-.56-1.04-1.35-1.04-.34,0-.57.03-.73.07l-.49,2.47h.01Z"/></g></g></svg>