<?xml version="1.0" encoding="UTF-8"?><svg id="uuid-1865e7fe-fcc4-46f2-895f-c20495bd5435" xmlns="http://www.w3.org/2000/svg" viewBox="0 0 404.43 264.26"><defs><style>.uuid-47adc873-d508-4057-b494-3c791257ccb2{opacity:.75;}.uuid-ebcc2b02-49e7-4cc4-8c5a-e6631712056e{fill:none;}.uuid-ebcc2b02-49e7-4cc4-8c5a-e6631712056e,.uuid-76cbb72e-90e2-4cce-9b77-7d39e118b843{stroke:#f7741e;stroke-miterlimit:10;}.uuid-9d569e61-7f43-413e-bbfa-4a9363262402,.uuid-76cbb72e-90e2-4cce-9b77-7d39e118b843{fill:#fff;}.uuid-d1cd08e4-c953-4b76-a1ea-cdf7ebff82fc{fill:#231f20;}.uuid-2392c122-5595-4613-9449-e2c8fcc1bb78{fill:#faf4ea;isolation:isolate;opacity:.25;}.uuid-28eae933-42b6-4bd2-b253-53655914ab2d{fill:#f7741e;}</style></defs><g id="uuid-7b30084e-fb22-4c17-ae5f-8b2e511f78e4"><g id="uuid-fc48e938-0f4f-4413-8c61-51a3bb4f4b5d"><rect class="uuid-2392c122-5595-4613-9449-e2c8fcc1bb78" width="404.43" height="264.26" rx="46.34" ry="46.34"/><g id="uuid-e1e40178-c09f-42fc-bc5e-dc17c5a8cf03"><path d="M343.61,116.96v2.16h2.09v-2.16h1.27v5.62h-1.27v-2.35h-2.09v2.35h-1.27v-5.62h1.27Z"/><path d="M350.36,122.57l-.08-.41h-.02c-.27.32-.68.5-1.17.5-.82,0-1.32-.6-1.32-1.25,0-1.06.95-1.57,2.39-1.56v-.06c0-.22-.12-.52-.74-.52-.42,0-.86.14-1.12.31l-.23-.82c.28-.16.84-.36,1.58-.36,1.36,0,1.79.8,1.79,1.76v1.42c0,.39.02.77.06.99h-1.14ZM350.21,120.65c-.67,0-1.18.15-1.18.64,0,.33.22.48.5.48.32,0,.58-.21.66-.47.02-.07.03-.14.03-.22v-.44h-.01Z"/><path d="M352.44,121.46c.23.14.72.31,1.09.31s.54-.13.54-.34-.12-.31-.6-.47c-.84-.28-1.17-.74-1.16-1.22,0-.76.65-1.33,1.66-1.33.47,0,.9.11,1.15.23l-.22.88c-.18-.1-.53-.23-.88-.23-.31,0-.48.12-.48.33,0,.19.16.29.66.47.78.27,1.1.66,1.11,1.26,0,.76-.6,1.32-1.77,1.32-.53,0-1.01-.12-1.32-.28l.22-.91v-.02Z"/><path d="M357.74,119.86c0-.53-.02-.99-.03-1.37h1.1l.06.57h.02c.3-.43.77-.66,1.36-.66.89,0,1.69.77,1.69,2.07,0,1.48-.94,2.18-1.85,2.18-.49,0-.88-.2-1.06-.47h-.02v2.02h-1.27v-4.36.02ZM359.01,120.82c0,.1,0,.19.03.27.08.34.38.6.74.6.55,0,.88-.46.88-1.15,0-.65-.29-1.14-.86-1.14-.36,0-.67.27-.76.64-.02.07-.03.15-.03.23v.56h0Z"/><path d="M362.73,119.84c0-.6-.02-.99-.03-1.34h1.09l.04.75h.03c.21-.59.71-.84,1.1-.84.12,0,.17,0,.27.02v1.19c-.09-.02-.2-.03-.34-.03-.47,0-.78.25-.87.64-.02.08-.03.18-.03.28v2.07h-1.27v-2.73h.01Z"/><path d="M369.85,120.49c0,1.49-1.06,2.17-2.15,2.17-1.19,0-2.11-.78-2.11-2.1s.87-2.16,2.17-2.16,2.08.86,2.08,2.08h.01ZM366.9,120.53c0,.7.29,1.22.83,1.22.49,0,.81-.49.81-1.22,0-.61-.23-1.22-.81-1.22-.61,0-.83.62-.83,1.22Z"/><path d="M370.64,119.86c0-.53-.02-.99-.03-1.37h1.1l.06.57h.02c.3-.43.77-.66,1.36-.66.89,0,1.69.77,1.69,2.07,0,1.48-.94,2.18-1.85,2.18-.49,0-.88-.2-1.06-.47h-.02v2.02h-1.27v-4.36.02ZM371.91,120.82c0,.1,0,.19.03.27.08.34.38.6.74.6.55,0,.88-.46.88-1.15,0-.65-.29-1.14-.86-1.14-.36,0-.67.27-.76.64-.02.07-.03.15-.03.23v.56h0Z"/><path d="M376.62,120.94c.04.52.56.77,1.15.77.43,0,.78-.06,1.12-.17l.17.86c-.42.17-.92.25-1.47.25-1.38,0-2.17-.8-2.17-2.07,0-1.03.64-2.17,2.06-2.17,1.32,0,1.82,1.02,1.82,2.03,0,.22-.03.41-.04.5h-2.64ZM378.11,120.07c0-.31-.13-.82-.72-.82-.53,0-.75.48-.78.82h1.5Z"/><path d="M380.05,119.84c0-.6-.02-.99-.03-1.34h1.09l.04.75h.03c.21-.59.71-.84,1.1-.84.12,0,.17,0,.27.02v1.19c-.09-.02-.2-.03-.34-.03-.47,0-.78.25-.87.64-.02.08-.03.18-.03.28v2.07h-1.27v-2.73h.01Z"/><path d="M384.81,117.33v1.17h.91v.93h-.91v1.48c0,.49.12.72.5.72.16,0,.28-.02.38-.03v.96c-.16.07-.46.11-.82.11-.41,0-.75-.14-.95-.35-.23-.24-.35-.63-.35-1.21v-1.67h-.54v-.93h.54v-.88l1.24-.28v-.02Z"/><path d="M387.44,118.5l.61,2c.07.24.15.54.2.76h.03c.06-.22.12-.52.18-.76l.5-2h1.36l-.95,2.68c-.58,1.62-.97,2.27-1.43,2.67-.44.38-.91.52-1.22.56l-.27-1.07c.16-.02.36-.1.55-.22.19-.1.4-.3.53-.51.04-.06.07-.12.07-.18,0-.04,0-.11-.06-.21l-1.49-3.72h1.41-.02Z"/><path d="M344.27,131.27c.34.17.87.35,1.41.35.58,0,.89-.24.89-.61s-.27-.55-.94-.79c-.93-.32-1.54-.84-1.54-1.66,0-.96.8-1.69,2.12-1.69.63,0,1.1.13,1.43.28l-.28,1.02c-.23-.11-.62-.27-1.17-.27s-.82.25-.82.54c0,.36.32.52,1.04.79.99.37,1.46.88,1.46,1.67,0,.94-.72,1.74-2.27,1.74-.64,0-1.28-.17-1.59-.34l.26-1.05v.02Z"/><path d="M350,126.96v5.62h-1.27v-5.62h1.27Z"/><path d="M356.25,129.71c0,1.84-1.12,2.96-2.76,2.96s-2.64-1.26-2.64-2.86c0-1.68,1.07-2.94,2.73-2.94s2.67,1.29,2.67,2.84ZM352.19,129.78c0,1.1.52,1.87,1.37,1.87s1.35-.82,1.35-1.91c0-1.01-.48-1.87-1.36-1.87s-1.36.82-1.36,1.91Z"/><path d="M360.7,133.2v.42h-4.17v-.42h4.17Z"/><path d="M365.05,129.84c0,1.67-.67,2.82-2.06,2.82s-2.02-1.26-2.02-2.79.67-2.81,2.07-2.81,2.02,1.29,2.02,2.77h-.01ZM362.24,129.87c0,1.24.29,1.83.78,1.83s.76-.62.76-1.85-.26-1.83-.77-1.83c-.47,0-.78.59-.78,1.85h.01Z"/><path d="M369.67,129.84c0,1.67-.67,2.82-2.06,2.82s-2.02-1.26-2.02-2.79.67-2.81,2.07-2.81,2.02,1.29,2.02,2.77h-.01ZM366.87,129.87c0,1.24.29,1.83.78,1.83s.76-.62.76-1.85-.26-1.83-.77-1.83c-.47,0-.78.59-.78,1.85h.01Z"/><path d="M374.3,129.84c0,1.67-.67,2.82-2.06,2.82s-2.02-1.26-2.02-2.79.67-2.81,2.07-2.81,2.02,1.29,2.02,2.77h-.01ZM371.49,129.87c0,1.24.29,1.83.78,1.83s.76-.62.76-1.85-.26-1.83-.77-1.83c-.47,0-.78.59-.78,1.85h.01Z"/><path d="M374.93,132.57v-.77l.7-.63c1.18-1.06,1.76-1.67,1.77-2.3,0-.44-.27-.79-.89-.79-.47,0-.88.23-1.16.45l-.36-.91c.41-.31,1.04-.56,1.77-.56,1.22,0,1.9.72,1.9,1.7,0,.91-.66,1.63-1.44,2.33l-.5.42v.02h2.04v1.04h-3.84.01Z"/><path d="M379.55,132.57v-.77l.7-.63c1.18-1.06,1.76-1.67,1.77-2.3,0-.44-.27-.79-.89-.79-.47,0-.88.23-1.16.45l-.36-.91c.41-.31,1.04-.56,1.77-.56,1.22,0,1.9.72,1.9,1.7,0,.91-.66,1.63-1.44,2.33l-.5.42v.02h2.04v1.04h-3.84.01Z"/><path d="M384.4,131.33c.22.12.74.33,1.26.33.66,0,.99-.32.99-.72,0-.53-.53-.77-1.09-.77h-.52v-.91h.49c.42,0,.97-.17.97-.62,0-.32-.27-.57-.8-.57-.44,0-.91.19-1.13.33l-.26-.92c.33-.21.97-.41,1.67-.41,1.16,0,1.8.61,1.8,1.35,0,.57-.32,1.02-.99,1.26v.02c.65.12,1.17.61,1.17,1.32,0,.96-.84,1.66-2.22,1.66-.7,0-1.29-.18-1.61-.38l.26-.95v-.02Z"/></g><g id="uuid-33ba1d18-5cdd-4235-b01e-8a349454bc94"><path d="M279.08,211.01v2.16h2.09v-2.16h1.27v5.62h-1.27v-2.35h-2.09v2.35h-1.27v-5.62h1.27Z"/><path d="M285.82,216.62l-.08-.41h-.02c-.27.32-.68.5-1.17.5-.82,0-1.32-.6-1.32-1.25,0-1.06.95-1.57,2.39-1.56v-.06c0-.22-.12-.52-.74-.52-.42,0-.86.14-1.12.31l-.23-.82c.28-.16.84-.36,1.58-.36,1.36,0,1.79.8,1.79,1.76v1.42c0,.39.02.77.06.99h-1.14ZM285.67,214.7c-.67,0-1.18.15-1.18.64,0,.33.22.48.5.48.32,0,.58-.21.66-.47.02-.07.03-.14.03-.22v-.44h-.01Z"/><path d="M287.9,215.52c.23.14.72.31,1.09.31s.54-.13.54-.34-.12-.31-.6-.47c-.84-.28-1.17-.74-1.16-1.22,0-.76.65-1.33,1.66-1.33.47,0,.9.11,1.15.23l-.22.88c-.18-.1-.53-.23-.88-.23-.31,0-.48.12-.48.33,0,.19.16.29.66.47.78.27,1.1.66,1.11,1.26,0,.76-.6,1.32-1.77,1.32-.53,0-1.01-.12-1.32-.28l.22-.91v-.02Z"/><path d="M293.2,213.92c0-.53-.02-.99-.03-1.37h1.1l.06.57h.02c.3-.43.77-.66,1.36-.66.89,0,1.69.77,1.69,2.07,0,1.48-.94,2.18-1.85,2.18-.49,0-.88-.2-1.06-.47h-.02v2.02h-1.27v-4.36.02ZM294.47,214.87c0,.1,0,.19.03.27.08.34.38.6.74.6.55,0,.88-.46.88-1.15,0-.65-.29-1.14-.86-1.14-.36,0-.67.27-.76.64-.02.07-.03.15-.03.23v.56h0Z"/><path d="M298.19,213.89c0-.6-.02-.99-.03-1.34h1.09l.04.75h.03c.21-.59.71-.84,1.1-.84.12,0,.17,0,.27.02v1.19c-.09-.02-.2-.03-.34-.03-.47,0-.78.25-.87.64-.02.08-.03.18-.03.28v2.07h-1.27v-2.73h.01Z"/><path d="M305.32,214.54c0,1.49-1.06,2.17-2.15,2.17-1.19,0-2.11-.78-2.11-2.1s.87-2.16,2.17-2.16,2.08.86,2.08,2.08h.01ZM302.37,214.58c0,.7.29,1.22.83,1.22.49,0,.81-.49.81-1.22,0-.61-.23-1.22-.81-1.22-.61,0-.83.62-.83,1.22Z"/><path d="M306.1,213.92c0-.53-.02-.99-.03-1.37h1.1l.06.57h.02c.3-.43.77-.66,1.36-.66.89,0,1.69.77,1.69,2.07,0,1.48-.94,2.18-1.85,2.18-.49,0-.88-.2-1.06-.47h-.02v2.02h-1.27v-4.36.02ZM307.37,214.87c0,.1,0,.19.03.27.08.34.38.6.74.6.55,0,.88-.46.88-1.15,0-.65-.29-1.14-.86-1.14-.36,0-.67.27-.76.64-.02.07-.03.15-.03.23v.56h0Z"/><path d="M312.08,214.99c.04.52.56.77,1.15.77.43,0,.78-.06,1.12-.17l.17.86c-.42.17-.92.25-1.47.25-1.38,0-2.17-.8-2.17-2.07,0-1.03.64-2.17,2.06-2.17,1.32,0,1.82,1.02,1.82,2.03,0,.22-.03.41-.04.5h-2.64ZM313.58,214.12c0-.31-.13-.82-.72-.82-.53,0-.75.48-.78.82h1.5Z"/><path d="M315.51,213.89c0-.6-.02-.99-.03-1.34h1.09l.04.75h.03c.21-.59.71-.84,1.1-.84.12,0,.17,0,.27.02v1.19c-.09-.02-.2-.03-.34-.03-.47,0-.78.25-.87.64-.02.08-.03.18-.03.28v2.07h-1.27v-2.73h.01Z"/><path d="M320.27,211.38v1.17h.91v.93h-.91v1.48c0,.49.12.72.5.72.16,0,.28-.02.38-.03v.96c-.16.07-.46.11-.82.11-.41,0-.75-.14-.95-.35-.23-.24-.35-.63-.35-1.21v-1.67h-.54v-.93h.54v-.88l1.24-.28v-.02Z"/><path d="M322.9,212.55l.61,2c.07.24.15.54.2.76h.03c.06-.22.12-.52.18-.76l.5-2h1.36l-.95,2.68c-.58,1.62-.97,2.27-1.43,2.67-.44.38-.91.52-1.22.56l-.27-1.07c.16-.02.36-.1.55-.22.19-.1.4-.3.53-.51.04-.06.07-.12.07-.18,0-.04,0-.11-.06-.21l-1.49-3.72h1.41-.02Z"/><path d="M279.73,225.32c.34.17.87.35,1.41.35.58,0,.89-.24.89-.61s-.27-.55-.94-.79c-.93-.32-1.54-.84-1.54-1.66,0-.96.8-1.69,2.12-1.69.63,0,1.1.13,1.43.28l-.28,1.02c-.23-.11-.62-.27-1.17-.27s-.82.25-.82.54c0,.36.32.52,1.04.79.99.37,1.46.88,1.46,1.67,0,.94-.72,1.74-2.27,1.74-.64,0-1.28-.17-1.59-.34l.26-1.05v.02Z"/><path d="M285.46,221.01v5.62h-1.27v-5.62h1.27Z"/><path d="M291.71,223.76c0,1.84-1.12,2.96-2.76,2.96s-2.64-1.26-2.64-2.86c0-1.68,1.07-2.94,2.73-2.94s2.67,1.29,2.67,2.84ZM287.65,223.84c0,1.1.52,1.87,1.37,1.87s1.35-.82,1.35-1.91c0-1.01-.48-1.87-1.36-1.87s-1.36.82-1.36,1.91Z"/><path d="M296.16,227.25v.42h-4.17v-.42h4.17Z"/><path d="M300.51,223.89c0,1.67-.67,2.82-2.06,2.82s-2.02-1.26-2.02-2.79.67-2.81,2.07-2.81,2.02,1.29,2.02,2.77h-.01ZM297.7,223.93c0,1.24.29,1.83.78,1.83s.76-.62.76-1.85-.26-1.83-.77-1.83c-.47,0-.78.59-.78,1.85h.01Z"/><path d="M305.14,223.89c0,1.67-.67,2.82-2.06,2.82s-2.02-1.26-2.02-2.79.67-2.81,2.07-2.81,2.02,1.29,2.02,2.77h-.01ZM302.33,223.93c0,1.24.29,1.83.78,1.83s.76-.62.76-1.85-.26-1.83-.77-1.83c-.47,0-.78.59-.78,1.85h.01Z"/><path d="M309.76,223.89c0,1.67-.67,2.82-2.06,2.82s-2.02-1.26-2.02-2.79.67-2.81,2.07-2.81,2.02,1.29,2.02,2.77h-.01ZM306.95,223.93c0,1.24.29,1.83.78,1.83s.76-.62.76-1.85-.26-1.83-.77-1.83c-.47,0-.78.59-.78,1.85h.01Z"/><path d="M310.39,226.63v-.77l.7-.63c1.18-1.06,1.76-1.67,1.77-2.3,0-.44-.27-.79-.89-.79-.47,0-.88.23-1.16.45l-.36-.91c.41-.31,1.04-.56,1.77-.56,1.22,0,1.9.72,1.9,1.7,0,.91-.66,1.63-1.44,2.33l-.5.42v.02h2.04v1.04h-3.84.01Z"/><path d="M315.01,226.63v-.77l.7-.63c1.18-1.06,1.76-1.67,1.77-2.3,0-.44-.27-.79-.89-.79-.47,0-.88.23-1.16.45l-.36-.91c.41-.31,1.04-.56,1.77-.56,1.22,0,1.9.72,1.9,1.7,0,.91-.66,1.63-1.44,2.33l-.5.42v.02h2.04v1.04h-3.84.01Z"/><path d="M319.87,225.39c.22.12.74.33,1.26.33.66,0,.99-.32.99-.72,0-.53-.53-.77-1.09-.77h-.52v-.91h.49c.42,0,.97-.17.97-.62,0-.32-.27-.57-.8-.57-.44,0-.91.19-1.13.33l-.26-.92c.33-.21.97-.41,1.67-.41,1.16,0,1.8.61,1.8,1.35,0,.57-.32,1.02-.99,1.26v.02c.65.12,1.17.61,1.17,1.32,0,.96-.84,1.66-2.22,1.66-.7,0-1.29-.18-1.61-.38l.26-.95v-.02Z"/></g><g id="uuid-48c267ef-7fb0-4f74-82e5-f0e88a69f628"><path d="M205.89,153.7v2.16h2.09v-2.16h1.27v5.62h-1.27v-2.35h-2.09v2.35h-1.27v-5.62h1.27Z"/><path d="M212.63,159.32l-.08-.41h-.02c-.27.32-.68.5-1.17.5-.82,0-1.32-.6-1.32-1.25,0-1.06.95-1.57,2.39-1.56v-.06c0-.22-.12-.52-.74-.52-.42,0-.86.14-1.12.31l-.23-.82c.28-.16.84-.36,1.58-.36,1.36,0,1.79.8,1.79,1.76v1.42c0,.39.02.77.06.99h-1.14ZM212.48,157.39c-.67,0-1.18.15-1.18.64,0,.33.22.48.5.48.32,0,.58-.21.66-.47.02-.07.03-.14.03-.22v-.44h-.01Z"/><path d="M214.71,158.21c.23.14.72.31,1.09.31s.54-.13.54-.34-.12-.31-.6-.47c-.84-.28-1.17-.74-1.16-1.22,0-.76.65-1.33,1.66-1.33.47,0,.9.11,1.15.23l-.22.88c-.18-.1-.53-.23-.88-.23-.31,0-.48.12-.48.33,0,.19.16.29.66.47.78.27,1.1.66,1.11,1.26,0,.76-.6,1.32-1.77,1.32-.53,0-1.01-.12-1.32-.28l.22-.91v-.02Z"/><path d="M220.01,156.61c0-.53-.02-.99-.03-1.37h1.1l.06.57h.02c.3-.43.77-.66,1.36-.66.89,0,1.69.77,1.69,2.07,0,1.48-.94,2.18-1.85,2.18-.49,0-.88-.2-1.06-.47h-.02v2.02h-1.27v-4.36.02ZM221.28,157.57c0,.1,0,.19.03.27.08.34.38.6.74.6.55,0,.88-.46.88-1.15,0-.65-.29-1.14-.86-1.14-.36,0-.67.27-.76.64-.02.07-.03.15-.03.23v.56h0Z"/><path d="M225,156.59c0-.6-.02-.99-.03-1.34h1.09l.04.75h.03c.21-.59.71-.84,1.1-.84.12,0,.17,0,.27.02v1.19c-.09-.02-.2-.03-.34-.03-.47,0-.78.25-.87.64-.02.08-.03.18-.03.28v2.07h-1.27v-2.73h.01Z"/><path d="M232.12,157.24c0,1.49-1.06,2.17-2.15,2.17-1.19,0-2.11-.78-2.11-2.1s.87-2.16,2.17-2.16,2.08.86,2.08,2.08h.01ZM229.18,157.28c0,.7.29,1.22.83,1.22.49,0,.81-.49.81-1.22,0-.61-.23-1.22-.81-1.22-.61,0-.83.62-.83,1.22Z"/><path d="M232.91,156.61c0-.53-.02-.99-.03-1.37h1.1l.06.57h.02c.3-.43.77-.66,1.36-.66.89,0,1.69.77,1.69,2.07,0,1.48-.94,2.18-1.85,2.18-.49,0-.88-.2-1.06-.47h-.02v2.02h-1.27v-4.36.02ZM234.18,157.57c0,.1,0,.19.03.27.08.34.38.6.74.6.55,0,.88-.46.88-1.15,0-.65-.29-1.14-.86-1.14-.36,0-.67.27-.76.64-.02.07-.03.15-.03.23v.56h0Z"/><path d="M238.89,157.69c.04.52.56.77,1.15.77.43,0,.78-.06,1.12-.17l.17.86c-.42.17-.92.25-1.47.25-1.38,0-2.17-.8-2.17-2.07,0-1.03.64-2.17,2.06-2.17,1.32,0,1.82,1.02,1.82,2.03,0,.22-.03.41-.04.5h-2.64ZM240.39,156.82c0-.31-.13-.82-.72-.82-.53,0-.75.48-.78.82h1.5Z"/><path d="M242.32,156.59c0-.6-.02-.99-.03-1.34h1.09l.04.75h.03c.21-.59.71-.84,1.1-.84.12,0,.17,0,.27.02v1.19c-.09-.02-.2-.03-.34-.03-.47,0-.78.25-.87.64-.02.08-.03.18-.03.28v2.07h-1.27v-2.73h.01Z"/><path d="M247.08,154.08v1.17h.91v.93h-.91v1.48c0,.49.12.72.5.72.16,0,.28-.02.37-.03v.96c-.16.07-.46.11-.82.11-.41,0-.75-.14-.95-.35-.23-.24-.35-.63-.35-1.21v-1.67h-.54v-.93h.54v-.88l1.24-.28v-.02Z"/><path d="M249.71,155.24l.61,2c.07.24.15.54.2.76h.02c.06-.22.12-.52.18-.76l.5-2h1.36l-.95,2.68c-.58,1.62-.97,2.27-1.43,2.67-.44.38-.91.52-1.22.56l-.27-1.07c.16-.02.36-.1.55-.22.19-.1.4-.3.53-.51.04-.06.07-.12.07-.18,0-.04,0-.11-.06-.21l-1.49-3.72h1.41-.01Z"/><path d="M206.54,168.01c.34.17.87.35,1.41.35.58,0,.89-.24.89-.61s-.27-.55-.94-.79c-.93-.32-1.54-.84-1.54-1.66,0-.96.8-1.69,2.12-1.69.63,0,1.1.13,1.43.28l-.28,1.02c-.23-.11-.62-.27-1.17-.27s-.82.25-.82.54c0,.36.32.52,1.04.79.99.37,1.46.88,1.46,1.67,0,.94-.72,1.74-2.27,1.74-.64,0-1.28-.17-1.59-.34l.26-1.05v.02Z"/><path d="M212.27,163.71v5.62h-1.27v-5.62h1.27Z"/><path d="M218.52,166.46c0,1.84-1.12,2.96-2.76,2.96s-2.64-1.26-2.64-2.86c0-1.68,1.07-2.94,2.73-2.94s2.67,1.29,2.67,2.84ZM214.46,166.53c0,1.1.52,1.87,1.37,1.87s1.35-.82,1.35-1.91c0-1.01-.48-1.87-1.36-1.87s-1.36.82-1.36,1.91Z"/><path d="M222.97,169.95v.42h-4.17v-.42h4.17Z"/><path d="M227.32,166.59c0,1.67-.67,2.82-2.06,2.82s-2.02-1.26-2.02-2.79.67-2.81,2.07-2.81,2.02,1.29,2.02,2.77h-.01ZM224.51,166.62c0,1.24.29,1.83.78,1.83s.76-.62.76-1.85-.26-1.83-.77-1.83c-.47,0-.78.59-.78,1.85h.01Z"/><path d="M231.94,166.59c0,1.67-.67,2.82-2.06,2.82s-2.02-1.26-2.02-2.79.67-2.81,2.07-2.81,2.02,1.29,2.02,2.77h-.01ZM229.14,166.62c0,1.24.29,1.83.78,1.83s.76-.62.76-1.85-.26-1.83-.77-1.83c-.47,0-.78.59-.78,1.85h.01Z"/><path d="M236.57,166.59c0,1.67-.67,2.82-2.06,2.82s-2.02-1.26-2.02-2.79.67-2.81,2.07-2.81,2.02,1.29,2.02,2.77h-.01ZM233.76,166.62c0,1.24.29,1.83.78,1.83s.76-.62.76-1.85-.26-1.83-.77-1.83c-.47,0-.78.59-.78,1.85h.01Z"/><path d="M237.2,169.32v-.77l.7-.63c1.18-1.06,1.76-1.67,1.77-2.3,0-.44-.27-.79-.89-.79-.47,0-.88.23-1.16.45l-.36-.91c.41-.31,1.04-.56,1.77-.56,1.22,0,1.9.72,1.9,1.7,0,.91-.66,1.63-1.44,2.33l-.5.42v.02h2.04v1.04h-3.84.01Z"/><path d="M241.82,169.32v-.77l.7-.63c1.18-1.06,1.76-1.67,1.77-2.3,0-.44-.27-.79-.89-.79-.47,0-.88.23-1.16.45l-.36-.91c.41-.31,1.04-.56,1.77-.56,1.22,0,1.9.72,1.9,1.7,0,.91-.66,1.63-1.44,2.33l-.5.42v.02h2.04v1.04h-3.84.01Z"/><path d="M246.68,168.08c.22.12.74.33,1.26.33.66,0,.99-.32.99-.72,0-.53-.53-.77-1.09-.77h-.52v-.91h.49c.42,0,.97-.17.97-.62,0-.32-.27-.57-.8-.57-.44,0-.91.19-1.13.33l-.26-.92c.33-.21.97-.41,1.67-.41,1.16,0,1.8.61,1.8,1.35,0,.57-.32,1.02-.99,1.26v.02c.65.12,1.17.61,1.17,1.32,0,.96-.84,1.66-2.22,1.66-.7,0-1.29-.18-1.61-.38l.26-.95v-.02Z"/></g><g id="uuid-9aef04d5-1d2a-43bf-8f9a-ff6a9d8c3998"><path d="M144.99,50.5v2.16h2.09v-2.16h1.27v5.62h-1.27v-2.35h-2.09v2.35h-1.27v-5.62h1.27Z"/><path d="M151.74,56.12l-.07-.41h-.03c-.27.32-.68.5-1.17.5-.83,0-1.32-.6-1.32-1.25,0-1.06.95-1.57,2.39-1.56v-.06c0-.22-.12-.52-.74-.52-.42,0-.86.14-1.12.31l-.23-.82c.28-.16.84-.36,1.58-.36,1.36,0,1.79.8,1.79,1.76v1.42c0,.39.02.77.06.99h-1.14ZM151.59,54.19c-.67,0-1.18.15-1.18.64,0,.33.22.48.5.48.32,0,.57-.21.66-.47.02-.07.02-.14.02-.22v-.44h0Z"/><path d="M153.81,55.01c.23.14.72.31,1.09.31s.54-.13.54-.34-.12-.31-.6-.47c-.84-.28-1.17-.74-1.16-1.22,0-.76.65-1.33,1.66-1.33.48,0,.9.11,1.15.23l-.23.88c-.18-.1-.53-.23-.88-.23-.31,0-.48.12-.48.33,0,.19.16.29.66.47.77.27,1.1.66,1.11,1.26,0,.76-.6,1.32-1.77,1.32-.53,0-1.01-.12-1.32-.28l.23-.91v-.02Z"/><path d="M159.09,56.12c.02-.27.03-.76.03-1.22v-4.7h1.27v2.32h.02c.24-.35.67-.57,1.23-.57.97,0,1.69.81,1.68,2.06,0,1.47-.93,2.2-1.87,2.2-.47,0-.93-.18-1.22-.66h-.02l-.05.57h-1.08.01ZM160.39,54.38c0,.08,0,.16.03.23.08.34.38.6.74.6.54,0,.88-.42.88-1.15,0-.63-.28-1.13-.88-1.13-.34,0-.66.26-.74.62-.02.07-.03.15-.03.23v.6h0Z"/><path d="M166.42,56.12l-.08-.41h-.02c-.27.32-.68.5-1.17.5-.82,0-1.32-.6-1.32-1.25,0-1.06.95-1.57,2.39-1.56v-.06c0-.22-.12-.52-.74-.52-.42,0-.86.14-1.12.31l-.23-.82c.28-.16.84-.36,1.58-.36,1.36,0,1.79.8,1.79,1.76v1.42c0,.39.02.77.06.99h-1.14ZM166.27,54.19c-.67,0-1.18.15-1.18.64,0,.33.22.48.5.48.32,0,.58-.21.66-.47.02-.07.03-.14.03-.22v-.44h-.01Z"/><path d="M168.5,55.01c.23.14.72.31,1.09.31s.54-.13.54-.34-.12-.31-.6-.47c-.84-.28-1.17-.74-1.16-1.22,0-.76.65-1.33,1.66-1.33.47,0,.9.11,1.15.23l-.22.88c-.18-.1-.53-.23-.88-.23-.31,0-.48.12-.48.33,0,.19.16.29.66.47.78.27,1.1.66,1.11,1.26,0,.76-.6,1.32-1.77,1.32-.53,0-1.01-.12-1.32-.28l.22-.91v-.02Z"/><path d="M173.43,50.91c0,.35-.27.63-.68.63s-.67-.28-.66-.63c0-.37.26-.64.67-.64s.67.27.67.64ZM172.13,56.12v-4.07h1.27v4.07h-1.27Z"/><path d="M174.4,55.01c.23.14.72.31,1.09.31s.54-.13.54-.34-.12-.31-.6-.47c-.84-.28-1.17-.74-1.16-1.22,0-.76.65-1.33,1.66-1.33.47,0,.9.11,1.15.23l-.22.88c-.18-.1-.53-.23-.88-.23-.31,0-.48.12-.48.33,0,.19.16.29.66.47.78.27,1.1.66,1.11,1.26,0,.76-.6,1.32-1.77,1.32-.53,0-1.01-.12-1.32-.28l.22-.91v-.02Z"/><path d="M138.55,64.81c.34.17.87.35,1.41.35.58,0,.89-.24.89-.61s-.27-.55-.94-.79c-.93-.32-1.54-.84-1.54-1.66,0-.96.8-1.69,2.12-1.69.63,0,1.1.13,1.43.28l-.28,1.02c-.23-.11-.62-.27-1.17-.27s-.82.25-.82.54c0,.36.32.52,1.04.79.99.37,1.46.88,1.46,1.67,0,.94-.72,1.74-2.27,1.74-.64,0-1.27-.17-1.59-.34l.26-1.05v.02Z"/><path d="M144.28,60.5v5.62h-1.27v-5.62h1.27Z"/><path d="M150.52,63.25c0,1.84-1.12,2.96-2.76,2.96s-2.64-1.26-2.64-2.86c0-1.68,1.07-2.94,2.73-2.94s2.67,1.29,2.67,2.84ZM146.46,63.33c0,1.1.52,1.87,1.37,1.87s1.35-.82,1.35-1.91c0-1.01-.48-1.87-1.36-1.87s-1.36.82-1.36,1.91Z"/><path d="M154.97,66.74v.42h-4.17v-.42h4.17Z"/><path d="M159.33,63.39c0,1.67-.67,2.82-2.06,2.82s-2.02-1.26-2.02-2.79.67-2.81,2.07-2.81,2.02,1.29,2.02,2.77h-.01ZM156.52,63.42c0,1.24.29,1.83.78,1.83s.76-.62.76-1.85-.26-1.83-.77-1.83c-.47,0-.78.59-.77,1.85Z"/><path d="M163.95,63.39c0,1.67-.67,2.82-2.06,2.82s-2.02-1.26-2.02-2.79.67-2.81,2.07-2.81,2.02,1.29,2.02,2.77h-.01ZM161.14,63.42c0,1.24.29,1.83.78,1.83s.76-.62.76-1.85-.26-1.83-.77-1.83c-.47,0-.78.59-.78,1.85h.01Z"/><path d="M168.58,63.39c0,1.67-.67,2.82-2.06,2.82s-2.02-1.26-2.02-2.79.67-2.81,2.07-2.81,2.02,1.29,2.02,2.77h-.01ZM165.77,63.42c0,1.24.29,1.83.78,1.83s.76-.62.76-1.85-.26-1.83-.77-1.83c-.47,0-.78.59-.78,1.85h.01Z"/><path d="M172.66,61.6c-.14,0-.29,0-.49.02-1.12.09-1.62.67-1.77,1.3h.02c.27-.27.64-.43,1.15-.43.91,0,1.67.64,1.67,1.77s-.83,1.96-2,1.96c-1.44,0-2.15-1.07-2.15-2.37,0-1.02.38-1.87.96-2.41.54-.49,1.24-.76,2.09-.8.23-.02.38-.02.51,0v.97h.01ZM171.97,64.32c0-.5-.27-.93-.81-.93-.34,0-.62.21-.75.48-.03.07-.05.17-.05.32.03.58.3,1.09.88,1.09.45,0,.73-.41.73-.96h0Z"/><path d="M176.07,66.12v-1.29h-2.4v-.82l2.05-3.3h1.55v3.17h.65v.95h-.65v1.29h-1.2ZM176.07,63.88v-1.2c0-.32.02-.66.04-1.01h-.03c-.17.35-.32.67-.5,1.01l-.72,1.18v.02h1.22-.01Z"/><path d="M180.07,61.83h-.02l-1.03.49-.21-.95,1.43-.67h1.05v5.42h-1.22v-4.29Z"/></g><g id="uuid-96eb54d4-148d-4c8a-9274-91aa678e0c27"><path d="M64.98,120.78v2.16h2.09v-2.16h1.27v5.62h-1.27v-2.35h-2.09v2.35h-1.27v-5.62h1.27Z"/><path d="M71.73,126.39l-.07-.41h-.03c-.27.32-.68.5-1.17.5-.82,0-1.32-.6-1.32-1.25,0-1.06.95-1.57,2.39-1.56v-.06c0-.22-.12-.52-.74-.52-.42,0-.86.14-1.12.31l-.23-.82c.28-.16.84-.36,1.58-.36,1.36,0,1.79.8,1.79,1.76v1.42c0,.39.02.77.06.99h-1.14ZM71.58,124.47c-.67,0-1.18.15-1.18.64,0,.33.22.48.5.48.32,0,.57-.21.66-.47.02-.07.02-.14.02-.22v-.44h0Z"/><path d="M73.8,125.29c.23.14.72.31,1.09.31s.54-.13.54-.34-.12-.31-.6-.47c-.84-.28-1.17-.74-1.16-1.22,0-.76.65-1.33,1.66-1.33.48,0,.9.11,1.15.23l-.23.88c-.18-.1-.53-.23-.88-.23-.31,0-.48.12-.48.33,0,.19.16.29.66.47.77.27,1.1.66,1.11,1.26,0,.76-.6,1.32-1.77,1.32-.53,0-1.01-.12-1.32-.28l.23-.91v-.02Z"/><path d="M82.95,125.09c0,.53.02.97.03,1.31h-1.1l-.06-.57h-.02c-.16.25-.54.67-1.27.67-.82,0-1.43-.52-1.43-1.77v-2.39h1.27v2.19c0,.59.19.95.63.95.35,0,.55-.24.63-.44.03-.08.04-.18.04-.27v-2.42h1.27v2.77-.03Z"/><path d="M83.97,123.62c0-.51-.02-.94-.03-1.3h1.1l.06.56h.02c.17-.26.58-.65,1.26-.65.83,0,1.46.55,1.46,1.75v2.42h-1.27v-2.26c0-.52-.18-.88-.64-.88-.35,0-.56.24-.64.48-.03.08-.05.2-.05.32v2.35h-1.27v-2.79Z"/><path d="M90.16,121.19c0,.35-.27.63-.68.63s-.67-.28-.66-.63c0-.37.26-.64.67-.64s.67.27.67.64ZM88.86,126.39v-4.07h1.27v4.07h-1.27Z"/><path d="M92.56,121.15v1.17h.91v.93h-.91v1.48c0,.49.12.72.5.72.16,0,.28-.02.38-.03v.96c-.16.07-.46.11-.82.11-.41,0-.75-.14-.95-.35-.23-.24-.35-.63-.35-1.21v-1.67h-.54v-.93h.54v-.88l1.24-.28v-.02Z"/><path d="M56.63,135.09c.34.17.87.35,1.41.35.58,0,.89-.24.89-.61s-.27-.55-.94-.79c-.93-.32-1.54-.84-1.54-1.66,0-.96.8-1.69,2.12-1.69.63,0,1.1.13,1.43.28l-.28,1.02c-.23-.11-.62-.27-1.17-.27s-.82.25-.82.54c0,.36.32.52,1.04.79.99.37,1.46.88,1.46,1.67,0,.94-.72,1.74-2.27,1.74-.64,0-1.27-.17-1.59-.34l.26-1.05v.02Z"/><path d="M62.36,130.78v5.62h-1.27v-5.62h1.27Z"/><path d="M68.6,133.53c0,1.84-1.12,2.96-2.76,2.96s-2.64-1.26-2.64-2.86c0-1.68,1.07-2.94,2.73-2.94s2.67,1.29,2.67,2.84ZM64.54,133.61c0,1.1.52,1.87,1.37,1.87s1.35-.82,1.35-1.91c0-1.01-.48-1.87-1.36-1.87s-1.36.82-1.36,1.91Z"/><path d="M73.05,137.02v.42h-4.17v-.42h4.17Z"/><path d="M77.41,133.66c0,1.67-.67,2.82-2.06,2.82s-2.02-1.26-2.02-2.79.67-2.81,2.07-2.81,2.02,1.29,2.02,2.77h-.01ZM74.6,133.7c0,1.24.29,1.83.78,1.83s.76-.62.76-1.85-.26-1.83-.77-1.83c-.47,0-.78.59-.77,1.85Z"/><path d="M82.03,133.66c0,1.67-.67,2.82-2.06,2.82s-2.02-1.26-2.02-2.79.67-2.81,2.07-2.81,2.02,1.29,2.02,2.77h-.01ZM79.22,133.7c0,1.24.29,1.83.78,1.83s.76-.62.76-1.85-.26-1.83-.77-1.83c-.47,0-.78.59-.77,1.85Z"/><path d="M86.66,133.66c0,1.67-.67,2.82-2.06,2.82s-2.02-1.26-2.02-2.79.67-2.81,2.07-2.81,2.02,1.29,2.02,2.77h-.01ZM83.85,133.7c0,1.24.29,1.83.78,1.83s.76-.62.76-1.85-.26-1.83-.77-1.83c-.47,0-.78.59-.77,1.85Z"/><path d="M87.28,136.4v-.77l.7-.63c1.18-1.06,1.76-1.67,1.77-2.3,0-.44-.27-.79-.89-.79-.47,0-.88.23-1.16.45l-.36-.91c.41-.31,1.04-.56,1.77-.56,1.23,0,1.9.72,1.9,1.7,0,.91-.66,1.63-1.44,2.33l-.5.42v.02h2.04v1.04h-3.84.01Z"/><path d="M91.91,136.4v-.77l.7-.63c1.18-1.06,1.76-1.67,1.77-2.3,0-.44-.27-.79-.89-.79-.47,0-.88.23-1.16.45l-.36-.91c.41-.31,1.04-.56,1.77-.56,1.23,0,1.9.72,1.9,1.7,0,.91-.66,1.63-1.44,2.33l-.5.42v.02h2.04v1.04h-3.84.01Z"/><path d="M98.15,132.11h-.02l-1.03.49-.21-.95,1.43-.67h1.05v5.42h-1.22v-4.29Z"/></g><g id="uuid-aa1c0c89-8a5c-48a0-8bb4-f62d97f99340"><path d="M266.78,83.35v2.16h2.09v-2.16h1.27v5.62h-1.27v-2.35h-2.09v2.35h-1.27v-5.62h1.27Z"/><path d="M273.52,88.97l-.08-.41h-.02c-.27.32-.68.5-1.17.5-.82,0-1.32-.6-1.32-1.25,0-1.06.95-1.57,2.39-1.56v-.06c0-.22-.12-.52-.74-.52-.42,0-.86.14-1.12.31l-.23-.82c.28-.16.84-.36,1.58-.36,1.36,0,1.79.8,1.79,1.76v1.42c0,.39.02.77.06.99h-1.14ZM273.38,87.04c-.67,0-1.18.15-1.18.64,0,.33.22.48.5.48.32,0,.58-.21.66-.47.02-.07.03-.14.03-.22v-.44h-.01Z"/><path d="M275.6,87.86c.23.14.72.31,1.09.31s.54-.13.54-.34-.12-.31-.6-.47c-.84-.28-1.17-.74-1.16-1.22,0-.76.65-1.33,1.66-1.33.47,0,.9.11,1.15.23l-.22.88c-.18-.1-.53-.23-.88-.23-.31,0-.48.12-.48.33,0,.19.16.29.66.47.78.27,1.1.66,1.11,1.26,0,.76-.6,1.32-1.77,1.32-.53,0-1.01-.12-1.32-.28l.22-.91v-.02Z"/><path d="M280.91,86.26c0-.53-.02-.99-.03-1.37h1.1l.06.57h.02c.3-.43.77-.66,1.36-.66.89,0,1.69.77,1.69,2.07,0,1.48-.94,2.18-1.85,2.18-.49,0-.88-.2-1.06-.47h-.02v2.02h-1.27v-4.36.02ZM282.18,87.22c0,.1,0,.19.03.27.08.34.38.6.74.6.55,0,.88-.46.88-1.15,0-.65-.29-1.14-.86-1.14-.36,0-.67.27-.76.64-.02.07-.03.15-.03.23v.56h0Z"/><path d="M285.9,86.24c0-.6-.02-.99-.03-1.34h1.09l.04.75h.03c.21-.59.71-.84,1.1-.84.12,0,.17,0,.27.02v1.19c-.09-.02-.2-.03-.34-.03-.47,0-.78.25-.87.64-.02.08-.03.18-.03.28v2.07h-1.27v-2.73h.01Z"/><path d="M293.02,86.88c0,1.49-1.06,2.17-2.15,2.17-1.19,0-2.11-.78-2.11-2.1s.87-2.16,2.17-2.16,2.08.86,2.08,2.08h.01ZM290.07,86.93c0,.7.29,1.22.83,1.22.49,0,.81-.49.81-1.22,0-.61-.23-1.22-.81-1.22-.61,0-.83.62-.83,1.22Z"/><path d="M293.81,86.26c0-.53-.02-.99-.03-1.37h1.1l.06.57h.02c.3-.43.77-.66,1.36-.66.89,0,1.69.77,1.69,2.07,0,1.48-.94,2.18-1.85,2.18-.49,0-.88-.2-1.06-.47h-.02v2.02h-1.27v-4.36.02ZM295.07,87.22c0,.1,0,.19.03.27.08.34.38.6.74.6.55,0,.88-.46.88-1.15,0-.65-.29-1.14-.86-1.14-.36,0-.67.27-.76.64-.02.07-.03.15-.03.23v.56h0Z"/><path d="M299.79,87.33c.04.52.56.77,1.15.77.43,0,.78-.06,1.12-.17l.17.86c-.42.17-.92.25-1.47.25-1.38,0-2.17-.8-2.17-2.07,0-1.03.64-2.17,2.06-2.17,1.32,0,1.82,1.02,1.82,2.03,0,.22-.03.41-.04.5h-2.64ZM301.28,86.47c0-.31-.13-.82-.72-.82-.53,0-.75.48-.78.82h1.5Z"/><path d="M303.22,86.24c0-.6-.02-.99-.03-1.34h1.09l.04.75h.03c.21-.59.71-.84,1.1-.84.12,0,.17,0,.27.02v1.19c-.09-.02-.2-.03-.34-.03-.47,0-.78.25-.87.64-.02.08-.03.18-.03.28v2.07h-1.27v-2.73h.01Z"/><path d="M307.98,83.73v1.17h.91v.93h-.91v1.48c0,.49.12.72.5.72.16,0,.28-.02.37-.03v.96c-.16.07-.46.11-.82.11-.41,0-.75-.14-.95-.35-.23-.24-.35-.63-.35-1.21v-1.67h-.54v-.93h.54v-.88l1.24-.28v-.02Z"/><path d="M310.61,84.89l.61,2c.07.24.15.54.2.76h.02c.06-.22.12-.52.18-.76l.5-2h1.36l-.95,2.68c-.58,1.62-.97,2.27-1.43,2.67-.44.38-.91.52-1.22.56l-.27-1.07c.16-.02.36-.1.55-.22.19-.1.4-.3.53-.51.04-.06.07-.12.07-.18,0-.04,0-.11-.06-.21l-1.49-3.72h1.41-.01Z"/><path d="M267.44,97.66c.34.17.87.35,1.41.35.58,0,.89-.24.89-.61s-.27-.55-.94-.79c-.93-.32-1.54-.84-1.54-1.66,0-.96.8-1.69,2.12-1.69.63,0,1.1.13,1.43.28l-.28,1.02c-.23-.11-.62-.27-1.17-.27s-.82.25-.82.54c0,.36.32.52,1.04.79.99.37,1.46.88,1.46,1.67,0,.94-.72,1.74-2.27,1.74-.64,0-1.28-.17-1.59-.34l.26-1.05v.02Z"/><path d="M273.17,93.35v5.62h-1.27v-5.62h1.27Z"/><path d="M279.41,96.1c0,1.84-1.12,2.96-2.76,2.96s-2.64-1.26-2.64-2.86c0-1.68,1.07-2.94,2.73-2.94s2.67,1.29,2.67,2.84ZM275.36,96.18c0,1.1.52,1.87,1.37,1.87s1.35-.82,1.35-1.91c0-1.01-.48-1.87-1.36-1.87s-1.36.82-1.36,1.91Z"/><path d="M283.86,99.6v.42h-4.17v-.42h4.17Z"/><path d="M288.21,96.24c0,1.67-.67,2.82-2.06,2.82s-2.02-1.26-2.02-2.79.67-2.81,2.07-2.81,2.02,1.29,2.02,2.77h-.01ZM285.41,96.27c0,1.24.29,1.83.78,1.83s.76-.62.76-1.85-.26-1.83-.77-1.83c-.47,0-.78.59-.78,1.85h.01Z"/><path d="M292.84,96.24c0,1.67-.67,2.82-2.06,2.82s-2.02-1.26-2.02-2.79.67-2.81,2.07-2.81,2.02,1.29,2.02,2.77h-.01ZM290.03,96.27c0,1.24.29,1.83.78,1.83s.76-.62.76-1.85-.26-1.83-.77-1.83c-.47,0-.78.59-.78,1.85h.01Z"/><path d="M297.47,96.24c0,1.67-.67,2.82-2.06,2.82s-2.02-1.26-2.02-2.79.67-2.81,2.07-2.81,2.02,1.29,2.02,2.77h-.01ZM294.66,96.27c0,1.24.29,1.83.78,1.83s.76-.62.76-1.85-.26-1.83-.77-1.83c-.47,0-.78.59-.78,1.85h.01Z"/><path d="M298.09,98.97v-.77l.7-.63c1.18-1.06,1.76-1.67,1.77-2.3,0-.44-.27-.79-.89-.79-.47,0-.88.23-1.16.45l-.36-.91c.41-.31,1.04-.56,1.77-.56,1.22,0,1.9.72,1.9,1.7,0,.91-.66,1.63-1.44,2.33l-.5.42v.02h2.04v1.04h-3.84.01Z"/><path d="M302.72,98.97v-.77l.7-.63c1.18-1.06,1.76-1.67,1.77-2.3,0-.44-.27-.79-.89-.79-.47,0-.88.23-1.16.45l-.36-.91c.41-.31,1.04-.56,1.77-.56,1.22,0,1.9.72,1.9,1.7,0,.91-.66,1.63-1.44,2.33l-.5.42v.02h2.04v1.04h-3.84.01Z"/><path d="M307.57,97.73c.22.12.74.33,1.26.33.66,0,.99-.32.99-.72,0-.53-.53-.77-1.09-.77h-.52v-.91h.49c.42,0,.97-.17.97-.62,0-.32-.27-.57-.8-.57-.44,0-.91.19-1.13.33l-.26-.92c.33-.21.97-.41,1.67-.41,1.16,0,1.8.61,1.8,1.35,0,.57-.32,1.02-.99,1.26v.02c.65.12,1.17.61,1.17,1.32,0,.96-.84,1.66-2.22,1.66-.7,0-1.29-.18-1.61-.38l.26-.95v-.02Z"/></g><line class="uuid-ebcc2b02-49e7-4cc4-8c5a-e6631712056e" x1="313.8" y1="191.72" x2="259.02" y2="217.26"/><polygon class="uuid-28eae933-42b6-4bd2-b253-53655914ab2d" points="260 212.72 260.14 216.74 263.13 219.43 253.61 219.79 260 212.72"/><line class="uuid-ebcc2b02-49e7-4cc4-8c5a-e6631712056e" x1="129.33" y1="124.44" x2="62.59" y2="155.55"/><polygon class="uuid-28eae933-42b6-4bd2-b253-53655914ab2d" points="63.57 151.01 63.71 155.03 66.7 157.72 57.18 158.07 63.57 151.01"/><line class="uuid-ebcc2b02-49e7-4cc4-8c5a-e6631712056e" x1="195.4" y1="51.19" x2="165.37" y2="91.75"/><polygon class="uuid-28eae933-42b6-4bd2-b253-53655914ab2d" points="164.06 87.29 166.1 90.76 170.01 91.7 161.81 96.55 164.06 87.29"/><line class="uuid-ebcc2b02-49e7-4cc4-8c5a-e6631712056e" x1="319.82" y1="164.99" x2="228.8" y2="56.65"/><polygon class="uuid-28eae933-42b6-4bd2-b253-53655914ab2d" points="233.44 56.42 229.6 57.6 227.77 61.18 224.96 52.08 233.44 56.42"/><line class="uuid-ebcc2b02-49e7-4cc4-8c5a-e6631712056e" x1="312.92" y1="174.51" x2="176.04" y2="124.66"/><polygon class="uuid-28eae933-42b6-4bd2-b253-53655914ab2d" points="179.94 122.14 177.2 125.09 177.41 129.1 170.43 122.62 179.94 122.14"/><line class="uuid-ebcc2b02-49e7-4cc4-8c5a-e6631712056e" x1="336.14" y1="160.16" x2="341.43" y2="99.97"/><polygon class="uuid-28eae933-42b6-4bd2-b253-53655914ab2d" points="344.87 103.09 341.32 101.2 337.49 102.44 341.95 94.02 344.87 103.09"/><g id="uuid-a8c37d43-3f88-4570-abdb-2266b1d605dc"><ellipse class="uuid-76cbb72e-90e2-4cce-9b77-7d39e118b843" cx="233.13" cy="229.36" rx="22.15" ry="21.75"/><path d="M215.19,226.19h1.27v4.55h2.23v1.07h-3.51v-5.62h.01Z"/><path d="M221.75,231.81l-.08-.41h-.02c-.27.32-.68.5-1.17.5-.82,0-1.32-.6-1.32-1.25,0-1.06.95-1.57,2.39-1.56v-.06c0-.22-.12-.52-.74-.52-.42,0-.86.14-1.12.31l-.23-.82c.28-.16.84-.36,1.58-.36,1.36,0,1.79.8,1.79,1.76v1.42c0,.39.02.77.06.99h-1.14ZM221.6,229.88c-.67,0-1.18.15-1.18.64,0,.33.22.48.5.48.32,0,.58-.21.66-.47.02-.07.03-.14.03-.22v-.44h-.01Z"/><path d="M223.84,229.03c0-.51-.02-.94-.03-1.3h1.1l.06.56h.03c.17-.26.58-.65,1.26-.65.83,0,1.46.55,1.46,1.75v2.42h-1.27v-2.26c0-.52-.18-.88-.64-.88-.35,0-.56.24-.64.48-.03.08-.05.2-.05.32v2.35h-1.27v-2.79Z"/><path d="M232.61,227.73c-.02.26-.03.6-.03,1.21v2.27c0,.78-.16,1.42-.62,1.83-.45.38-1.06.5-1.66.5-.53,0-1.1-.11-1.47-.32l.25-.96c.26.15.71.31,1.18.31.6,0,1.06-.33,1.06-1.07v-.27h-.02c-.24.34-.63.53-1.1.53-1.01,0-1.72-.82-1.72-1.99,0-1.31.85-2.14,1.85-2.14.56,0,.91.24,1.12.57h.02l.04-.48h1.1,0ZM231.31,229.39c0-.08,0-.17-.03-.23-.09-.33-.33-.56-.68-.56-.46,0-.83.42-.83,1.16,0,.61.3,1.08.83,1.08.33,0,.58-.22.67-.52.03-.09.04-.23.04-.33v-.6h0Z"/><path d="M237.44,230.5c0,.53.02.97.03,1.31h-1.1l-.06-.57h-.03c-.16.25-.54.67-1.27.67-.83,0-1.43-.52-1.43-1.77v-2.39h1.28v2.19c0,.59.19.95.63.95.35,0,.55-.24.63-.44.03-.08.04-.18.04-.27v-2.42h1.27v2.77-.03Z"/><path d="M240.77,231.81l-.08-.41h-.02c-.27.32-.68.5-1.17.5-.82,0-1.32-.6-1.32-1.25,0-1.06.95-1.57,2.39-1.56v-.06c0-.22-.12-.52-.74-.52-.42,0-.86.14-1.12.31l-.23-.82c.28-.16.84-.36,1.58-.36,1.36,0,1.79.8,1.79,1.76v1.42c0,.39.02.77.06.99h-1.14ZM240.62,229.88c-.67,0-1.18.15-1.18.64,0,.33.22.48.5.48.32,0,.58-.21.66-.47.02-.07.03-.14.03-.22v-.44h-.01Z"/><path d="M246.75,227.73c-.02.26-.03.6-.03,1.21v2.27c0,.78-.16,1.42-.62,1.83-.45.38-1.06.5-1.66.5-.53,0-1.1-.11-1.47-.32l.25-.96c.26.15.71.31,1.18.31.6,0,1.06-.33,1.06-1.07v-.27h-.02c-.24.34-.63.53-1.1.53-1.01,0-1.72-.82-1.72-1.99,0-1.31.85-2.14,1.85-2.14.56,0,.91.24,1.12.57h.02l.04-.48h1.1,0ZM245.45,229.39c0-.08,0-.17-.03-.23-.09-.33-.33-.56-.68-.56-.46,0-.83.42-.83,1.16,0,.61.3,1.08.83,1.08.33,0,.58-.22.67-.52.03-.09.04-.23.04-.33v-.6h0Z"/><path d="M248.71,230.17c.04.52.56.77,1.15.77.43,0,.78-.06,1.12-.17l.17.86c-.42.17-.92.25-1.47.25-1.38,0-2.17-.8-2.17-2.07,0-1.03.64-2.17,2.06-2.17,1.32,0,1.82,1.02,1.82,2.03,0,.22-.03.41-.04.5h-2.64ZM250.2,229.31c0-.31-.13-.82-.72-.82-.53,0-.75.48-.78.82h1.5Z"/></g><g id="uuid-b9400ebc-18e4-41c1-a7bb-91b6701855be"><ellipse class="uuid-76cbb72e-90e2-4cce-9b77-7d39e118b843" cx="149.25" cy="115.1" rx="22.15" ry="21.75"/><g class="uuid-47adc873-d508-4057-b494-3c791257ccb2"><path class="uuid-9d569e61-7f43-413e-bbfa-4a9363262402" d="M131.5,113.97c-.78,0-1.42-.63-1.42-1.42v-3.13h-.09c-.78,0-1.42-.63-1.42-1.42v-1.07c0-.78.63-1.42,1.42-1.42h4.32c.78,0,1.42.63,1.42,1.42v1.07c0,.78-.63,1.42-1.42,1.42h-.12v3.13c0,.78-.63,1.42-1.42,1.42h-1.27Z"/><path class="uuid-9d569e61-7f43-413e-bbfa-4a9363262402" d="M134.75,113.97c-.78,0-1.42-.63-1.42-1.42v-4.07c0-.16.03-.31.07-.46-.08-.23-.11-.47-.11-.71-.01-.49.19-1.01.57-1.4.39-.4.93-.62,1.51-.62,1.17,0,2.07.87,2.09,2.03,0,.25-.04.49-.12.71.05.14.08.3.08.46v4.07c0,.78-.63,1.42-1.42,1.42h-1.27.02Z"/><path class="uuid-9d569e61-7f43-413e-bbfa-4a9363262402" d="M141.96,113.97c-.22,0-.43-.05-.62-.14-.19.09-.4.14-.62.14h-1.23c-.22,0-.43-.05-.61-.14-.19.09-.39.14-.61.14h-1.23c-.78,0-1.42-.63-1.42-1.42v-2.77c0-.48-.02-.89-.03-1.23-.02-.39.12-.76.39-1.04.27-.28.64-.44,1.02-.44h1.07c.13,0,.26.02.38.05.29-.09.61-.14.94-.14.43,0,.84.09,1.19.26.38-.18.8-.26,1.24-.26,1.39,0,2.79.98,2.79,3.18v2.4c0,.78-.63,1.42-1.42,1.42h-1.23,0Z"/><path class="uuid-9d569e61-7f43-413e-bbfa-4a9363262402" d="M146.15,114.05c-2.15,0-3.59-1.4-3.59-3.49,0-1.74,1.22-3.59,3.48-3.59,1.9,0,3.23,1.42,3.23,3.45,0,.36-.04.65-.06.75-.04.22-.13.42-.26.59l.07.35c.13.67-.23,1.33-.87,1.59-.58.23-1.26.35-2,.35h0Z"/><path class="uuid-9d569e61-7f43-413e-bbfa-4a9363262402" d="M151.37,114.05c-.74,0-1.45-.16-1.99-.46-.57-.31-.86-.96-.7-1.59l.23-.91c.02-.1.06-.19.1-.28-.24-.48-.27-.92-.27-1.13,0-1.54,1.32-2.73,3.07-2.73.65,0,1.29.14,1.78.38.6.3.91.97.74,1.62l-.22.87c.33.48.44,1.01.44,1.45,0,1.34-1,2.75-3.18,2.75v.03Z"/><path class="uuid-9d569e61-7f43-413e-bbfa-4a9363262402" d="M153.91,113.97c-.78,0-1.42-.63-1.42-1.42v-4.07c0-.16.03-.31.08-.46-.08-.23-.11-.46-.11-.71-.01-.49.19-1.02.57-1.41.39-.4.93-.62,1.51-.62,1.17,0,2.07.87,2.09,2.03,0,.25-.04.49-.12.71.05.14.08.3.08.46v4.07c0,.78-.63,1.42-1.42,1.42h-1.27,0Z"/><path class="uuid-9d569e61-7f43-413e-bbfa-4a9363262402" d="M158.79,113.97c-.24,0-.47-.06-.67-.17-.2.11-.43.17-.67.17h-1.27c-.78,0-1.42-.63-1.42-1.42v-2.77c0-.48-.02-.89-.03-1.23-.02-.39.12-.76.39-1.04.27-.28.64-.44,1.02-.44h1.1c.14,0,.27.02.4.06.28-.09.6-.15.94-.15,1.43,0,2.88.98,2.88,3.17v2.42c0,.78-.63,1.42-1.42,1.42h-1.27l.02-.02Z"/><path class="uuid-9d569e61-7f43-413e-bbfa-4a9363262402" d="M163,114.05c-2.1,0-3.57-1.44-3.57-3.5s1.58-3.58,3.75-3.58c.51,0,1.04.09,1.46.25.66.25,1.03.94.89,1.62l-.2.94c-.06.27-.19.51-.38.7.23.21.38.5.43.81l.15.93c.1.63-.24,1.26-.82,1.52-.44.19-1.06.31-1.71.31h0Z"/><path class="uuid-9d569e61-7f43-413e-bbfa-4a9363262402" d="M166.68,114.05c-2.15,0-3.59-1.4-3.59-3.49,0-1.74,1.22-3.59,3.48-3.59,1.9,0,3.23,1.42,3.23,3.45,0,.36-.05.65-.06.75-.04.22-.13.42-.25.59l.07.35c.13.67-.23,1.33-.86,1.58-.58.23-1.26.35-2,.35h-.02Z"/><path class="uuid-9d569e61-7f43-413e-bbfa-4a9363262402" d="M120.3,123.97c-.78,0-1.42-.63-1.42-1.42v-4.07c0-.16.03-.31.07-.46-.08-.23-.11-.47-.11-.71-.01-.49.19-1.01.57-1.4.39-.4.93-.62,1.51-.62,1.17,0,2.07.87,2.09,2.03,0,.25-.04.49-.12.71.05.14.08.3.08.46v4.07c0,.78-.63,1.42-1.42,1.42h-1.27.02Z"/><path class="uuid-9d569e61-7f43-413e-bbfa-4a9363262402" d="M125.19,123.97c-.24,0-.47-.06-.67-.17-.2.11-.43.17-.67.17h-1.27c-.78,0-1.42-.63-1.42-1.42v-2.77c0-.48-.02-.89-.03-1.23-.02-.39.12-.76.39-1.04.27-.28.64-.44,1.02-.44h1.1c.14,0,.27.02.4.06.28-.09.6-.15.94-.15,1.43,0,2.88.98,2.88,3.17v2.42c0,.78-.63,1.42-1.42,1.42h-1.27l.02-.02Z"/><path class="uuid-9d569e61-7f43-413e-bbfa-4a9363262402" d="M127.47,123.97c-.78,0-1.42-.63-1.42-1.42v-4.07c0-.16.03-.31.08-.46-.08-.23-.11-.46-.11-.71-.01-.49.19-1.02.57-1.41.39-.4.93-.62,1.51-.62,1.17,0,2.07.87,2.09,2.03,0,.25-.04.49-.12.71.05.14.08.3.08.46v4.07c0,.78-.63,1.42-1.42,1.42h-1.27,0Z"/><path class="uuid-9d569e61-7f43-413e-bbfa-4a9363262402" d="M131.23,124.05c-.77,0-1.49-.29-1.97-.79-.5-.52-.74-1.23-.74-2.19v-.55c-.33-.26-.54-.66-.54-1.11v-.93c0-.46.22-.87.56-1.13.1-.55.52-1,1.08-1.13l1.24-.28c.1-.02.21-.04.32-.04.32,0,.63.11.88.31.29.24.48.58.52.95.54.2.92.72.92,1.33v.93c0,.44-.2.83-.52,1.09.3.27.48.65.48,1.05v.96c.01.58-.34,1.11-.88,1.33-.35.14-.8.21-1.35.21h0Z"/><path class="uuid-9d569e61-7f43-413e-bbfa-4a9363262402" d="M132.81,123.97c-.78,0-1.42-.63-1.42-1.42v-4.07c0-.16.03-.31.08-.46-.08-.23-.11-.46-.11-.71-.01-.49.19-1.02.57-1.41.39-.4.93-.62,1.51-.62,1.17,0,2.07.87,2.09,2.03,0,.25-.04.49-.12.71.05.14.08.3.08.46v4.07c0,.78-.63,1.42-1.42,1.42h-1.27,0Z"/><path class="uuid-9d569e61-7f43-413e-bbfa-4a9363262402" d="M136.15,124.06c-1.53,0-2.73-1.17-2.73-2.67,0-.55.16-1.13.52-1.64l-.18-.62c-.18-.63.1-1.31.67-1.63.29-.16,1.09-.54,2.27-.54,1.95,0,3.21,1.25,3.21,3.18v1.42c0,.43.02.67.03.73.08.41-.03.84-.3,1.17-.27.32-.67.51-1.09.51h-1.14c-.12,0-.23-.02-.35-.04-.29.09-.6.13-.92.13h.01Z"/><rect class="uuid-9d569e61-7f43-413e-bbfa-4a9363262402" x="138.08" y="115.22" width="4.1" height="8.75" rx="1.42" ry="1.42"/><path class="uuid-9d569e61-7f43-413e-bbfa-4a9363262402" d="M144.98,124.06c-1.8,0-3.16-1.51-3.16-3.51,0-1.05.35-1.99,1.01-2.66.52-.52,1.18-.84,1.9-.91v-.35c0-.78.63-1.42,1.42-1.42h1.27c.78,0,1.42.63,1.42,1.42v4.7c0,.43.02.88.03,1.13.02.39-.11.77-.38,1.06-.27.28-.64.45-1.03.45h-1.12c-.14,0-.27-.02-.4-.06-.3.1-.62.15-.95.15h-.01Z"/><path class="uuid-9d569e61-7f43-413e-bbfa-4a9363262402" d="M148.44,123.97c-.78,0-1.42-.63-1.42-1.42v-4.07c0-.16.03-.31.08-.46-.08-.23-.11-.46-.11-.71-.01-.49.19-1.02.57-1.41.39-.4.93-.62,1.51-.62,1.17,0,2.07.87,2.09,2.03,0,.25-.04.49-.12.71.05.14.08.3.08.46v4.07c0,.78-.63,1.42-1.42,1.42h-1.27,0Z"/><path class="uuid-9d569e61-7f43-413e-bbfa-4a9363262402" d="M151.78,124.06c-1.53,0-2.73-1.17-2.73-2.67,0-.55.16-1.13.52-1.64l-.18-.62c-.18-.63.1-1.31.67-1.63.29-.16,1.09-.54,2.27-.54,1.95,0,3.21,1.25,3.21,3.18v1.42c0,.43.02.67.03.73.08.41-.03.84-.3,1.17-.27.32-.67.51-1.09.51h-1.14c-.12,0-.23-.02-.35-.04-.29.09-.6.13-.92.13h.01Z"/><path class="uuid-9d569e61-7f43-413e-bbfa-4a9363262402" d="M156.71,125.71c-.82,0-1.61-.18-2.17-.5-.56-.32-.83-.97-.67-1.59,0,0,.25-.96.25-.97-.41-.57-.65-1.31-.65-2.12,0-2.03,1.4-3.56,3.27-3.56.31,0,.6.04.87.12.1-.02.2-.03.3-.03h1.1c.39,0,.77.16,1.03.45.27.29.41.67.38,1.06-.02.24-.03.56-.03,1.12v2.27c0,1.29-.36,2.24-1.09,2.89-.68.58-1.54.86-2.6.86h0Z"/><path class="uuid-9d569e61-7f43-413e-bbfa-4a9363262402" d="M162.6,123.97c-.24,0-.47-.06-.67-.17-.2.11-.43.17-.67.17h-1.27c-.78,0-1.42-.63-1.42-1.42v-2.77c0-.48-.02-.89-.03-1.23-.02-.39.12-.76.39-1.04.27-.28.64-.44,1.02-.44h1.1c.14,0,.27.02.4.06.28-.09.6-.15.94-.15,1.43,0,2.88.98,2.88,3.17v2.42c0,.78-.63,1.42-1.42,1.42h-1.27l.02-.02Z"/><path class="uuid-9d569e61-7f43-413e-bbfa-4a9363262402" d="M166.76,124.06c-2.04,0-3.52-1.48-3.52-3.52s1.48-3.58,3.59-3.58,3.5,1.47,3.5,3.5c0,2.36-1.79,3.59-3.57,3.59h0Z"/><path class="uuid-9d569e61-7f43-413e-bbfa-4a9363262402" d="M170.78,124.05c-.74,0-1.45-.16-1.99-.45-.57-.31-.86-.96-.7-1.59l.22-.91c.02-.1.06-.19.1-.28-.24-.48-.27-.92-.27-1.13,0-1.54,1.32-2.72,3.08-2.72.65,0,1.3.14,1.78.38.6.3.91.97.74,1.62l-.22.87c.33.48.44,1.01.44,1.45,0,1.33-1,2.75-3.18,2.75h0Z"/><path class="uuid-9d569e61-7f43-413e-bbfa-4a9363262402" d="M173.32,123.97c-.78,0-1.42-.63-1.42-1.42v-4.07c0-.16.03-.31.08-.46-.08-.22-.11-.46-.11-.71-.01-.5.19-1.02.57-1.41.39-.4.93-.62,1.51-.62,1.17,0,2.06.87,2.09,2.03,0,.25-.04.49-.12.71.05.14.08.3.08.46v4.07c0,.78-.63,1.42-1.42,1.42h-1.27,0Z"/><path class="uuid-9d569e61-7f43-413e-bbfa-4a9363262402" d="M176.68,124.05c-.74,0-1.45-.16-1.99-.45-.57-.31-.86-.96-.7-1.59l.22-.91c.02-.1.06-.19.1-.28-.24-.48-.27-.92-.27-1.13,0-1.54,1.32-2.72,3.08-2.72.65,0,1.3.14,1.78.38.6.3.91.97.74,1.62l-.22.87c.33.48.44,1.01.44,1.45,0,1.33-1,2.75-3.18,2.75h0Z"/></g><path d="M131.5,108h-1.51v-1.07h4.32v1.07h-1.53v4.55h-1.27v-4.55h-.01Z"/><path d="M136.06,107.34c0,.35-.27.63-.68.63s-.67-.28-.66-.63c0-.37.26-.64.67-.64s.67.27.67.64ZM134.75,112.55v-4.07h1.27v4.07h-1.27Z"/><path d="M137.04,109.78c0-.51-.02-.94-.03-1.3h1.07l.06.55h.02c.18-.26.53-.64,1.23-.64.52,0,.94.27,1.12.69h.02c.15-.21.33-.38.52-.49.23-.13.47-.2.77-.2.78,0,1.37.55,1.37,1.77v2.4h-1.23v-2.22c0-.59-.19-.93-.6-.93-.29,0-.5.2-.58.44-.03.09-.05.22-.05.32v2.38h-1.23v-2.28c0-.52-.18-.87-.58-.87-.33,0-.52.25-.59.46-.04.1-.05.22-.05.32v2.37h-1.23v-2.77h-.01Z"/><path d="M145.18,110.92c.04.52.56.77,1.15.77.43,0,.78-.06,1.12-.17l.17.86c-.42.17-.92.25-1.47.25-1.38,0-2.17-.8-2.17-2.07,0-1.03.64-2.17,2.06-2.17,1.32,0,1.82,1.02,1.82,2.03,0,.22-.02.41-.04.5h-2.64ZM146.67,110.05c0-.31-.13-.82-.72-.82-.53,0-.75.48-.78.82h1.5Z"/><path d="M150.28,111.44c.23.14.72.31,1.09.31s.54-.13.54-.34-.12-.31-.6-.47c-.84-.28-1.17-.74-1.16-1.22,0-.76.65-1.33,1.66-1.33.48,0,.9.11,1.15.23l-.23.88c-.18-.1-.53-.23-.88-.23-.31,0-.48.12-.48.33,0,.19.16.29.66.47.77.27,1.1.66,1.11,1.26,0,.76-.6,1.32-1.77,1.32-.53,0-1.01-.12-1.32-.28l.23-.91v-.02Z"/><path d="M155.21,107.34c0,.35-.27.63-.68.63s-.67-.28-.66-.63c0-.37.26-.64.67-.64s.67.27.67.64ZM153.91,112.55v-4.07h1.27v4.07h-1.27Z"/><path d="M156.19,109.78c0-.51-.02-.94-.03-1.3h1.1l.06.56h.02c.17-.26.58-.65,1.26-.65.83,0,1.46.55,1.46,1.75v2.42h-1.27v-2.26c0-.52-.18-.88-.64-.88-.35,0-.56.24-.64.48-.03.08-.05.2-.05.32v2.35h-1.27v-2.79Z"/><path d="M164.13,112.45c-.22.1-.65.18-1.13.18-1.32,0-2.16-.8-2.16-2.08,0-1.19.82-2.17,2.33-2.17.33,0,.7.06.97.16l-.2.94c-.15-.07-.38-.12-.71-.12-.67,0-1.1.48-1.09,1.14,0,.75.5,1.14,1.12,1.14.3,0,.53-.05.72-.12l.15.93h0Z"/><path d="M165.72,110.92c.04.52.56.77,1.15.77.43,0,.78-.06,1.12-.17l.17.86c-.42.17-.92.25-1.47.25-1.38,0-2.17-.8-2.17-2.07,0-1.03.64-2.17,2.06-2.17,1.32,0,1.82,1.02,1.82,2.03,0,.22-.03.41-.04.5h-2.64ZM167.21,110.05c0-.31-.13-.82-.72-.82-.53,0-.75.48-.78.82h1.5Z"/><path d="M121.61,117.35c0,.35-.27.63-.68.63s-.67-.28-.66-.63c0-.37.26-.64.67-.64s.67.27.67.64ZM120.3,122.55v-4.07h1.27v4.07h-1.27Z"/><path d="M122.59,119.78c0-.51-.02-.94-.03-1.3h1.1l.06.56h.02c.17-.26.58-.65,1.26-.65.83,0,1.46.55,1.46,1.75v2.42h-1.27v-2.26c0-.52-.18-.88-.64-.88-.35,0-.56.24-.64.48-.03.08-.05.2-.05.32v2.35h-1.27v-2.79Z"/><path d="M128.78,117.35c0,.35-.27.63-.68.63s-.67-.28-.66-.63c0-.37.26-.64.67-.64s.67.27.67.64ZM127.47,122.55v-4.07h1.27v4.07h-1.27Z"/><path d="M131.17,117.31v1.17h.91v.93h-.91v1.47c0,.49.12.72.5.72.16,0,.28-.02.38-.03v.96c-.16.07-.46.11-.82.11-.41,0-.75-.14-.95-.35-.23-.24-.35-.63-.35-1.21v-1.67h-.54v-.93h.54v-.88l1.24-.28h0Z"/><path d="M134.12,117.35c0,.35-.27.63-.68.63s-.67-.28-.66-.63c0-.37.26-.64.67-.64s.67.27.67.64ZM132.81,122.55v-4.07h1.27v4.07h-1.27Z"/><path d="M137.41,122.55l-.07-.41h-.03c-.27.32-.68.5-1.17.5-.83,0-1.32-.6-1.32-1.25,0-1.06.95-1.57,2.39-1.56v-.06c0-.22-.12-.52-.74-.52-.42,0-.86.14-1.12.31l-.23-.82c.28-.16.84-.36,1.58-.36,1.36,0,1.79.8,1.79,1.76v1.42c0,.39.02.77.06.99h-1.14ZM137.26,120.63c-.67,0-1.18.15-1.18.64,0,.33.22.48.5.48.32,0,.57-.21.66-.47.02-.07.02-.14.02-.22v-.44h0Z"/><path d="M139.5,116.64h1.27v5.92h-1.27v-5.92Z"/><path d="M147.42,116.64v4.7c0,.46.02.94.03,1.22h-1.12l-.06-.6h-.02c-.26.46-.75.69-1.27.69-.97,0-1.74-.82-1.74-2.09,0-1.37.85-2.17,1.82-2.17.5,0,.89.17,1.07.46h.02v-2.21h1.27ZM146.16,120.2c0-.07,0-.16-.02-.22-.08-.34-.35-.62-.74-.62-.57,0-.87.52-.87,1.16,0,.69.34,1.12.87,1.12.37,0,.66-.25.73-.61.02-.09.03-.18.03-.29v-.53h0Z"/><path d="M149.75,117.35c0,.35-.27.63-.68.63s-.67-.28-.66-.63c0-.37.26-.64.67-.64s.67.27.67.64ZM148.44,122.55v-4.07h1.27v4.07h-1.27Z"/><path d="M153.04,122.55l-.07-.41h-.03c-.27.32-.68.5-1.17.5-.83,0-1.32-.6-1.32-1.25,0-1.06.95-1.57,2.39-1.56v-.06c0-.22-.12-.52-.74-.52-.42,0-.86.14-1.12.31l-.23-.82c.28-.16.84-.36,1.58-.36,1.36,0,1.79.8,1.79,1.76v1.42c0,.39.02.77.06.99h-1.14ZM152.89,120.63c-.67,0-1.18.15-1.18.64,0,.33.22.48.5.48.32,0,.57-.21.66-.47.02-.07.02-.14.02-.22v-.44h0Z"/><path d="M159.02,118.48c-.02.26-.03.6-.03,1.21v2.27c0,.78-.16,1.42-.62,1.83-.45.38-1.06.5-1.66.5-.53,0-1.1-.11-1.47-.32l.25-.96c.26.15.71.31,1.18.31.6,0,1.06-.33,1.06-1.07v-.27h-.02c-.24.34-.63.53-1.1.53-1.01,0-1.72-.82-1.72-1.99,0-1.31.85-2.14,1.85-2.14.56,0,.91.24,1.12.57h.02l.04-.48h1.1,0ZM157.72,120.14c0-.08,0-.17-.02-.23-.09-.33-.33-.56-.68-.56-.46,0-.83.42-.83,1.16,0,.61.3,1.08.83,1.08.32,0,.58-.22.67-.52.03-.09.04-.23.04-.33v-.6h-.01Z"/><path d="M160,119.78c0-.51-.02-.94-.03-1.3h1.1l.06.56h.03c.17-.26.58-.65,1.26-.65.83,0,1.46.55,1.46,1.75v2.42h-1.27v-2.26c0-.52-.18-.88-.64-.88-.35,0-.56.24-.64.48-.03.08-.05.2-.05.32v2.35h-1.27v-2.79Z"/><path d="M168.91,120.47c0,1.49-1.06,2.17-2.15,2.17-1.19,0-2.11-.78-2.11-2.1s.87-2.16,2.17-2.16,2.08.86,2.08,2.08h.01ZM165.96,120.51c0,.7.29,1.22.83,1.22.49,0,.81-.49.81-1.22,0-.61-.23-1.23-.81-1.23-.61,0-.83.62-.83,1.23Z"/><path d="M169.69,121.44c.23.14.72.31,1.09.31s.54-.13.54-.34-.12-.31-.6-.47c-.84-.28-1.17-.74-1.16-1.22,0-.76.65-1.33,1.66-1.33.47,0,.9.11,1.15.23l-.22.87c-.18-.1-.53-.23-.88-.23-.31,0-.48.12-.48.33,0,.19.16.29.66.47.78.27,1.1.66,1.11,1.26,0,.76-.6,1.32-1.77,1.32-.53,0-1.01-.12-1.32-.28l.22-.91h0Z"/><path d="M174.62,117.35c0,.35-.27.63-.68.63s-.67-.28-.66-.63c0-.37.26-.64.67-.64s.67.27.67.64ZM173.32,122.55v-4.07h1.27v4.07h-1.27Z"/><path d="M175.59,121.44c.23.14.72.31,1.09.31s.54-.13.54-.34-.12-.31-.6-.47c-.84-.28-1.17-.74-1.16-1.22,0-.76.65-1.33,1.66-1.33.47,0,.9.11,1.15.23l-.22.87c-.18-.1-.53-.23-.88-.23-.31,0-.48.12-.48.33,0,.19.16.29.66.47.78.27,1.1.66,1.11,1.26,0,.76-.6,1.32-1.77,1.32-.53,0-1.01-.12-1.32-.28l.22-.91h0Z"/></g><g id="uuid-63d179fb-383d-4066-9e11-9b5e2ac05f37"><ellipse class="uuid-76cbb72e-90e2-4cce-9b77-7d39e118b843" cx="36.62" cy="167.48" rx="22.15" ry="21.75"/><path d="M28.19,164.39c.47-.07,1.07-.12,1.72-.12,1.07,0,1.76.19,2.3.6.58.43.95,1.12.95,2.12,0,1.07-.39,1.82-.93,2.27-.59.49-1.49.72-2.59.72-.66,0-1.12-.04-1.44-.08v-5.52h-.01ZM29.47,168.97c.11.02.28.02.44.02,1.15,0,1.9-.62,1.9-1.97,0-1.17-.67-1.78-1.77-1.78-.28,0-.47.02-.57.05v3.67h0Z"/><path d="M36.27,169.93l-.07-.41h-.03c-.27.32-.68.5-1.17.5-.82,0-1.32-.6-1.32-1.25,0-1.06.95-1.57,2.39-1.56v-.06c0-.22-.12-.52-.74-.52-.42,0-.86.14-1.12.31l-.23-.82c.28-.16.84-.36,1.58-.36,1.36,0,1.79.8,1.79,1.76v1.42c0,.39.02.77.06.99h-1.14ZM36.12,168c-.67,0-1.18.15-1.18.64,0,.33.22.48.5.48.32,0,.57-.21.66-.47.02-.07.02-.14.02-.22v-.44h0Z"/><path d="M39.2,165.85l.61,2c.07.24.15.54.2.76h.02c.06-.22.12-.52.18-.76l.5-2h1.36l-.95,2.68c-.58,1.62-.97,2.27-1.43,2.67-.44.38-.91.52-1.23.56l-.27-1.07c.16-.02.36-.1.55-.22.19-.1.4-.3.52-.51.04-.06.07-.12.07-.18,0-.04,0-.11-.06-.21l-1.49-3.72h1.42Z"/><path d="M42.47,168.82c.23.14.72.31,1.09.31s.54-.13.54-.34-.12-.31-.6-.47c-.84-.28-1.17-.74-1.16-1.22,0-.76.65-1.33,1.66-1.33.48,0,.9.11,1.15.23l-.23.88c-.18-.1-.53-.23-.88-.23-.31,0-.48.12-.48.33,0,.19.16.29.66.47.77.27,1.1.66,1.11,1.26,0,.76-.6,1.32-1.77,1.32-.53,0-1.01-.12-1.32-.28l.23-.91v-.02Z"/></g><g id="uuid-1643fbc8-5305-422c-be95-fa983e345425"><ellipse class="uuid-76cbb72e-90e2-4cce-9b77-7d39e118b843" cx="343.73" cy="71.82" rx="22.15" ry="21.75"/><path d="M331.55,74.27l-1.8-5.62h1.39l.68,2.37c.19.67.37,1.31.5,2.01h.03c.14-.67.32-1.34.51-1.98l.72-2.4h1.35l-1.89,5.62h-1.49Z"/><path d="M336.11,72.63c.04.52.56.77,1.15.77.43,0,.78-.06,1.12-.17l.17.86c-.42.17-.92.25-1.47.25-1.38,0-2.17-.8-2.17-2.07,0-1.03.64-2.17,2.06-2.17,1.32,0,1.82,1.02,1.82,2.03,0,.22-.03.41-.04.5h-2.64ZM337.6,71.77c0-.31-.13-.82-.72-.82-.53,0-.75.48-.78.82h1.5Z"/><path d="M339.54,71.53c0-.6-.02-.99-.03-1.34h1.09l.04.75h.03c.21-.59.71-.84,1.1-.84.12,0,.17,0,.27.02v1.19c-.09-.02-.2-.03-.34-.03-.47,0-.78.25-.87.64-.02.08-.03.18-.03.28v2.07h-1.27v-2.73h.01Z"/><path d="M342.69,73.16c.23.14.72.31,1.09.31s.54-.13.54-.34-.12-.31-.6-.47c-.84-.28-1.17-.74-1.16-1.22,0-.76.65-1.33,1.66-1.33.47,0,.9.11,1.15.23l-.22.88c-.18-.1-.53-.23-.88-.23-.31,0-.48.12-.48.33,0,.19.16.29.66.47.78.27,1.1.66,1.11,1.26,0,.76-.6,1.32-1.77,1.32-.53,0-1.01-.12-1.32-.28l.22-.91v-.02Z"/><path d="M347.63,69.06c0,.35-.27.63-.68.63s-.67-.28-.66-.63c0-.37.26-.64.67-.64s.67.27.67.64ZM346.32,74.27v-4.07h1.27v4.07h-1.27Z"/><path d="M352.63,72.18c0,1.49-1.06,2.17-2.15,2.17-1.19,0-2.11-.78-2.11-2.1s.87-2.16,2.17-2.16,2.08.86,2.08,2.08h.01ZM349.68,72.23c0,.7.29,1.22.83,1.22.49,0,.81-.49.81-1.22,0-.61-.23-1.22-.81-1.22-.61,0-.83.62-.83,1.22Z"/><path d="M353.41,71.49c0-.51-.02-.94-.03-1.3h1.1l.06.56h.03c.17-.26.58-.65,1.26-.65.83,0,1.46.55,1.46,1.75v2.42h-1.27v-2.26c0-.52-.18-.88-.64-.88-.35,0-.56.24-.64.48-.03.08-.05.2-.05.32v2.35h-1.27v-2.79Z"/></g><g id="uuid-f8300631-4b7e-4312-b873-ea6639fcbcae"><ellipse class="uuid-76cbb72e-90e2-4cce-9b77-7d39e118b843" cx="210.62" cy="34.9" rx="22.15" ry="21.75"/><g class="uuid-47adc873-d508-4057-b494-3c791257ccb2"><path class="uuid-9d569e61-7f43-413e-bbfa-4a9363262402" d="M185.41,38.76c-.31,0-.6-.1-.84-.28-.24.17-.53.28-.84.28h-1.26c-.78,0-1.42-.63-1.42-1.42v-5.54c0-.69.5-1.29,1.19-1.4.53-.09,1.23-.13,1.92-.13.82,0,1.86.08,2.7.75.68.55,1.05,1.36,1.05,2.29,0,.61-.18,1.13-.47,1.56.07.16.13.33.18.52l.14.54c.09.35.17.67.24.84.22.44.18.94-.08,1.36-.26.42-.72.65-1.21.65h-1.3v-.02Z"/><path class="uuid-9d569e61-7f43-413e-bbfa-4a9363262402" d="M189.31,38.85c-2.15,0-3.59-1.4-3.59-3.49,0-1.74,1.22-3.59,3.48-3.59,1.9,0,3.23,1.42,3.23,3.45,0,.36-.05.65-.06.75-.04.22-.13.42-.25.59l.07.35c.13.67-.23,1.33-.86,1.58-.58.23-1.26.35-2,.35h-.02Z"/><path class="uuid-9d569e61-7f43-413e-bbfa-4a9363262402" d="M193.7,38.85c-2.1,0-3.57-1.44-3.57-3.5s1.58-3.58,3.75-3.58c.51,0,1.04.09,1.46.25.66.25,1.03.94.89,1.62l-.2.94c-.06.27-.19.51-.38.7.23.21.38.5.43.81l.15.93c.1.63-.24,1.26-.82,1.52-.44.19-1.06.31-1.71.31h0Z"/><path class="uuid-9d569e61-7f43-413e-bbfa-4a9363262402" d="M197.32,38.85c-2.04,0-3.52-1.48-3.52-3.52s1.48-3.58,3.59-3.58,3.5,1.47,3.5,3.5c0,2.36-1.79,3.59-3.57,3.59h0Z"/><path class="uuid-9d569e61-7f43-413e-bbfa-4a9363262402" d="M200.25,38.76c-.78,0-1.42-.63-1.42-1.42v-2.73c0-.57-.02-.94-.03-1.27-.02-.39.12-.76.39-1.04.27-.28.64-.44,1.03-.44h1.09c.13,0,.25.02.36.05.26-.09.53-.14.81-.14.23,0,.34,0,.52.04.67.12,1.16.71,1.16,1.39v1.19c0,.42-.19.82-.51,1.09-.21.18-.46.28-.73.32v1.55c0,.78-.63,1.42-1.41,1.42h-1.27,0Z"/><path class="uuid-9d569e61-7f43-413e-bbfa-4a9363262402" d="M204.86,38.85c-1.8,0-3.16-1.51-3.16-3.51,0-1.05.35-1.99,1.01-2.66.52-.52,1.18-.84,1.9-.91v-.35c0-.78.63-1.42,1.42-1.42h1.27c.78,0,1.42.63,1.42,1.42v4.7c0,.43.02.88.03,1.13.02.39-.12.77-.38,1.06-.27.28-.64.45-1.03.45h-1.12c-.14,0-.27-.02-.4-.06-.3.1-.62.15-.95.15h-.01Z"/><path class="uuid-9d569e61-7f43-413e-bbfa-4a9363262402" d="M208.32,38.76c-.78,0-1.42-.63-1.42-1.42v-4.07c0-.16.03-.31.07-.46-.08-.22-.11-.46-.11-.71-.01-.5.19-1.02.57-1.41.39-.4.93-.62,1.51-.62,1.17,0,2.06.87,2.09,2.03,0,.25-.04.49-.12.71.05.14.08.3.08.46v4.07c0,.78-.63,1.42-1.42,1.42h-1.27.02Z"/><path class="uuid-9d569e61-7f43-413e-bbfa-4a9363262402" d="M213.2,38.76c-.24,0-.47-.06-.67-.17-.2.11-.43.17-.67.17h-1.27c-.78,0-1.42-.63-1.42-1.42v-2.77c0-.48-.02-.89-.03-1.23-.02-.39.12-.76.39-1.04.27-.28.64-.44,1.03-.44h1.1c.14,0,.27.02.4.06.28-.09.6-.15.94-.15,1.43,0,2.88.98,2.88,3.17v2.42c0,.78-.63,1.42-1.42,1.42h-1.27v-.02Z"/><path class="uuid-9d569e61-7f43-413e-bbfa-4a9363262402" d="M217.07,40.5c-.82,0-1.6-.18-2.17-.5-.56-.32-.83-.97-.67-1.59,0,0,.25-.96.25-.97-.41-.57-.65-1.31-.65-2.12,0-2.03,1.4-3.56,3.27-3.56.31,0,.6.04.87.12.1-.02.2-.03.3-.03h1.1c.39,0,.77.16,1.04.45s.4.67.38,1.06c-.02.24-.03.55-.03,1.11v2.27c0,1.29-.36,2.24-1.09,2.89-.68.58-1.54.86-2.6.86h0Z"/><path class="uuid-9d569e61-7f43-413e-bbfa-4a9363262402" d="M223.13,38.85c-.74,0-1.45-.16-1.99-.46-.57-.31-.86-.96-.7-1.59l.22-.91c.02-.1.06-.19.1-.28-.24-.48-.27-.92-.27-1.13,0-1.54,1.32-2.72,3.08-2.72.65,0,1.29.14,1.78.38.6.3.91.97.74,1.62l-.22.88c.33.48.44,1.01.44,1.45,0,1.33-1,2.75-3.18,2.75h0Z"/><path class="uuid-9d569e61-7f43-413e-bbfa-4a9363262402" d="M227.14,38.85c-.77,0-1.49-.29-1.97-.79-.5-.52-.74-1.23-.74-2.19v-.55c-.33-.26-.54-.66-.54-1.11v-.93c0-.46.22-.87.56-1.13.1-.55.52-1,1.08-1.13l1.24-.28c.1-.02.21-.04.32-.04.32,0,.63.11.88.31.29.24.48.58.52.95.54.2.92.72.92,1.33v.93c0,.44-.2.83-.52,1.09.3.27.48.65.48,1.05v.96c.01.59-.34,1.11-.88,1.33-.35.14-.8.21-1.35.21h0Z"/><path class="uuid-9d569e61-7f43-413e-bbfa-4a9363262402" d="M228.98,40.6c-.64,0-1.22-.44-1.38-1.08l-.27-1.07c-.1-.39-.02-.79.2-1.12.16-.24.39-.43.66-.53l-1.2-3c-.17-.44-.12-.93.14-1.32s.7-.62,1.17-.62h1.41c.28,0,.54.08.76.22.22-.14.48-.22.76-.22h1.36c.46,0,.89.22,1.16.6.27.38.33.86.18,1.29l-.95,2.68c-.63,1.76-1.13,2.64-1.83,3.26-.73.63-1.48.84-1.98.9-.06,0-.12.01-.19.01h0Z"/><rect class="uuid-9d569e61-7f43-413e-bbfa-4a9363262402" x="231.71" y="30.01" width="4.1" height="8.75" rx="1.42" ry="1.42"/><path class="uuid-9d569e61-7f43-413e-bbfa-4a9363262402" d="M237.36,38.85c-2.15,0-3.59-1.4-3.59-3.49,0-1.74,1.22-3.59,3.47-3.59,1.9,0,3.23,1.42,3.23,3.45,0,.36-.04.65-.06.75-.04.22-.13.42-.25.59l.07.35c.13.67-.23,1.33-.87,1.58-.58.23-1.26.35-2,.35h0Z"/></g><path d="M182.47,31.8c.41-.07,1.02-.12,1.69-.12.83,0,1.42.12,1.82.44.33.27.52.66.52,1.17,0,.72-.51,1.21-.99,1.38v.02c.39.16.61.53.75,1.05.17.63.35,1.37.46,1.58h-1.3c-.09-.16-.23-.62-.39-1.31-.15-.7-.39-.89-.91-.9h-.38v2.21h-1.26v-5.54.02ZM183.73,34.22h.5c.63,0,1.01-.32,1.01-.81,0-.52-.35-.77-.93-.78-.31,0-.48.02-.58.04v1.55Z"/><path d="M188.35,35.71c.04.52.56.77,1.15.77.43,0,.78-.06,1.12-.17l.17.86c-.42.17-.92.25-1.47.25-1.38,0-2.17-.8-2.17-2.07,0-1.03.64-2.17,2.06-2.17,1.32,0,1.82,1.02,1.82,2.03,0,.22-.03.41-.04.5h-2.64ZM189.84,34.85c0-.31-.13-.82-.72-.82-.53,0-.75.48-.78.82h1.5Z"/><path d="M194.83,37.25c-.22.1-.65.18-1.13.18-1.32,0-2.16-.8-2.16-2.08,0-1.19.82-2.17,2.33-2.17.33,0,.7.06.97.16l-.2.94c-.15-.07-.38-.12-.71-.12-.67,0-1.1.48-1.09,1.14,0,.75.5,1.14,1.12,1.14.3,0,.53-.05.72-.12l.15.93h0Z"/><path d="M199.46,35.26c0,1.49-1.06,2.17-2.15,2.17-1.19,0-2.11-.78-2.11-2.1s.87-2.16,2.17-2.16,2.08.86,2.08,2.08h.01ZM196.52,35.3c0,.7.29,1.22.83,1.22.49,0,.81-.49.81-1.22,0-.61-.23-1.22-.81-1.22-.61,0-.83.62-.83,1.22Z"/><path d="M200.25,34.61c0-.6-.02-.99-.03-1.34h1.09l.04.75h.03c.21-.59.71-.84,1.1-.84.12,0,.17,0,.27.02v1.19c-.09-.02-.2-.03-.34-.03-.47,0-.78.25-.87.64-.02.08-.03.18-.03.28v2.07h-1.27v-2.73h.01Z"/><path d="M207.3,31.43v4.7c0,.46.02.94.03,1.22h-1.12l-.06-.6h-.02c-.26.46-.75.69-1.27.69-.97,0-1.74-.83-1.74-2.09,0-1.37.85-2.17,1.82-2.17.5,0,.89.17,1.07.46h.02v-2.21h1.27ZM206.03,35c0-.07,0-.16-.02-.22-.07-.34-.35-.62-.74-.62-.58,0-.88.52-.88,1.16,0,.69.34,1.12.87,1.12.37,0,.66-.25.73-.61.03-.09.03-.18.03-.29v-.53h0Z"/><path d="M209.63,32.14c0,.35-.27.63-.68.63s-.67-.28-.66-.63c0-.37.26-.64.67-.64s.67.27.67.64ZM208.32,37.35v-4.07h1.27v4.07h-1.27Z"/><path d="M210.6,34.57c0-.51-.02-.94-.03-1.3h1.1l.06.56h.03c.17-.26.58-.65,1.26-.65.83,0,1.46.55,1.46,1.75v2.42h-1.27v-2.26c0-.52-.18-.88-.64-.88-.35,0-.56.24-.64.48-.03.08-.05.2-.05.32v2.35h-1.27v-2.79Z"/><path d="M219.38,33.27c-.02.26-.03.6-.03,1.21v2.27c0,.78-.16,1.42-.62,1.83-.45.38-1.06.5-1.66.5-.53,0-1.1-.11-1.47-.32l.25-.96c.26.15.71.31,1.18.31.6,0,1.06-.33,1.06-1.07v-.27h-.02c-.24.34-.63.53-1.1.53-1.01,0-1.72-.82-1.72-1.99,0-1.31.85-2.14,1.85-2.14.56,0,.91.24,1.12.57h.02l.04-.48h1.1,0ZM218.08,34.93c0-.08,0-.17-.03-.23-.09-.33-.33-.56-.68-.56-.46,0-.83.42-.83,1.16,0,.61.3,1.08.83,1.08.33,0,.58-.22.67-.52.03-.09.04-.23.04-.33v-.6h0Z"/><path d="M222.04,36.24c.23.14.72.31,1.09.31s.54-.13.54-.34-.12-.31-.6-.47c-.84-.28-1.17-.74-1.16-1.22,0-.76.65-1.33,1.66-1.33.47,0,.9.11,1.15.23l-.22.88c-.18-.1-.53-.23-.88-.23-.31,0-.48.12-.48.33,0,.19.16.29.66.47.78.27,1.1.66,1.11,1.26,0,.76-.6,1.32-1.77,1.32-.53,0-1.01-.12-1.32-.28l.22-.91v-.02Z"/><path d="M227.08,32.11v1.17h.91v.93h-.91v1.48c0,.49.12.72.5.72.16,0,.28-.02.37-.03v.96c-.16.07-.46.11-.82.11-.41,0-.75-.14-.95-.35-.23-.24-.35-.63-.35-1.21v-1.67h-.54v-.93h.54v-.88l1.24-.28v-.02Z"/><path d="M229.72,33.27l.61,2c.07.24.15.54.2.76h.02c.06-.22.12-.52.18-.76l.5-2h1.36l-.95,2.68c-.58,1.62-.97,2.27-1.43,2.67-.44.38-.91.52-1.22.56l-.27-1.07c.16-.02.36-.1.55-.22.19-.1.4-.3.53-.51.04-.06.07-.12.07-.18,0-.04,0-.11-.06-.21l-1.49-3.72h1.41-.01Z"/><path d="M233.13,31.43h1.27v5.92h-1.27v-5.92Z"/><path d="M236.39,35.71c.04.52.56.77,1.15.77.43,0,.78-.06,1.12-.17l.17.86c-.42.17-.92.25-1.47.25-1.38,0-2.17-.8-2.17-2.07,0-1.03.64-2.17,2.06-2.17,1.32,0,1.82,1.02,1.82,2.03,0,.22-.03.41-.04.5h-2.64ZM237.88,34.85c0-.31-.13-.82-.72-.82-.53,0-.75.48-.78.82h1.5Z"/></g><g id="uuid-f35c141b-6e25-4dce-9f10-e8e484c27d1d"><ellipse class="uuid-76cbb72e-90e2-4cce-9b77-7d39e118b843" cx="334.19" cy="182.23" rx="22.15" ry="21.75"/><g id="uuid-4aa76f3b-3914-4cf6-9f2c-e824d89c33a6" class="uuid-47adc873-d508-4057-b494-3c791257ccb2"><path class="uuid-9d569e61-7f43-413e-bbfa-4a9363262402" d="M304.04,181.1c-.78,0-1.42-.63-1.42-1.42v-5.54c0-.69.5-1.28,1.18-1.4.53-.09,1.19-.14,1.95-.14,1.11,0,1.96.25,2.6.76.72.57,1.13,1.45,1.13,2.41s-.34,1.77-.96,2.36c-.48.45-1.09.75-1.82.89v.66c0,.78-.63,1.42-1.42,1.42h-1.26.02Z"/><path class="uuid-9d569e61-7f43-413e-bbfa-4a9363262402" d="M309.74,181.19c-1.53,0-2.73-1.17-2.73-2.67,0-.55.16-1.13.52-1.64l-.18-.62c-.18-.63.1-1.31.67-1.63.29-.16,1.09-.54,2.27-.54,1.95,0,3.21,1.25,3.21,3.18v1.42c0,.43.02.67.04.73.08.41-.03.84-.3,1.17-.27.32-.67.51-1.09.51h-1.14c-.12,0-.24-.02-.35-.04-.29.09-.6.13-.92.13h0Z"/><path class="uuid-9d569e61-7f43-413e-bbfa-4a9363262402" d="M314.5,181.18c-.77,0-1.49-.29-1.97-.79-.5-.52-.74-1.23-.74-2.19v-.55c-.33-.26-.54-.66-.54-1.11v-.93c0-.46.22-.87.56-1.13.1-.55.52-1,1.08-1.13l1.24-.28c.1-.02.21-.04.32-.04.32,0,.63.11.88.31.29.24.48.58.52.95.54.2.92.72.92,1.33v.93c0,.44-.2.83-.51,1.09.3.27.48.65.48,1.05v.96c.01.58-.34,1.11-.89,1.33-.35.14-.8.21-1.35.21h0Z"/><path class="uuid-9d569e61-7f43-413e-bbfa-4a9363262402" d="M316.08,181.1c-.78,0-1.42-.63-1.42-1.42v-4.07c0-.16.03-.31.07-.46-.08-.22-.11-.46-.11-.71-.01-.5.19-1.02.57-1.41.39-.4.93-.62,1.51-.62,1.17,0,2.06.87,2.09,2.03,0,.25-.04.49-.12.71.05.14.08.3.08.46v4.07c0,.78-.63,1.42-1.42,1.42h-1.27.02Z"/><path class="uuid-9d569e61-7f43-413e-bbfa-4a9363262402" d="M320.31,181.18c-2.15,0-3.59-1.4-3.59-3.49,0-1.74,1.22-3.59,3.47-3.59,1.9,0,3.23,1.42,3.23,3.45,0,.36-.04.65-.06.75-.04.22-.13.42-.25.59l.07.35c.13.67-.23,1.33-.87,1.58-.58.23-1.26.35-2,.35h0Z"/><path class="uuid-9d569e61-7f43-413e-bbfa-4a9363262402" d="M325.37,181.1c-.24,0-.47-.06-.67-.17-.2.11-.43.17-.67.17h-1.27c-.78,0-1.42-.63-1.42-1.42v-2.77c0-.48-.02-.89-.03-1.23-.02-.39.12-.76.39-1.04.27-.28.64-.44,1.03-.44h1.1c.14,0,.27.02.4.06.28-.09.6-.15.94-.15,1.43,0,2.88.98,2.88,3.17v2.42c0,.78-.63,1.42-1.42,1.42h-1.27v-.02Z"/><path class="uuid-9d569e61-7f43-413e-bbfa-4a9363262402" d="M329.08,181.18c-.77,0-1.49-.29-1.97-.79-.5-.52-.74-1.23-.74-2.19v-.55c-.33-.26-.54-.66-.54-1.11v-.93c0-.46.22-.87.56-1.13.1-.55.52-1,1.08-1.13l1.24-.28c.1-.02.21-.04.32-.04.32,0,.63.11.88.31.29.24.48.58.52.95.54.2.92.72.92,1.33v.93c0,.44-.2.83-.52,1.09.3.27.48.65.48,1.05v.96c.01.59-.34,1.11-.88,1.33-.35.14-.8.21-1.35.21h0Z"/><path class="uuid-9d569e61-7f43-413e-bbfa-4a9363262402" d="M332.34,181.1c-.78,0-1.42-.63-1.42-1.42v-2.73c0-.57-.02-.94-.03-1.27-.02-.39.12-.76.39-1.04.27-.28.64-.44,1.03-.44h1.09c.13,0,.25.02.36.05.26-.09.53-.14.81-.14.23,0,.34,0,.52.04.67.12,1.17.71,1.17,1.39v1.19c0,.42-.19.82-.51,1.09-.21.18-.46.28-.73.32v1.55c0,.78-.63,1.42-1.41,1.42h-1.27Z"/><path class="uuid-9d569e61-7f43-413e-bbfa-4a9363262402" d="M337.39,181.18c-2.15,0-3.59-1.4-3.59-3.49,0-1.74,1.22-3.59,3.47-3.59,1.9,0,3.23,1.42,3.23,3.45,0,.36-.04.65-.06.75-.04.22-.13.42-.25.59l.07.35c.13.67-.23,1.33-.87,1.58-.58.23-1.26.35-2,.35h0Z"/><path class="uuid-9d569e61-7f43-413e-bbfa-4a9363262402" d="M339.85,182.74c-.78,0-1.42-.63-1.42-1.42v-4.36c0-.51-.02-.95-.03-1.3-.02-.39.12-.76.39-1.04.27-.28.64-.44,1.02-.44h1.1c.14,0,.28.02.42.06.32-.1.66-.15,1.02-.15,1.77,0,3.11,1.5,3.11,3.49,0,2.2-1.42,3.42-2.92,3.58v.16c0,.78-.63,1.42-1.42,1.42h-1.27Z"/><path class="uuid-9d569e61-7f43-413e-bbfa-4a9363262402" d="M346.73,181.19c-2.04,0-3.52-1.48-3.52-3.52s1.48-3.58,3.59-3.58,3.5,1.47,3.5,3.5c0,2.36-1.79,3.59-3.57,3.59h0Z"/><path class="uuid-9d569e61-7f43-413e-bbfa-4a9363262402" d="M349.67,181.1c-.78,0-1.42-.63-1.42-1.42v-2.73c0-.57-.02-.94-.03-1.27-.02-.39.12-.76.39-1.04.27-.28.64-.44,1.03-.44h1.09c.13,0,.25.02.36.05.26-.09.53-.14.81-.14.23,0,.34,0,.52.04.67.12,1.17.71,1.17,1.39v1.19c0,.42-.19.82-.51,1.09-.21.18-.46.28-.73.32v1.55c0,.78-.63,1.42-1.41,1.42h-1.27Z"/><path class="uuid-9d569e61-7f43-413e-bbfa-4a9363262402" d="M354.48,181.18c-.77,0-1.49-.29-1.97-.79-.5-.52-.74-1.23-.74-2.19v-.55c-.33-.26-.54-.66-.54-1.11v-.93c0-.46.22-.87.56-1.13.1-.55.52-1,1.08-1.13l1.24-.28c.1-.02.21-.04.32-.04.32,0,.63.11.88.31.29.24.48.58.52.95.54.2.92.72.92,1.33v.93c0,.44-.2.83-.52,1.09.3.27.48.65.48,1.05v.96c.01.59-.34,1.11-.88,1.33-.35.14-.8.21-1.35.21h0Z"/><path class="uuid-9d569e61-7f43-413e-bbfa-4a9363262402" d="M357.97,181.18c-2.15,0-3.59-1.4-3.59-3.49,0-1.74,1.22-3.59,3.47-3.59,1.9,0,3.23,1.42,3.23,3.45,0,.36-.04.65-.06.75-.04.22-.13.42-.25.59l.07.35c.13.67-.23,1.33-.87,1.58-.58.23-1.26.35-2,.35h0Z"/><path class="uuid-9d569e61-7f43-413e-bbfa-4a9363262402" d="M361.94,181.19c-1.8,0-3.16-1.51-3.16-3.51,0-1.05.35-1.99,1.01-2.66.52-.52,1.18-.84,1.9-.91v-.35c0-.78.63-1.42,1.42-1.42h1.27c.78,0,1.42.63,1.42,1.42v4.7c0,.43.02.88.03,1.13.02.39-.12.77-.38,1.06-.27.28-.64.45-1.03.45h-1.12c-.14,0-.27-.02-.4-.06-.3.1-.62.15-.95.15h-.01Z"/><path class="uuid-9d569e61-7f43-413e-bbfa-4a9363262402" d="M303.39,191.19c-2.04,0-3.52-1.48-3.52-3.52s1.48-3.58,3.59-3.58,3.5,1.47,3.5,3.5c0,2.36-1.79,3.59-3.57,3.59h0Z"/><path class="uuid-9d569e61-7f43-413e-bbfa-4a9363262402" d="M307.74,191.19c-1.32,0-2.85-.84-2.85-3.19v-2.39c0-.78.63-1.42,1.42-1.42h1.28c.24,0,.46.06.65.16.2-.1.42-.16.65-.16h1.27c.78,0,1.42.63,1.42,1.42v2.77c0,.51.02.92.03,1.24.02.39-.12.77-.39,1.05s-.64.44-1.03.44h-1.1c-.14,0-.27-.02-.4-.06-.3.1-.62.15-.96.15h.01Z"/><path class="uuid-9d569e61-7f43-413e-bbfa-4a9363262402" d="M312.65,191.18c-.77,0-1.49-.29-1.97-.79-.5-.52-.74-1.23-.74-2.19v-.55c-.33-.26-.54-.66-.54-1.11v-.93c0-.46.22-.87.56-1.13.1-.55.52-1,1.08-1.13l1.24-.28c.1-.02.21-.04.32-.04.32,0,.63.11.88.31.29.24.48.58.52.95.54.2.92.72.92,1.33v.93c0,.44-.2.83-.52,1.09.3.27.48.65.48,1.05v.96c.01.59-.34,1.11-.88,1.33-.35.14-.8.21-1.35.21h0Z"/><path class="uuid-9d569e61-7f43-413e-bbfa-4a9363262402" d="M316.12,191.18c-2.1,0-3.57-1.44-3.57-3.5s1.58-3.58,3.75-3.58c.51,0,1.04.09,1.46.25.66.25,1.03.94.89,1.62l-.2.94c-.06.27-.19.51-.38.7.23.21.38.5.43.81l.15.93c.1.63-.24,1.26-.82,1.52-.44.19-1.06.31-1.71.31h0Z"/><path class="uuid-9d569e61-7f43-413e-bbfa-4a9363262402" d="M319.74,191.19c-2.04,0-3.52-1.48-3.52-3.52s1.48-3.58,3.59-3.58,3.5,1.47,3.5,3.5c0,2.36-1.79,3.59-3.57,3.59h0Z"/><path class="uuid-9d569e61-7f43-413e-bbfa-4a9363262402" d="M327.6,191.1c-.22,0-.43-.05-.62-.14-.19.09-.4.14-.62.14h-1.23c-.22,0-.43-.05-.61-.14-.19.09-.39.14-.61.14h-1.23c-.78,0-1.42-.63-1.42-1.42v-2.77c0-.48-.02-.89-.03-1.23-.02-.39.12-.76.39-1.04.27-.28.64-.44,1.03-.44h1.07c.13,0,.26.02.38.05.29-.09.61-.14.94-.14.43,0,.84.09,1.19.26.38-.18.8-.26,1.24-.26,1.39,0,2.79.98,2.79,3.18v2.4c0,.78-.63,1.42-1.42,1.42h-1.24Z"/><path class="uuid-9d569e61-7f43-413e-bbfa-4a9363262402" d="M331.78,191.18c-2.15,0-3.59-1.4-3.59-3.49,0-1.74,1.22-3.59,3.47-3.59,1.9,0,3.23,1.42,3.23,3.45,0,.36-.04.65-.06.75-.04.22-.13.42-.25.59l.07.35c.13.67-.23,1.33-.87,1.58-.58.23-1.26.35-2,.35h0Z"/><path class="uuid-9d569e61-7f43-413e-bbfa-4a9363262402" d="M340.85,191.1c-.22,0-.43-.05-.62-.14-.19.09-.4.14-.62.14h-1.23c-.22,0-.43-.05-.61-.14-.19.09-.39.14-.61.14h-1.23c-.78,0-1.42-.63-1.42-1.42v-2.77c0-.48-.02-.89-.03-1.23-.02-.39.12-.76.39-1.04.27-.28.64-.44,1.03-.44h1.07c.13,0,.26.02.38.05.29-.09.61-.14.94-.14.43,0,.84.09,1.19.26.38-.18.8-.26,1.24-.26,1.39,0,2.79.98,2.79,3.18v2.4c0,.78-.63,1.42-1.42,1.42h-1.24Z"/><path class="uuid-9d569e61-7f43-413e-bbfa-4a9363262402" d="M345.04,191.18c-2.15,0-3.59-1.4-3.59-3.49,0-1.74,1.22-3.59,3.47-3.59,1.9,0,3.23,1.42,3.23,3.45,0,.36-.04.65-.06.75-.04.22-.13.42-.25.59l.07.35c.13.67-.23,1.33-.87,1.58-.58.23-1.26.35-2,.35h0Z"/><path class="uuid-9d569e61-7f43-413e-bbfa-4a9363262402" d="M348.55,191.19c-1.53,0-2.73-1.17-2.73-2.67,0-.55.16-1.13.52-1.64l-.18-.62c-.18-.63.1-1.31.67-1.63.29-.16,1.09-.54,2.27-.54,1.95,0,3.21,1.25,3.21,3.18v1.42c0,.43.02.67.04.73.08.41-.03.84-.3,1.17-.27.32-.67.51-1.09.51h-1.14c-.12,0-.24-.02-.35-.04-.29.09-.6.13-.92.13h0Z"/><path class="uuid-9d569e61-7f43-413e-bbfa-4a9363262402" d="M352.98,191.18c-.74,0-1.45-.16-1.99-.45-.57-.31-.86-.96-.7-1.59l.22-.91c.02-.1.06-.19.1-.28-.24-.48-.27-.92-.27-1.13,0-1.54,1.32-2.72,3.08-2.72.65,0,1.3.14,1.78.38.6.3.91.97.74,1.62l-.22.87c.33.48.44,1.01.44,1.45,0,1.33-1,2.75-3.18,2.75h0Z"/><path class="uuid-9d569e61-7f43-413e-bbfa-4a9363262402" d="M356.93,191.19c-1.32,0-2.85-.84-2.85-3.19v-2.39c0-.78.63-1.42,1.42-1.42h1.28c.24,0,.46.06.65.16.2-.1.42-.16.65-.16h1.27c.78,0,1.42.63,1.42,1.42v2.77c0,.51.02.92.03,1.24.02.39-.12.77-.39,1.05s-.64.44-1.03.44h-1.1c-.14,0-.27-.02-.4-.06-.3.1-.62.15-.96.15h.01Z"/><path class="uuid-9d569e61-7f43-413e-bbfa-4a9363262402" d="M360.38,191.1c-.78,0-1.42-.63-1.42-1.42v-2.73c0-.57-.02-.94-.03-1.27-.02-.39.12-.76.39-1.04.27-.28.64-.44,1.03-.44h1.09c.13,0,.25.02.36.05.26-.09.53-.14.81-.14.23,0,.34,0,.52.04.67.12,1.17.71,1.17,1.39v1.19c0,.42-.19.82-.51,1.09-.21.18-.46.28-.73.32v1.55c0,.78-.63,1.42-1.41,1.42h-1.27Z"/><path class="uuid-9d569e61-7f43-413e-bbfa-4a9363262402" d="M365.42,191.18c-2.15,0-3.59-1.4-3.59-3.49,0-1.74,1.22-3.59,3.47-3.59,1.9,0,3.23,1.42,3.23,3.45,0,.36-.04.65-.06.75-.04.22-.13.42-.25.59l.07.35c.13.67-.23,1.33-.87,1.58-.58.23-1.26.35-2,.35h0Z"/></g><g id="uuid-25063bb2-db10-4918-b1f7-e932adc00a1e"><path d="M304.04,174.14c.39-.07.94-.12,1.72-.12s1.34.15,1.72.45c.36.28.6.75.6,1.3s-.18,1.02-.52,1.33c-.43.41-1.07.59-1.82.59-.17,0-.32,0-.43-.02v2.01h-1.26v-5.54h-.01ZM305.3,176.69c.11.02.24.03.42.03.67,0,1.09-.34,1.09-.92,0-.52-.36-.82-.99-.82-.26,0-.43.02-.53.05v1.66h.01Z"/><path d="M311.01,179.68l-.08-.41h-.02c-.27.32-.68.5-1.17.5-.82,0-1.32-.6-1.32-1.25,0-1.06.95-1.57,2.39-1.56v-.06c0-.22-.12-.52-.74-.52-.42,0-.86.14-1.12.31l-.23-.82c.28-.16.84-.36,1.58-.36,1.36,0,1.79.8,1.79,1.76v1.42c0,.39.02.77.06.99h-1.14ZM310.86,177.75c-.67,0-1.18.15-1.18.64,0,.33.22.48.5.48.32,0,.58-.21.66-.47.02-.07.03-.14.03-.22v-.44h-.01Z"/><path d="M314.44,174.44v1.17h.91v.93h-.91v1.48c0,.49.12.72.5.72.16,0,.28-.02.38-.03v.96c-.16.07-.46.11-.82.11-.41,0-.75-.14-.95-.35-.23-.24-.35-.63-.35-1.21v-1.67h-.54v-.93h.54v-.88l1.24-.28v-.02Z"/><path d="M317.39,174.47c0,.35-.27.63-.68.63s-.67-.28-.66-.63c0-.37.26-.64.67-.64s.67.27.67.64ZM316.08,179.68v-4.07h1.27v4.07h-1.27Z"/><path d="M319.34,178.04c.04.52.56.77,1.15.77.43,0,.78-.06,1.12-.17l.17.86c-.42.17-.92.25-1.47.25-1.38,0-2.17-.8-2.17-2.07,0-1.03.64-2.17,2.06-2.17,1.32,0,1.82,1.02,1.82,2.03,0,.22-.03.41-.04.5h-2.64ZM320.83,177.18c0-.31-.13-.82-.72-.82-.53,0-.75.48-.78.82h1.5Z"/><path d="M322.77,176.9c0-.51-.02-.94-.03-1.3h1.1l.06.56h.03c.17-.26.58-.65,1.26-.65.83,0,1.46.55,1.46,1.75v2.42h-1.27v-2.26c0-.52-.18-.88-.64-.88-.35,0-.56.24-.64.48-.03.08-.05.2-.05.32v2.35h-1.27v-2.79Z"/><path d="M329.02,174.44v1.17h.91v.93h-.91v1.48c0,.49.12.72.5.72.16,0,.28-.02.37-.03v.96c-.16.07-.46.11-.82.11-.41,0-.75-.14-.95-.35-.23-.24-.35-.63-.35-1.21v-1.67h-.54v-.93h.54v-.88l1.24-.28v-.02Z"/><path d="M332.34,176.95c0-.6-.02-.99-.03-1.34h1.09l.04.75h.03c.21-.59.71-.84,1.1-.84.12,0,.17,0,.27.02v1.19c-.09-.02-.2-.03-.34-.03-.47,0-.78.25-.87.64-.02.08-.03.18-.03.28v2.07h-1.27v-2.73h.01Z"/><path d="M336.42,178.04c.04.52.56.77,1.15.77.43,0,.78-.06,1.12-.17l.17.86c-.42.17-.92.25-1.47.25-1.38,0-2.17-.8-2.17-2.07,0-1.03.64-2.17,2.06-2.17,1.32,0,1.82,1.02,1.82,2.03,0,.22-.03.41-.04.5h-2.64ZM337.91,177.18c0-.31-.13-.82-.72-.82-.53,0-.75.48-.78.82h1.5Z"/><path d="M339.85,176.97c0-.53-.02-.99-.03-1.37h1.1l.06.57h.02c.3-.43.77-.66,1.36-.66.89,0,1.69.77,1.69,2.07,0,1.48-.94,2.18-1.85,2.18-.49,0-.88-.2-1.06-.47h-.02v2.02h-1.27v-4.36.02ZM341.11,177.93c0,.1,0,.19.03.27.08.34.38.6.74.6.55,0,.88-.46.88-1.15,0-.65-.29-1.14-.86-1.14-.36,0-.67.27-.76.64-.02.07-.03.15-.03.23v.56h0Z"/><path d="M348.88,177.59c0,1.49-1.06,2.17-2.15,2.17-1.19,0-2.11-.78-2.11-2.1s.87-2.16,2.17-2.16,2.08.86,2.08,2.08h.01ZM345.93,177.64c0,.7.29,1.22.83,1.22.49,0,.81-.49.81-1.22,0-.61-.23-1.22-.81-1.22-.61,0-.83.62-.83,1.22Z"/><path d="M349.67,176.95c0-.6-.02-.99-.03-1.34h1.09l.04.75h.03c.21-.59.71-.84,1.1-.84.12,0,.17,0,.27.02v1.19c-.09-.02-.2-.03-.34-.03-.47,0-.78.25-.87.64-.02.08-.03.18-.03.28v2.07h-1.27v-2.73h.01Z"/><path d="M354.43,174.44v1.17h.91v.93h-.91v1.48c0,.49.12.72.5.72.16,0,.28-.02.37-.03v.96c-.16.07-.46.11-.82.11-.41,0-.75-.14-.95-.35-.23-.24-.35-.63-.35-1.21v-1.67h-.54v-.93h.54v-.88l1.24-.28v-.02Z"/><path d="M357,178.04c.04.52.56.77,1.15.77.43,0,.78-.06,1.12-.17l.17.86c-.42.17-.92.25-1.47.25-1.38,0-2.17-.8-2.17-2.07,0-1.03.64-2.17,2.06-2.17,1.32,0,1.82,1.02,1.82,2.03,0,.22-.03.41-.04.5h-2.64ZM358.49,177.18c0-.31-.13-.82-.72-.82-.53,0-.75.48-.78.82h1.5Z"/><path d="M364.38,173.76v4.7c0,.46.02.94.03,1.22h-1.12l-.06-.6h-.02c-.26.46-.75.69-1.27.69-.97,0-1.74-.83-1.74-2.09,0-1.37.85-2.17,1.82-2.17.5,0,.89.17,1.07.46h.02v-2.21h1.27ZM363.11,177.33c0-.07,0-.16-.02-.22-.07-.34-.35-.62-.74-.62-.58,0-.88.52-.88,1.16,0,.69.34,1.12.87,1.12.37,0,.66-.25.73-.61.03-.09.03-.18.03-.29v-.53h0Z"/><path d="M305.54,187.6c0,1.49-1.06,2.17-2.15,2.17-1.19,0-2.11-.78-2.11-2.1s.87-2.16,2.17-2.16,2.08.86,2.08,2.08h.01ZM302.59,187.64c0,.7.29,1.22.83,1.22.49,0,.81-.49.81-1.22,0-.61-.23-1.23-.81-1.23-.61,0-.83.62-.83,1.23Z"/><path d="M310.16,188.37c0,.53.02.97.03,1.31h-1.1l-.06-.57h-.03c-.16.25-.54.67-1.27.67-.83,0-1.43-.52-1.43-1.77v-2.39h1.28v2.19c0,.59.19.95.63.95.35,0,.55-.24.63-.44.03-.08.04-.18.04-.27v-2.42h1.27v2.77-.03Z"/><path d="M312.6,184.44v1.17h.91v.93h-.91v1.47c0,.49.12.72.5.72.16,0,.28-.02.37-.03v.96c-.16.07-.46.11-.82.11-.41,0-.75-.14-.95-.35-.23-.24-.35-.63-.35-1.21v-1.67h-.54v-.93h.54v-.88l1.24-.28h.01Z"/><path d="M317.26,189.58c-.22.1-.65.18-1.13.18-1.32,0-2.16-.8-2.16-2.08,0-1.19.82-2.17,2.33-2.17.33,0,.7.06.97.16l-.2.94c-.15-.07-.38-.12-.71-.12-.67,0-1.1.48-1.09,1.14,0,.75.5,1.14,1.12,1.14.3,0,.53-.05.72-.12l.15.93h0Z"/><path d="M321.89,187.6c0,1.49-1.06,2.17-2.15,2.17-1.19,0-2.11-.78-2.11-2.1s.87-2.16,2.17-2.16,2.08.86,2.08,2.08h.01ZM318.94,187.64c0,.7.29,1.22.83,1.22.49,0,.81-.49.81-1.22,0-.61-.23-1.23-.81-1.23-.61,0-.83.62-.83,1.23Z"/><path d="M322.68,186.91c0-.51-.02-.94-.03-1.3h1.07l.06.55h.03c.17-.26.53-.64,1.23-.64.53,0,.94.27,1.12.69h.02c.15-.21.33-.38.53-.49.22-.13.47-.2.77-.2.78,0,1.38.55,1.38,1.77v2.4h-1.23v-2.22c0-.59-.19-.93-.6-.93-.29,0-.5.2-.58.44-.03.09-.05.22-.05.32v2.38h-1.23v-2.28c0-.52-.18-.87-.58-.87-.33,0-.52.25-.59.46-.04.1-.05.22-.05.32v2.37h-1.23v-2.77h-.04Z"/><path d="M330.82,188.05c.04.52.56.77,1.15.77.43,0,.78-.06,1.12-.17l.17.86c-.42.17-.92.25-1.47.25-1.38,0-2.17-.8-2.17-2.07,0-1.03.64-2.17,2.06-2.17,1.32,0,1.82,1.02,1.82,2.03,0,.22-.03.41-.04.5h-2.64ZM332.31,187.18c0-.31-.13-.82-.72-.82-.53,0-.75.48-.78.82h1.5Z"/><path d="M335.93,186.91c0-.51-.02-.94-.03-1.3h1.07l.06.55h.03c.17-.26.53-.64,1.23-.64.53,0,.94.27,1.12.69h.02c.15-.21.33-.38.53-.49.22-.13.47-.2.77-.2.78,0,1.38.55,1.38,1.77v2.4h-1.23v-2.22c0-.59-.19-.93-.6-.93-.29,0-.5.2-.58.44-.03.09-.05.22-.05.32v2.38h-1.23v-2.28c0-.52-.18-.87-.58-.87-.33,0-.52.25-.59.46-.04.1-.05.22-.05.32v2.37h-1.23v-2.77h-.04Z"/><path d="M344.07,188.05c.04.52.56.77,1.15.77.43,0,.78-.06,1.12-.17l.17.86c-.42.17-.92.25-1.47.25-1.38,0-2.17-.8-2.17-2.07,0-1.03.64-2.17,2.06-2.17,1.32,0,1.82,1.02,1.82,2.03,0,.22-.03.41-.04.5h-2.64ZM345.56,187.18c0-.31-.13-.82-.72-.82-.53,0-.75.48-.78.82h1.5Z"/><path d="M349.81,189.68l-.08-.41h-.02c-.27.32-.68.5-1.17.5-.82,0-1.32-.6-1.32-1.25,0-1.06.95-1.57,2.39-1.56v-.06c0-.22-.12-.52-.74-.52-.42,0-.86.14-1.12.31l-.23-.82c.28-.16.84-.36,1.58-.36,1.36,0,1.79.8,1.79,1.76v1.42c0,.39.02.77.06.99h-1.14ZM349.66,187.76c-.67,0-1.18.15-1.18.64,0,.33.22.48.5.48.32,0,.58-.21.66-.47.02-.07.03-.14.03-.22v-.44h-.01Z"/><path d="M351.89,188.57c.23.14.72.31,1.09.31s.54-.13.54-.34-.12-.31-.6-.47c-.84-.28-1.17-.74-1.16-1.22,0-.76.65-1.33,1.66-1.33.47,0,.9.11,1.15.23l-.22.87c-.18-.1-.53-.23-.88-.23-.31,0-.48.12-.48.33,0,.19.16.29.66.47.78.27,1.1.66,1.11,1.26,0,.76-.6,1.32-1.77,1.32-.53,0-1.01-.12-1.32-.28l.22-.91h0Z"/><path d="M359.36,188.37c0,.53.02.97.03,1.31h-1.1l-.06-.57h-.03c-.16.25-.54.67-1.27.67-.83,0-1.43-.52-1.43-1.77v-2.39h1.28v2.19c0,.59.19.95.63.95.35,0,.55-.24.63-.44.03-.08.04-.18.04-.27v-2.42h1.27v2.77-.03Z"/><path d="M360.38,186.95c0-.6-.02-.99-.03-1.34h1.09l.04.75h.03c.21-.59.71-.84,1.1-.84.12,0,.17,0,.27.02v1.19c-.09-.02-.2-.03-.34-.03-.47,0-.78.25-.87.64-.02.08-.03.18-.03.28v2.07h-1.27v-2.73h.01Z"/><path d="M364.45,188.05c.04.52.56.77,1.15.77.43,0,.78-.06,1.12-.17l.17.86c-.42.17-.92.25-1.47.25-1.38,0-2.17-.8-2.17-2.07,0-1.03.64-2.17,2.06-2.17,1.32,0,1.82,1.02,1.82,2.03,0,.22-.03.41-.04.5h-2.64ZM365.94,187.18c0-.31-.13-.82-.72-.82-.53,0-.75.48-.78.82h1.5Z"/></g></g><path class="uuid-d1cd08e4-c953-4b76-a1ea-cdf7ebff82fc" d="M19.26,17.64c.39-.09.94-.15,1.51-.15.67,0,1.32.16,1.71.52.33.3.51.69.51,1.22,0,.76-.38,1.39-.84,1.76-.54.44-1.33.64-2.12.64-.26,0-.5-.02-.72-.05l-.53,2.7h-.85l1.32-6.64h.01ZM19.46,20.88c.25.05.45.07.7.07,1.18,0,1.97-.71,1.97-1.66,0-.8-.59-1.12-1.39-1.12-.34,0-.6.03-.76.07l-.52,2.64Z"/><path class="uuid-d1cd08e4-c953-4b76-a1ea-cdf7ebff82fc" d="M24.52,17.64c.43-.09,1.01-.15,1.52-.15.7,0,1.3.16,1.67.49.32.27.52.66.52,1.12,0,.98-.78,1.71-1.66,1.95v.02c.48.16.72.66.77,1.36.07.94.12,1.58.22,1.85h-.89c-.04-.14-.11-.85-.17-1.63-.05-.92-.4-1.31-1.1-1.31h-.77l-.57,2.94h-.86l1.32-6.64h0ZM24.77,20.7h.77c1.09,0,1.79-.69,1.79-1.5,0-.72-.56-1.04-1.35-1.04-.34,0-.57.03-.73.07l-.49,2.47h.01Z"/><path class="uuid-d1cd08e4-c953-4b76-a1ea-cdf7ebff82fc" d="M35.17,20.19c0,1.17-.44,2.46-1.27,3.26-.62.59-1.43.94-2.4.94-1.81,0-2.66-1.31-2.66-2.74,0-1.19.49-2.5,1.34-3.31.59-.56,1.46-.91,2.35-.91,1.88,0,2.64,1.32,2.64,2.76h0ZM30.83,18.81c-.67.65-1.07,1.83-1.07,2.77,0,1.1.51,2.11,1.88,2.11.59,0,1.16-.25,1.6-.67.65-.64,1.04-1.85,1.04-2.79s-.32-2.1-1.85-2.1c-.62,0-1.17.26-1.6.68h0Z"/><path class="uuid-d1cd08e4-c953-4b76-a1ea-cdf7ebff82fc" d="M41.47,24.28l.5-3.64c.09-.64.25-1.63.38-2.28h-.04c-.32.68-.71,1.48-1.09,2.17l-2.08,3.71h-.66l-.52-3.63c-.1-.78-.18-1.56-.22-2.25h-.02c-.16.62-.37,1.64-.54,2.28l-.95,3.64h-.81l1.82-6.74h1.1l.55,3.87c.07.57.16,1.18.17,1.68h.03c.22-.5.52-1.1.82-1.66l2.17-3.89h1.12l-.89,6.74h-.84Z"/><path class="uuid-d1cd08e4-c953-4b76-a1ea-cdf7ebff82fc" d="M43.81,23.24c.37.25.9.43,1.48.43.79,0,1.52-.45,1.52-1.27,0-.5-.3-.87-1.03-1.26-.89-.46-1.39-1-1.39-1.73,0-1.2,1.08-1.98,2.37-1.98.67,0,1.18.2,1.43.36l-.31.67c-.22-.12-.65-.32-1.21-.31-.86,0-1.38.55-1.38,1.1s.35.86,1.08,1.25c.86.44,1.34.97,1.34,1.8,0,1.17-.95,2.08-2.52,2.08-.71,0-1.39-.22-1.68-.46l.31-.68h-.01Z"/></g></g></svg>